<svg version="1.1" id="Layer_1" xmlns="http://www.w3.org/2000/svg" xmlns:xlink="http://www.w3.org/1999/xlink" x="0px" y="0px" viewBox="0 0 141 21.1268" style="enable-background:new 0 0 141 21.1268;" xml:space="preserve">
 <style type="text/css">
  .st0{fill:#0F3557;}
 </style>
 <path class="st0" d="M12.3068,10.1441c1.0886-0.2276,3.0434-0.6321,3.9643-2.6988c0.0875-0.2019,0.3696-0.8655,0.3696-1.962
	c0-1.9228-0.9997-3.9073-3.5052-4.7098c-1.2379-0.407-3.1645-0.4867-5.2851-0.4867H0v20.2927h8.566
	c2.3252,0,3.9657-0.0849,5.485-0.7419c2.5396-1.1273,3.3704-3.3395,3.3704-4.9195c0-1.1531-0.4039-2.2671-1.126-3.0486
	C15.176,10.6058,13.5421,10.3434,12.3068,10.1441 M4.828,4.0796h4.1689c0.9741,0,2.6724,0.0849,2.6724,2.0391
	c0,2.0988-1.8681,2.1528-3.0145,2.1849H4.828V4.0796z M8.3628,16.8993H4.828v-4.9128h4.4003
	c1.0308,0.0284,3.0437,0.0552,3.0437,2.5028C12.272,16.8145,10.0558,16.8684,8.3628,16.8993 M24.6069,5.5437h-4.3115v15.0358h4.4294
	v-8.4529c0-1.8989,0.6287-2.2101,2.7534-2.5888l1.4682-0.225V5.3983c-2.2996,0.2329-3.3626,0.8926-4.3394,1.7266V5.5437z
	 M38.7528,5.1169c-5.7523-0.3198-8.6563,3.3309-8.6563,7.9312c0,5.5463,3.8526,7.9576,8.0787,7.9576
	c5.864,0,8.0477-4.1629,8.0477-7.9576C46.2229,10.3177,44.8759,5.4575,38.7528,5.1169 M38.1752,17.4992
	c-2.4746,0-3.6236-2.0936-3.6236-4.4833c0-1.0294,0.1981-2.0692,0.7499-2.9256c0.6038-0.9513,1.3503-1.3854,2.6138-1.4675
	c0.6354-0.0593,1.665-0.0271,2.5852,0.8327c0.8347,0.8031,1.2365,2.0976,1.2365,3.7638
	C41.737,15.5819,40.5583,17.4992,38.1752,17.4992 M64.1904,13.0481c0-2.7304-1.3485-7.5907-7.4669-7.9312
	c-5.7547-0.3198-8.6607,3.3309-8.6607,7.9312c0,5.5463,3.8538,7.9576,8.0826,7.9576
	C62.0066,21.0058,64.1904,16.8428,64.1904,13.0481 M52.5112,13.0159c0-1.0294,0.2098-2.0692,0.757-2.9256
	c0.6059-0.9513,1.3511-1.3854,2.6147-1.4675c0.6354-0.0593,1.6635-0.0271,2.5851,0.8327c0.8379,0.8031,1.2403,2.0976,1.2403,3.7638
	c0,2.3626-1.1812,4.28-3.5629,4.28C53.6709,17.4992,52.5112,15.4056,52.5112,13.0159 M82.2184,20.5795l-5.8383-9.6599l5.1763-5.345
	h-5.3197l-4.8569,5.147V0.2869h-4.3406v20.2927h4.3109v-4.6833l1.9005-1.7798l3.8465,6.4631H82.2184z M84.514,20.5795h4.4017V8.6228
	h2.9282V5.9206h-2.9545c-0.0369-2.0141,0.054-2.3601,1.7179-2.3601h1.0616V0.2574C90.8113,0.1467,89.9208,0,89.034,0
	c-2.0797,0-3.3043,0.7735-3.8677,1.5168c-0.5695,0.8045-0.6233,1.8109-0.6233,2.5628v1.841h-2.3866v2.7021h2.3576V20.5795z
	 M98.4245,0.2574h-4.3637v3.4202h4.3637V0.2574z M98.4245,5.5437h-4.3637v15.0358h4.3637V5.5437z M108.9564,21.1268
	c2.4129,0,4.3674-0.9203,5.6557-2.126c0.7799-0.7214,1.2929-1.4707,1.814-2.2494l-3.3378-1.6879
	c-0.5433,1.0616-1.3745,2.6455-3.7927,2.6455c-2.3848,0-3.4545-1.8726-3.4226-3.7419h10.7215
	c-0.0553-1.6931-0.1683-4.6261-2.1286-6.7238c-1.9208-2.0746-4.5043-2.1595-5.399-2.1595c-5.9238,0-7.7088,4.6584-7.7088,8.2853
	C101.358,18.2794,104.4968,21.1268,108.9564,21.1268 M106.7912,9.2239c0.4342-0.4566,1.1787-0.9794,2.2468-0.9794
	c0.7762,0,1.6155,0.2947,2.1521,0.8392c0.6341,0.6585,0.7554,1.4912,0.8396,2.1248h-6.1293
	C106.0466,10.575,106.1859,9.8883,106.7912,9.2239 M123.5877,0.2869h-4.4347v20.2947h4.4347V0.2869z M136.7168,0.2869v6.4086
	c-0.8013-0.6052-1.9787-1.5267-3.9627-1.5267c-3.0177,0-6.2407,2.3304-6.2407,7.9952c0,0.9741,0,3.9931,2.1851,6.0901
	c1.1811,1.1532,2.7348,1.7287,4.2281,1.7287c2.2127,0,3.3636-1.1195,4.0556-1.8083v1.405H141V0.2869H136.7168z M135.2537,17.2717
	c-0.4264,0.2881-0.9484,0.4644-1.4391,0.4644c-2.2415,0-2.8125-2.5621-2.8125-4.6557c0-0.6683,0-4.6043,3.1282-4.6043
	c0.8922,0,1.5263,0.6372,1.7299,0.8918c0.9484,1.1504,0.9484,3.0205,0.9484,3.7125
	C136.8086,13.9132,136.8086,16.2087,135.2537,17.2717">
 </path>
</svg>