<?xml version="1.0" encoding="UTF-8" standalone="no"?>
<!-- Created with Inkscape (http://www.inkscape.org/) -->

<svg
   xmlns:dc="http://purl.org/dc/elements/1.1/"
   xmlns:cc="http://creativecommons.org/ns#"
   xmlns:rdf="http://www.w3.org/1999/02/22-rdf-syntax-ns#"
   xmlns:svg="http://www.w3.org/2000/svg"
   xmlns="http://www.w3.org/2000/svg"
   xmlns:sodipodi="http://sodipodi.sourceforge.net/DTD/sodipodi-0.dtd"
   xmlns:inkscape="http://www.inkscape.org/namespaces/inkscape"
   width="314.49133"
   height="82.023972"
   viewBox="0 0 83.209166 21.702176"
   version="1.1"
   id="svg430"
   inkscape:version="0.92.0 r15299"
   sodipodi:docname="oaktree capital management.svg">
  <defs
     id="defs424">
    <clipPath
       id="clipPath146"
       clipPathUnits="userSpaceOnUse">
      <path
         inkscape:connector-curvature="0"
         id="path144"
         d="M 48.231,64.8 H 295.232 V 126 H 48.231 Z" />
    </clipPath>
  </defs>
  <sodipodi:namedview
     id="base"
     pagecolor="#ffffff"
     bordercolor="#666666"
     borderopacity="1.0"
     inkscape:pageopacity="0.0"
     inkscape:pageshadow="2"
     inkscape:zoom="2.8704821"
     inkscape:cx="156.3017"
     inkscape:cy="6.0533005"
     inkscape:document-units="mm"
     inkscape:current-layer="layer1"
     showgrid="false"
     fit-margin-top="0"
     fit-margin-left="0"
     fit-margin-right="0"
     fit-margin-bottom="0"
     units="px"
     inkscape:window-width="1280"
     inkscape:window-height="744"
     inkscape:window-x="-4"
     inkscape:window-y="-4"
     inkscape:window-maximized="1" />
  <metadata
     id="metadata427">
    <rdf:RDF>
      <cc:Work
         rdf:about="">
        <dc:format>image/svg+xml</dc:format>
        <dc:type
           rdf:resource="http://purl.org/dc/dcmitype/StillImage" />
        <dc:title></dc:title>
      </cc:Work>
    </rdf:RDF>
  </metadata>
  <g
     inkscape:label="Layer 1"
     inkscape:groupmode="layer"
     id="layer1"
     transform="translate(28.866738,-137.71775)">
    <path
       inkscape:connector-curvature="0"
       id="path150"
       style="fill:#008265;fill-opacity:1;fill-rule:nonzero;stroke:none;stroke-width:0.35277778"
       d="m -17.31998,151.18177 c -0.06103,0.0515 0.240242,0.12982 0.08643,0.18874 -0.153812,0.0589 -0.2413,0.28363 -0.2413,0.28363 0,0 -0.4953,-0.1838 -0.392642,-0.27764 0.06914,-0.0642 -0.326672,-0.40922 -0.284339,-0.48013 0.04621,-0.0776 0.568325,0.0639 0.584553,0.16757 0.0085,0.0557 0.299508,0.0737 0.247297,0.11783 m 2.000956,0.51435 -0.155575,-0.4445 c -0.05539,-0.1711 -0.114653,-0.33443 0.0695,-0.51188 0.157339,-0.15205 0.373944,-0.15064 0.517878,-0.0459 0.257527,0.18732 0.177799,0.59619 -0.02434,0.87136 0,0 0.06809,0.0586 0.03563,0.12418 -0.04269,0.0861 -0.119591,0.29245 -0.202141,0.32632 -0.0822,0.0339 -0.178506,0.17356 -0.196145,0.24235 -0.04551,0.1831 0.03457,-0.34113 -0.0448,-0.56197 m 0.622652,-1.46367 c 0.12065,0.12029 0.444147,0.0593 0.605014,0.0395 0.160514,-0.0205 0.137231,0.21907 0.123825,0.37147 -0.01411,0.16087 -0.2413,0.33726 -0.2413,0.33726 l -0.07514,-0.0543 c -0.06491,0.0582 -0.132997,0.049 -0.179916,0.0145 -0.03316,-0.024 -0.06068,-0.0586 -0.07338,-0.0882 -0.05256,-0.11324 -0.172861,-0.23107 -0.233892,-0.27517 -0.130527,-0.0952 -0.285397,-0.14146 -0.447322,-0.14323 0,0 0.401814,-0.32243 0.522111,-0.20178 m -0.52458,6.79838 c 0.42298,-0.0706 1.057627,0.28186 1.691922,0.21166 0.634647,-0.0705 0.383117,-0.19191 0.383117,-0.19191 0,0 -0.557742,-0.10089 -0.912637,-0.65899 -0.354894,-0.55774 -0.304094,-2.28176 -0.152047,-2.63701 0.152047,-0.35419 0.608189,-0.55739 0.608189,-0.55739 0,0 0.608542,0.15205 0.811389,0.10125 l 0.709789,0.15204 c 0,0 -0.0508,0.3041 0.202847,0.40605 0.253295,0.10125 0.709789,0.2025 1.013883,0.10125 0.304448,-0.10125 0.152048,-0.3549 0.406048,-0.3549 0.253294,0 0.405341,0.40535 0.6589886,0.55739 0.2532939,0.1524 0.2028467,-0.0504 0.5069412,0.1524 0.3044472,0.20285 0.6085416,0.3549 0.8621888,0.15205 0.2532945,-0.20249 0.1520472,-0.30445 0.2532945,-0.50694 0.1012472,-0.2032 0.4561416,-0.3549 0.4056944,-0.55739 -0.0508,-0.2032 -0.2536472,-0.35525 -0.1520472,-0.60854 0.1012472,-0.25365 0.3545416,-0.6089 0.3545416,-0.6089 0,0 0.4564945,0 0.6593417,-0.1016 0.2028472,-0.10124 0.3548944,-0.0504 0.1520472,-0.30409 -0.2028472,-0.2533 -0.3040944,-0.50694 -0.3040944,-0.50694 0,0 0.3548944,-0.2533 0.3040944,-0.45614 -0.0508,-0.20285 0,-0.15205 0.2028472,-0.3549 0.2032,-0.20285 -0.0508,-0.30445 -0.0508,-0.60854 0,-0.30409 0.0508,-0.45649 0.2032,-0.55774 0.1516945,-0.1016 0.0508,-0.3041 0.3548945,-0.3549 0.3037416,-0.0504 0.2748138,-0.21131 0.3764138,-0.41416 0.1016,-0.20284 -0.1739194,-0.49847 -0.4272138,-0.65052 -0.2532945,-0.1524 0,-0.35525 -0.3548945,-0.40569 -0.3552472,-0.0508 -0.4564944,0.30409 -0.4564944,0 0,-0.30445 0.1012472,-0.60819 0.1012472,-0.60819 0,0 0.0508,-0.1016 -0.2532944,-0.35525 -0.3040945,-0.25365 -0.2532945,-0.30445 -0.5072945,-0.30445 -0.2532944,0 -0.5573888,0.0508 -0.7094361,-0.20249 -0.1520472,-0.25365 0.3040945,-0.20285 0.1012473,-0.4565 -0.2028473,-0.25329 -0.3548945,-0.20249 -0.5069417,-0.45614 -0.1524,-0.25365 0,-0.45649 -0.2536472,-0.55809 -0.2536472,-0.10125 -0.2536472,-0.10125 -0.6085417,0 -0.3548939,0.1016 -0.5069415,0.2032 -0.4561415,-0.0505 0.0508,-0.25365 0.1520476,-0.20285 0.1520476,-0.45614 0,-0.25365 0.2028467,-0.30445 0.101599,-0.60854 -0.101599,-0.30445 -0.202847,-0.3549 -0.202847,-0.55774 0,-0.20285 -0.0508,-0.0508 -0.2028466,-0.2533 -0.152047,-0.20285 0.101247,-0.35525 -0.2032,-0.45685 -0.304094,-0.10089 -0.658636,0.1016 -0.760236,-0.10089 -0.1016,-0.20285 -0.1016,-0.30445 -0.304094,-0.45685 -0.2032,-0.15169 -0.304448,0 -0.507295,-0.25365 -0.202847,-0.25329 -0.304094,-0.10124 -0.456142,-0.30374 -0.152047,-0.20284 0.0508,-0.1016 -0.152047,-0.35489 -0.202847,-0.254 -0.304447,-0.1524 -0.558094,-0.30445 -0.253295,-0.15205 -0.253295,-0.40569 -0.557389,-0.35489 -0.304095,0.0504 -0.354895,0.0504 -0.354895,0.30409 0,0.25365 -0.253647,0.40605 0.0508,0.5073 0.304095,0.10124 0.506589,0.30409 0.253295,0.30409 -0.253295,0 -0.253295,-0.0508 -0.456495,-0.1524 -0.202494,-0.10125 -0.354894,-0.25294 -0.608541,-0.35419 -0.253295,-0.10195 -0.101247,0.30374 -0.455789,0.1517 -0.355247,-0.1517 -0.1524,-0.20285 -0.406047,-0.4057 -0.253295,-0.20285 -0.202847,-0.25365 -0.506942,-0.35489 -0.304094,-0.1016 -0.304094,-0.2032 -0.608542,-0.0508 -0.304094,0.15204 -0.152047,0.10124 -0.506588,0.20284 -0.355248,0.10125 -0.507295,0.0508 -0.406048,0.30445 0.1016,0.25365 0.152048,0.3549 -0.101247,0.50659 -0.253647,0.1524 -0.101247,0.45685 -0.304447,0.35489 -0.202495,-0.10124 -0.354895,0.0508 -0.456142,-0.25329 -0.1016,-0.30409 0.07726,-0.33126 -0.05045,-0.45579 -0.190147,-0.18591 -0.253647,0.25294 -0.608542,0.30374 -0.354894,0.0504 -0.1524,0.1016 -0.354894,0.3041 -0.202847,0.2032 0.506589,0.25364 -0.1016,0.50729 -0.608542,0.2533 -0.557742,0 -0.760589,0.2533 -0.202847,0.25364 -0.101247,0.30409 -0.405694,0.40604 -0.304095,0.10125 -0.202848,-0.0512 -0.506942,0.2533 -0.304094,0.30409 -0.456142,0.25329 -0.456142,0.55774 0,0.30409 0.202495,0.30409 -0.0508,0.50694 -0.253647,0.20285 -0.202847,0.35454 -0.0508,0.60819 0.152048,0.254 0.506942,0.65969 0.1016,0.50729 -0.405694,-0.15204 -0.507294,-0.30444 -0.557741,-0.10124 -0.0508,0.20249 -0.253648,0.15204 -0.354895,0.50694 -0.1016,0.35525 0,0.1016 0.05045,0.45649 0.0508,0.35455 0.328789,0.32033 -0.282575,0.41734 -0.291747,0.0462 -0.123119,0.19085 -0.478013,0.29245 -0.354895,0.10125 -0.557742,0 -0.608189,0.2533 -0.0508,0.25364 0.152047,0.40569 -0.1016,0.55774 -0.253648,0.15205 -0.202495,0.20285 -0.354895,0.50694 -0.1524,0.30445 -0.405341,0.45614 -0.405341,0.76094 0,0.30374 0.304094,0.3549 0.05045,0.65934 -0.253295,0.30375 -0.253295,0.30375 -0.05045,0.60784 0.202494,0.30445 0.456141,0.35489 0.456141,0.65969 0,0.30375 -0.101247,0.45615 0.1016,0.70944 0.202495,0.25365 0.709789,0.35489 0.405342,0.60819 -0.304095,0.25365 -0.152047,0.1524 -0.456495,0.35489 -0.304094,0.2032 -0.557741,0.0512 -0.354541,0.40605 0.202847,0.35489 0.405694,0.15205 0.405694,0.55774 0,0.40534 0.152047,0.40534 0.506942,0.55774 0.354894,0.1517 0.456142,0.65935 0.709789,0.50695 0.253647,-0.15205 0.253647,-0.2533 0.456141,0.1016 0.202848,0.35489 0.354895,0.65898 0.507295,0.35489 0.152047,-0.30409 0.253294,-0.25365 0.456142,-0.35489 0.202847,-0.1016 0,-0.2032 0.354894,-0.2032 0.354894,0 0.354894,0.2032 0.608542,0.0508 0.253294,-0.15205 0.0508,-0.3549 0.354894,-0.30445 0.304095,0.0512 0.354895,0.0512 0.405695,0.25365 0.05045,0.2032 0.0028,0.30762 0.307269,0.30762 0.304094,0 0.390878,-0.42051 0.441678,-0.16687 0.05045,0.2533 0.304094,0.50695 0.506941,0.45615 0.202848,-0.0504 0.405695,0.1524 0.354895,-0.20285 -0.0508,-0.35454 0.163689,-0.19085 0.214489,-0.4445 0.05045,-0.25365 -0.0035,-0.40323 0.147108,-0.58279 0.175331,-0.21061 0.664281,-0.2286 0.664281,-0.2286 0,0 0.557388,-0.10125 0.963083,0.40569 0.405694,0.50695 0.452614,0.99695 0.456494,1.67323 0.0025,0.44027 0.03775,0.73166 -0.178858,1.11583 -0.202494,0.35878 -0.796572,0.69498 -0.796572,0.69498 0,0 -0.224367,0.19932 0.157691,0.20637 0.341489,0.006 1.280937,-0.1785 1.480609,-0.21166 m -2.163586,-4.38397 c -0.07655,-0.0462 -0.240595,0.1337 -0.479073,0.0681 -0.212372,-0.0579 -0.269169,-0.10654 -0.353836,0.01 -0.21343,0.29386 -0.326672,0.0374 -0.411339,0 -0.135113,-0.11254 0.155928,-0.28081 0.433917,-0.41981 0.202847,-0.10124 0.06985,-0.49565 0.315383,-0.49565 0.09243,0 0.07232,0.23001 0.274814,0.14005 0.189442,-0.0843 0.09455,0.28364 0.09455,0.28364 l 0.07444,0.0543 c 0.0702,-0.0445 0.125236,-0.0596 0.186267,-0.0155 0.07479,0.0543 0.148872,0.25894 0.337255,0.39582 0.04974,0.0349 0.101953,0.0649 0.155928,0.09 0.0575,0.0257 -0.368653,0.0448 -0.628297,-0.11077 m 1.198739,-1.07739 0.123472,0.39617 c 0.06703,0.17427 0.09419,0.34925 -0.08996,0.52705 -0.195791,0.18944 -0.452261,0.1838 -0.635352,0.0508 -0.287514,-0.20884 -0.16122,-0.64946 0.06491,-0.94685 0,0 -0.137584,-0.33726 -0.116064,-0.41311 0.02505,-0.0885 0.157339,-0.43709 0.270228,-0.22507 0.113241,0.21237 0.287161,0.30092 0.382764,0.61101 m 2.208036,-0.33831 c -0.0702,0.0695 -0.125942,0.0515 -0.214842,0.23424 -0.08925,0.18239 -0.198967,0.44133 -0.198967,0.44133 0,0 0.321381,-0.0861 0.448381,-0.20144 0.08608,-0.079 0.252236,-0.21978 0.343958,-0.26423 0.100189,-0.0487 0.178858,-0.18803 0.06879,-0.24835 -0.110067,-0.0614 -0.130175,0.10336 -0.255764,0.0723 -0.06738,-0.0169 -0.131586,-0.0935 -0.191558,-0.0339 m 1.053747,1.38924 c 0.534458,0.0638 0.615597,0.31785 0.868891,0.2674 0.253648,-0.0512 0.809625,-0.28716 0.507295,-0.25364 -0.456495,0.0501 -0.795867,-0.41205 -0.795867,-0.41205 -0.221544,0.31997 -0.580319,0.39829 -0.580319,0.39829 m -0.975078,0.11112 c 0.310444,-0.26599 0.814917,-0.41945 0.997303,-0.41945 0.182739,0 0.842433,-0.4004 0.244122,-0.42263 -0.227894,-0.008 -0.184856,-0.42368 -0.417689,-0.4258 -0.226483,-0.002 -0.258233,0.24236 -0.42933,0.39052 -0.156987,0.13512 -0.25647,0.16581 -0.414162,0.33373 -0.136525,0.14464 -0.14605,0.32667 -0.120297,0.3997 0.06985,0.1972 0.07126,-0.031 0.140053,0.14393 m -14.703072,-4.16277 c 0,-5.84694 5.943247,-10.58651 13.275028,-10.58651 7.3321324,0 13.2757323,4.73957 13.2757323,10.58651 0,5.84729 -5.9435999,10.5865 -13.2757323,10.5865 -7.331781,0 -13.275028,-4.73921 -13.275028,-10.5865" />
    <g
       id="g535"
       style="fill:#231f20;fill-opacity:1"
       transform="translate(0.2645826,-0.26457586)">
      <path
         d="m 7.425511,150.11906 c -0.18415,0.46496 -0.4564944,0.82268 -0.8089194,1.06362 -0.352425,0.23919 -0.7634111,0.36054 -1.222375,0.36054 -0.6928555,0 -1.2745861,-0.26246 -1.7286111,-0.78034 -0.4568472,-0.52282 -0.6886222,-1.32186 -0.6886222,-2.37525 0,-0.53975 0.090311,-1.05481 0.2677583,-1.53106 0.1756834,-0.46461 0.4504973,-0.82409 0.8166806,-1.06856 0.3697111,-0.24412 0.7951611,-0.3676 1.2640027,-0.3676 0.428625,0 0.8177389,0.1016 1.1571111,0.30233 0.3418417,0.20179 0.6328833,0.54187 0.8653639,1.01071 0.2353028,0.47131 0.3548944,1.07703 0.3548944,1.80129 0,0.57643 -0.093486,1.10948 -0.2772833,1.58432 m 0.5538611,-4.39032 c -0.6081889,-0.61842 -1.4351,-0.93169 -2.4578027,-0.93169 -1.0981972,0 -2.0090694,0.35278 -2.7068639,1.04952 -0.7002638,0.69532 -1.0551583,1.59738 -1.0551583,2.68111 0,1.15147 0.3086806,2.05528 0.9179278,2.6864 0.6096,0.63183 1.4470944,0.95215 2.4891999,0.95215 1.1098389,0 2.0185944,-0.35172 2.7012194,-1.04563 0.6822722,-0.69462 1.0283472,-1.64995 1.0283472,-2.84022 0,-1.07491 -0.3086805,-1.93322 -0.9168694,-2.55164"
         style="fill:#231f20;fill-opacity:1;fill-rule:nonzero;stroke:none;stroke-width:0.35277778"
         id="path154"
         inkscape:connector-curvature="0" />
      <path
         d="m 12.462966,149.1605 c -3.53e-4,0 -0.726369,-0.0148 -0.776111,-0.0159 0.01975,-0.0469 0.452967,-1.07809 0.452967,-1.07809 0,0 0.538691,-1.282 0.569736,-1.35643 0.03069,0.072 1.008944,2.38654 1.029052,2.43416 -0.0515,7.1e-4 -1.275291,0.0162 -1.275644,0.0162 m 4.096103,2.26695 h -7.06e-4 c -0.553508,-0.16087 -0.643819,-0.2032 -0.658636,-0.21237 0,-0.001 -0.132997,-0.15699 -0.132997,-0.15699 0,-0.002 -1.078795,-2.35408 -1.078795,-2.35408 -0.605013,-1.3515 -1.123597,-2.58057 -1.541286,-3.65267 l -0.01905,-0.0504 -0.41663,-0.012 c -0.01658,0.0109 -1.316567,3.02543 -1.316567,3.02543 -0.717197,1.65523 -1.168753,2.64794 -1.342672,2.94992 -0.076553,0.12806 -0.1492251,0.21872 -0.2159001,0.26952 -0.092428,0.0681 -0.2751666,0.13335 -0.5432777,0.19333 3.528e-4,0 -0.061383,0.0123 -0.061383,0.0123 l -0.014464,0.43886 v 0.019 l 1.1578168,-0.0564 c 0,3.5e-4 1.196975,0.054 1.196975,0.054 0.0187,-0.0176 0.02011,-0.0998 0.02011,-0.0998 v -0.33267 c -0.0127,-0.0173 -0.214842,-0.0765 -0.214842,-0.0765 -0.434622,-0.0928 -0.503061,-0.12347 -0.513644,-0.13088 -0.0042,-0.005 -0.0067,-0.0123 -0.0067,-0.0254 0,-0.0353 0.02223,-0.11359 0.104775,-0.30938 0,0 0.466019,-1.12219 0.466372,-1.1236 7.06e-4,0.0106 1.204031,0.002 1.204031,0.002 0,0 1.38183,0.008 1.382183,0.008 -3.53e-4,0 -3.53e-4,0 -3.53e-4,3.6e-4 0,0.0272 0.437092,1.06997 0.437092,1.06997 0.08043,0.19544 0.08925,0.27058 0.08925,0.29351 0,0.019 -0.0056,0.049 -0.05468,0.0861 -0.01235,0.009 -0.100894,0.06 -0.616303,0.16792 0,0 -0.0635,0.0141 -0.0635,0.0141 l -0.01411,0.43745 c 0.0187,0.018 1.493309,-0.036 1.493309,-0.036 0,3.5e-4 1.322916,0.054 1.322916,0.054 0.01905,-0.0176 0.02011,-0.0998 0.02011,-0.0998 v -0.33267 c -0.01235,-0.0173 -0.06844,-0.0349 -0.06844,-0.0349"
         style="fill:#231f20;fill-opacity:1;fill-rule:nonzero;stroke:none;stroke-width:0.35277778"
         id="path158"
         inkscape:connector-curvature="0" />
      <path
         d="m 17.546811,145.19721 v 0.33831 c 0.01446,0.0176 0.287514,0.0741 0.287514,0.0741 0.483658,0.0815 0.662869,0.14816 0.728133,0.18979 -0.0095,-0.0152 0.02611,0.0381 0.02611,0.0381 -0.0011,-7e-4 0.01199,0.0483 0.01199,0.35419 0,0 0.02328,2.52977 0.02328,2.52977 l -0.03528,2.21897 c -0.0078,0.22719 -0.04727,0.27129 -0.05186,0.27587 -0.01341,0.012 -0.111125,0.0783 -0.684741,0.16228 0.0025,0 -0.292453,0.0607 -0.292453,0.0607 -0.01411,0.0183 -0.0127,0.0822 -0.0127,0.0822 v 0.3556 c 0.0187,0.018 1.676753,-0.036 1.676753,-0.036 0,0 1.497189,0.054 1.497189,0.054 0.0187,-0.0176 0.02117,-0.0998 0.02117,-0.0998 v -0.33831 c -0.01411,-0.0176 -0.07832,-0.0314 -0.07832,-0.0314 -0.212373,-0.0413 -0.750359,-0.15099 -0.831145,-0.1778 -0.07973,-0.0286 -0.108655,-0.0575 -0.118886,-0.0765 -0.0074,-0.0152 -0.02505,-0.0741 -0.02505,-0.28646 0,-3.5e-4 -0.0099,-1.93463 -0.01129,-2.15547 0.05468,0.0529 0.518583,0.49918 0.518583,0.49918 1.074561,1.016 1.759656,1.68804 1.982259,1.94345 0,3.6e-4 0.06456,0.0998 0.06456,0.0998 -3.53e-4,0 -0.02505,0.0272 -0.02505,0.0272 -0.0099,0.007 -0.07726,0.0395 -0.462845,0.12842 l -0.06103,0.0138 -0.01376,0.43604 c 0.01835,0.018 1.716264,-0.036 1.716264,-0.036 0,0 1.553634,0.054 1.553634,0.054 0.0187,-0.0176 0.02011,-0.10019 0.02011,-0.10019 v -0.33796 c -0.01482,-0.0176 -0.07796,-0.03 -0.07796,-0.03 -0.5588,-0.12312 -0.896761,-0.20673 -1.004711,-0.24835 -0.0028,-0.002 -0.04763,-0.0286 -0.2921,-0.17216 0.0021,10e-4 -1.485547,-1.36666 -1.485547,-1.36666 -0.648759,-0.60889 -1.135592,-1.08232 -1.447095,-1.40758 0.01799,0.008 0.509059,-0.42686 0.509059,-0.42686 0.0011,-7.1e-4 1.265413,-1.15465 1.265413,-1.15465 v 3.6e-4 c 3.53e-4,0 0.02364,-0.0215 0.820914,-0.76976 0,0 -0.0046,-7.1e-4 -0.0078,-0.001 0.01905,-0.005 0.06174,-0.0282 0.208492,-0.11183 0.04939,-0.0201 0.216605,-0.0748 0.754944,-0.20285 l 0.06138,-0.0138 0.01411,-0.43603 c -0.0187,-0.018 -1.493661,0.0342 -1.493661,0.0342 0,-3.5e-4 -1.216731,-0.0522 -1.216731,-0.0522 -0.01834,0.0173 -0.02117,0.0991 -0.02117,0.0991 v 0.33443 c 0.01305,0.0176 0.179212,0.0624 0.179212,0.0624 0.373591,0.0783 0.446616,0.11571 0.459669,0.12524 0.0014,0.005 0.0018,0.01 0.0018,0.0159 0,0.0494 -0.04127,0.14993 -0.273403,0.38912 -0.728486,0.75212 -1.484136,1.45062 -2.24543,2.07962 0.0011,-0.0762 0.02117,-1.43933 0.02117,-1.43933 0.01129,-0.79128 0.02575,-0.90911 0.02858,-0.92463 -0.01517,0.0145 0.06138,-0.0808 0.06138,-0.0808 7.05e-4,0.001 0.06985,-0.0335 0.672747,-0.15099 -0.0035,3.6e-4 0.26423,-0.0547 0.26423,-0.0547 l 0.01446,-0.43744 c -0.01834,-0.018 -1.37795,0.03 -1.37795,0.03 -3.52e-4,0 -0.28963,0.004 -0.28963,0.004 0,-3.5e-4 -1.50742,-0.0522 -1.50742,-0.0522 -0.0187,0.0176 -0.02011,0.0995 -0.02011,0.0995"
         style="fill:#231f20;fill-opacity:1;fill-rule:nonzero;stroke:none;stroke-width:0.35277778"
         id="path162"
         inkscape:connector-curvature="0" />
      <path
         d="m 25.646589,145.19104 -0.166864,1.91347 0.105833,0.001 h 0.422981 c 0.01764,-0.0137 0.0314,-0.0737 0.0314,-0.0737 0.105834,-0.43885 0.188384,-0.7366 0.238125,-0.86113 0.05856,-0.14781 0.125236,-0.24694 0.192617,-0.28716 0.02399,-0.0166 0.09278,-0.0434 0.298803,-0.0434 l 0.203552,-0.004 h 1.027289 c -0.006,3.5e-4 -0.0081,0.23107 -0.0081,0.53975 0,0.62442 0.0081,1.56739 0.0081,1.56739 l -0.01905,2.20416 c -0.01129,0.89041 -0.02787,0.99342 -0.03069,1.00506 -7.06e-4,0 -0.03598,0.0621 -0.03598,0.0621 -0.0078,0.004 -0.100541,0.0568 -0.685447,0.15452 -0.0011,3.5e-4 -0.316794,0.0716 -0.316794,0.0716 -0.01023,0.0134 -0.01164,0.0494 -0.01164,0.0688 0,0.007 3.53e-4,0.36724 3.53e-4,0.36724 0.0187,0.018 1.502127,-0.036 1.502127,-0.036 0,3.5e-4 1.722614,0.054 1.722614,0.054 0.0187,-0.0173 0.02152,-0.0995 0.02152,-0.0995 v -0.33831 c -0.01446,-0.0176 -0.282575,-0.0741 -0.282575,-0.0741 -0.624064,-0.12207 -0.714022,-0.17216 -0.725311,-0.18098 -0.0056,-0.005 -0.02822,-0.031 -0.03528,-0.12136 -0.02364,-0.40146 -0.03598,-1.17051 -0.03598,-2.28529 0,0 0.03598,-2.98379 0.03598,-2.98379 l 0.936978,0.0176 c 0.436739,0 0.551744,0.036 0.580672,0.0515 0.06138,0.0303 0.109361,0.0836 0.146403,0.16334 0.02258,0.055 0.08996,0.25752 0.278341,0.98813 l 0.01517,0.06 0.51188,0.0134 h 0.01905 l -0.1524,-1.9886 -0.09525,-0.0166 c -3.52e-4,0 -2.659944,0.0494 -2.659944,0.0494 l -3.013781,-0.0508 c -0.01799,0.0166 -0.02469,0.0921 -0.02469,0.0921"
         style="fill:#231f20;fill-opacity:1;fill-rule:nonzero;stroke:none;stroke-width:0.35277778"
         id="path166"
         inkscape:connector-curvature="0" />
      <path
         d="m 35.688796,148.27368 c -0.0018,0 -0.662164,-0.0452 -0.662517,-0.0452 0.01693,-7e-4 0.04339,-2.41335 0.04339,-2.41652 0.0011,0.0162 0.869597,-0.0335 0.869597,-0.0335 0.425097,0 0.752475,0.10584 0.972961,0.31362 0.218017,0.20708 0.328436,0.49495 0.328436,0.85549 0,0.41733 -0.125941,0.74542 -0.374297,0.97543 -0.248003,0.23248 -0.644172,0.35066 -1.177572,0.35066 m 4.075289,3.15348 h 3.53e-4 c -0.392995,-0.0868 -0.689681,-0.16792 -0.859367,-0.23424 -0.112889,-0.0423 -0.204611,-0.0931 -0.27305,-0.15064 -0.02611,-0.0236 -0.106892,-0.11113 -0.346428,-0.42686 0,0 -1.380066,-1.79529 -1.462616,-1.90288 0.305858,-0.0938 0.53728,-0.19156 0.699205,-0.29881 0.271992,-0.18309 0.481895,-0.41028 0.62477,-0.67486 0.144638,-0.2667 0.218016,-0.57573 0.218016,-0.91863 0,-0.51577 -0.162278,-0.93275 -0.482953,-1.24002 -0.32385,-0.30127 -0.804686,-0.45402 -1.429455,-0.45402 -3.53e-4,0 -0.682272,0.0155 -0.682272,0.0155 l -0.791986,0.008 -2.045759,-0.0508 c -0.01834,0.0176 -0.01976,0.0981 -0.01976,0.0981 v 0.33831 c 0.01411,0.0176 0.289983,0.0755 0.289983,0.0755 0.326672,0.0533 0.553156,0.11642 0.69215,0.19262 0,0.002 0.04586,0.0579 0.04586,0.0579 7.06e-4,0.007 0.01341,0.0892 0.01799,0.54468 l 0.01905,2.18652 c -0.01164,2.01471 -0.02011,2.33751 -0.02328,2.38266 -0.0067,0.10901 -0.03175,0.18839 -0.07126,0.22402 -0.01552,0.0148 -0.111125,0.0716 -0.693561,0.18485 -7.05e-4,0 -0.262819,0.0554 -0.262819,0.0554 l -0.01411,0.43744 c 0.0187,0.018 1.633008,-0.036 1.633008,-0.036 0,0 1.553633,0.054 1.553633,0.054 0.0187,-0.0176 0.02081,-0.0998 0.02081,-0.0998 v -0.33796 c -0.01411,-0.0176 -0.337255,-0.0879 -0.337255,-0.0879 -0.492478,-0.0903 -0.620889,-0.15098 -0.65405,-0.17885 -0.02787,-0.0254 -0.04516,-0.0737 -0.05009,-0.1397 0,-0.002 -0.0321,-2.11667 -0.03387,-2.22497 0.03422,0.002 0.689327,0.0494 0.68968,0.0494 0,0.0109 0.984956,1.36278 0.984956,1.36278 3.52e-4,3.5e-4 0.09384,0.12065 0.09384,0.12065 l 0.428625,0.617 0.588786,0.90805 c 0.01552,0.008 0.06879,0.007 0.06879,0.007 7.06e-4,0 0.779286,-0.0512 0.779286,-0.0512 0,3.5e-4 1.140884,0.0568 1.140884,0.0568 0.01905,-0.0176 0.02046,-0.10124 0.02046,-0.10124 v -0.33796 c -0.01446,-0.0176 -0.0762,-0.03 -0.0762,-0.03"
         style="fill:#231f20;fill-opacity:1;fill-rule:nonzero;stroke:none;stroke-width:0.35277778"
         id="path170"
         inkscape:connector-curvature="0" />
      <path
         d="m 40.667796,145.11389 v 0.42016 c 0.01411,0.0176 0.5715,0.14252 0.5715,0.14252 0.317853,0.0734 0.383117,0.10089 0.395464,0.10795 3.53e-4,0.001 0.04904,0.0543 0.04904,0.0543 0,-3.5e-4 0,-3.5e-4 0,0 0,0.003 0.02575,0.0818 0.03387,0.66322 l 0.0099,1.96815 -0.0056,1.24036 -0.02611,1.09256 v 0.0854 c 0,0.22084 -0.03351,0.28892 -0.04833,0.30762 0,0 -0.02752,0.0268 -0.169686,0.067 -0.0056,7e-4 -0.104422,0.0226 -0.745772,0.16404 l -0.06174,0.0123 -0.01446,0.43603 c 0.01834,0.018 2.254955,-0.0346 2.254955,-0.0346 l 3.147131,0.0526 c 0.01693,-0.012 0.03739,-0.0681 0.03739,-0.0681 0,-3.6e-4 0.618772,-1.86161 0.618772,-1.86161 l -0.133703,-0.003 h -0.356658 c -0.01517,0.009 -0.151342,0.23954 -0.151342,0.23954 -0.246944,0.44238 -0.406047,0.69674 -0.487186,0.77823 -0.07832,0.0829 -0.168275,0.14111 -0.275872,0.17886 -0.01975,0.006 -0.113947,0.0265 -0.474133,0.0265 -7.06e-4,0 -0.174978,0.004 -0.174978,0.004 H 42.77776 c 0.0053,-3.6e-4 0.0071,-0.21273 0.0071,-0.51506 0,-0.74859 -0.01094,-2.04893 -0.01094,-2.04893 l 1.187097,0.018 c 0.523523,0 0.638175,0.0325 0.660753,0.0423 0.05433,0.0229 0.09066,0.0586 0.111831,0.10866 0.0056,0.0148 0.04128,0.12241 0.163336,0.73872 l 0.01235,0.0631 0.47625,0.0145 c 0.01799,-0.0187 -0.03387,-1.27776 -0.03387,-1.27776 l 0.05186,-1.26471 c -0.01729,-0.0187 -0.101953,-0.0205 -0.101953,-0.0205 h -0.370769 c -0.01764,0.0134 -0.07585,0.23742 -0.07585,0.23742 -0.09172,0.4385 -0.143933,0.56021 -0.166511,0.59407 -0.03669,0.0533 -0.08184,0.0879 -0.138641,0.10584 -0.03351,0.009 -0.175684,0.0303 -0.748595,0.0303 h -1.054805 c 0.01764,-0.002 0.02963,-0.81351 0.02963,-0.81351 l 0.0321,-1.41464 1.801989,0.0173 c 0.419452,0 0.586316,0.0293 0.652638,0.0536 0.05433,0.0222 0.10407,0.072 0.144287,0.14429 0.07479,0.13158 0.17533,0.40498 0.298802,0.81209 0,3.5e-4 0.01623,0.0561 0.01623,0.0561 l 0.490008,0.0127 h 0.02046 l -0.01411,-0.11077 c -0.06809,-0.51294 -0.10548,-1.04281 -0.111125,-1.5748 0,-3.5e-4 -0.0014,-0.0797 -0.0014,-0.0797 -0.01799,-0.0176 -3.255433,0.0332 -3.255433,0.0332 -0.798336,0 -1.497894,-0.0169 -2.079625,-0.0497 -3.53e-4,0 -0.103011,-0.005 -0.103011,-0.005 v 0.019"
         style="fill:#231f20;fill-opacity:1;fill-rule:nonzero;stroke:none;stroke-width:0.35277778"
         id="path174"
         inkscape:connector-curvature="0" />
      <path
         d="m 47.766566,145.11389 v 0.42016 c 0.01411,0.0176 0.571147,0.14252 0.571147,0.14252 0.331611,0.0765 0.388056,0.10301 0.39617,0.1076 0,0.001 0.04939,0.0533 0.04939,0.0533 0.0014,0.007 0.02681,0.10089 0.03528,0.66463 l 0.0078,1.96815 -0.0042,1.24036 -0.02611,1.09256 v 0.0854 c 0,0.22225 -0.03387,0.28892 -0.04833,0.30727 0,-7.1e-4 -0.161219,0.0642 -0.168628,0.067 -0.0046,3.5e-4 -0.09737,0.0208 -0.747536,0.16439 7.06e-4,0 -0.06279,0.0123 -0.06279,0.0123 l -0.01446,0.43603 c 0.0187,0.018 2.256366,-0.0346 2.256366,-0.0346 l 3.147836,0.0526 c 0.01729,-0.012 0.0374,-0.0684 0.0374,-0.0684 0,-3.5e-4 0.617361,-1.86125 0.617361,-1.86125 l -0.132997,-0.003 h -0.3556 c -0.01552,0.009 -0.151342,0.23813 -0.151342,0.23813 -0.301272,0.53975 -0.432153,0.72213 -0.48895,0.77999 -0.07973,0.084 -0.169686,0.14217 -0.274461,0.17815 -0.01976,0.006 -0.114653,0.0268 -0.474839,0.0268 -3.53e-4,0 -0.175683,0.004 -0.175683,0.004 h -1.881364 c 0.0049,-3.6e-4 0.0067,-0.21273 0.0067,-0.51506 0,-0.74859 -0.01094,-2.04893 -0.01094,-2.04893 l 1.186391,0.018 c 0.52317,0 0.639586,0.0325 0.663222,0.0423 0.05327,0.0229 0.0889,0.0579 0.111831,0.11007 0.0046,0.0127 0.03669,0.11042 0.161925,0.73731 0,3.5e-4 0.0127,0.0631 0.0127,0.0631 l 0.47625,0.0145 c 0.01799,-0.0187 -0.03563,-1.27776 -0.03563,-1.27776 l 0.05362,-1.26471 c -0.01764,-0.0187 -0.101248,-0.0205 -0.101248,-0.0205 h -0.371122 c -0.01764,0.0134 -0.07514,0.23283 -0.07514,0.23283 -0.0956,0.45791 -0.149931,0.57115 -0.169334,0.59831 -0.03493,0.0533 -0.07973,0.0878 -0.137583,0.10619 -0.03422,0.009 -0.177447,0.0303 -0.746478,0.0303 h -1.057628 c 0.01799,-0.002 0.03105,-0.81351 0.03105,-0.81351 0,0 0.03034,-1.41464 0.03034,-1.41464 l 1.801989,0.0173 c 0.422627,0 0.587727,0.0293 0.651227,0.0536 0.0568,0.0219 0.104423,0.0688 0.146756,0.14429 0.07655,0.1344 0.174272,0.40005 0.29845,0.81209 l 0.01588,0.0557 0.491419,0.0131 h 0.02046 l -0.01517,-0.11112 c -0.0695,-0.51823 -0.106539,-1.04775 -0.110067,-1.57339 0,-3.5e-4 -0.0011,-0.0808 -0.0011,-0.0808 -0.01799,-0.0176 -3.256139,0.0332 -3.256139,0.0332 -0.797983,0 -1.497894,-0.0169 -2.080683,-0.0497 l -0.103364,-0.005 v 0.019"
         style="fill:#231f20;fill-opacity:1;fill-rule:nonzero;stroke:none;stroke-width:0.35277778"
         id="path178"
         inkscape:connector-curvature="0" />
    </g>
  </g>
</svg>
