<svg id="Layer_1" data-name="Layer 1" xmlns="http://www.w3.org/2000/svg" viewBox="0 0 176.85 25.05"><defs><style>.cls-1{fill:#00559b;fill-rule:evenodd;}</style></defs><title>oncap-logo</title><path class="cls-1" d="M230.63,59.07h13.78l1.54,0.11,1.38,0.22,1.27,0.33,1.16,0.49,1,0.55,0.88,0.77,0.72,0.88,0.55,1.09,0.44,1.26,0.22,1.48,0.11,1.7v7.33l-0.11,1.64-0.22,1.48-0.44,1.26-0.55,1.09-0.72.93-0.88.71-1,.6-1.16.44-1.27.33-1.38.22-1.54.11-1.65.05H230.63L229,84.07,227.43,84,226,83.74l-1.27-.33-1.1-.44-1-.6-0.83-.71L221,80.73l-0.61-1.09L220,78.38l-0.22-1.48-0.11-1.64V67.93l0.11-1.7L220,64.76l0.39-1.26L221,62.41l0.72-.88,0.83-.77,1-.55,1.1-.49L226,59.4l1.43-.22,1.54-.11h1.65Zm1.6,6.29-1.21.05-1,.22-0.77.33-0.61.44-0.5.55-0.33.71-0.17.77-0.11.87-0.06,1v2.62l0.06,1.2,0.11,1L227.93,76l0.39,0.66,0.55,0.49,0.77,0.38,1,0.22,1.21,0.05h9.7l1.21-.05,1-.22,0.72-.38,0.61-.49,0.39-.66,0.22-.88,0.17-1,0.05-1.2V70.28l-0.05-1-0.11-.87-0.22-.77-0.33-.71-0.44-.55L244.13,66l-0.77-.33-1-.22-1.21-.05h-8.87Z" transform="translate(-219.72 -59.07)"/><polygon class="cls-1" points="37.91 0.27 49.64 0.27 63.92 18.05 63.97 18.05 63.97 0.27 71.52 0.27 71.52 24.78 59.78 24.78 45.57 6.95 45.51 6.95 45.51 24.78 37.91 24.78 37.91 0.27"/><polygon class="cls-1" points="86.39 0 95.32 0 97.64 0 99.67 0.16 101.38 0.38 102.87 0.71 104.08 1.15 105.02 1.7 105.84 2.35 106.4 3.12 106.84 4.05 107.17 5.14 107.33 6.34 107.44 7.71 107.44 9.24 99.89 9.24 99.89 8.53 99.78 7.77 99.45 7.16 98.96 6.73 98.24 6.45 97.36 6.34 96.31 6.29 88.05 6.29 86.83 6.34 85.84 6.56 85.07 6.89 84.41 7.33 83.97 7.88 83.64 8.59 83.47 9.35 83.36 10.23 83.31 11.21 83.31 13.84 83.36 15.04 83.47 16.08 83.75 16.95 84.13 17.61 84.68 18.1 85.46 18.49 86.45 18.7 87.66 18.76 95.76 18.76 96.92 18.7 97.86 18.65 98.63 18.49 99.23 18.21 99.67 17.77 99.95 17.17 100.11 16.35 100.17 15.37 107.77 15.37 107.77 17.66 107.72 18.65 107.61 19.64 107.39 20.56 107.06 21.44 106.62 22.2 106.07 22.92 105.3 23.52 104.36 24.07 103.26 24.45 101.93 24.78 100.39 24.99 98.63 25.05 86.39 25.05 84.79 24.99 83.25 24.89 81.82 24.67 80.55 24.34 79.39 23.9 78.4 23.3 77.58 22.59 76.86 21.66 76.25 20.56 75.87 19.31 75.59 17.83 75.54 16.19 75.54 8.86 75.59 7.16 75.87 5.69 76.25 4.43 76.86 3.34 77.58 2.46 78.4 1.7 79.39 1.15 80.55 0.66 81.82 0.33 83.25 0.11 84.79 0 86.39 0"/><path class="cls-1" d="M341.42,59.35h9.86l13.56,24.5h-8.43l-2.32-4.32H338.72l-2.2,4.32H328Zm4.9,5.69-4.79,9.19h9.7Z" transform="translate(-219.72 -59.07)"/><path class="cls-1" d="M367,59.35h20.66l1.65,0.05,1.49,0.22,1.27,0.33,1.1,0.49L394,61l0.77,0.66,0.61,0.82,0.44,0.87,0.33,1,0.22,1,0.11,1.15,0.06,1.15v2.13l-0.06,1-0.11,1-0.22,1-0.39.93-0.44.93-0.55.82-0.77.71-0.83.6-1,.44-1.21.27-1.32.11h-15.1v6.18H367V59.35Zm7.55,6.07V71.6h11.79l0.83-.11,0.61-.27,0.44-.38,0.33-.55,0.22-.6L388.8,69V68l-0.11-.77-0.22-.66-0.39-.55-0.61-.33-0.77-.27-1-.05H374.53Z" transform="translate(-219.72 -59.07)"/></svg>