<svg xmlns="http://www.w3.org/2000/svg" width="607" height="239" fill="none"><g fill="#231F20" clip-path="url(#a)"><path d="M302.858 0C263.721 0 232 31.719 232 70.812c0 39.094 31.721 70.812 70.858 70.812s70.858-31.7 70.858-70.812C373.716 31.7 341.977 0 302.858 0Zm0 136.543c-36.329 0-65.773-29.426-65.773-65.73 0-36.306 29.444-65.713 65.773-65.713 36.328 0 65.773 29.425 65.773 65.73 0 36.305-29.445 65.731-65.773 65.731v-.018Z"/><path d="M302.398 63.584c5.654-2.146 8.261-6.512 8.261-12.805 0-.844-.073-1.614-.183-2.348-4.902 2.678-7.6 8.347-8.078 15.153ZM296.139 37.773h-11.877v27.334h8.187c.642 0 1.267-.019 1.872-.055.606-9.485 6.297-17.3 15.09-20.18-2.607-5.449-8.812-7.1-13.272-7.1Z"/><path d="M302.857 12.254c-32.363 0-58.595 26.215-58.595 58.558 0 32.342 26.232 58.558 58.595 58.558s58.596-26.234 58.596-58.558-26.233-58.558-58.596-58.558Zm14.998 96.441c6.608.165 11.656-1.688 14.924-4.422l1.524 2.147c-4.59 3.779-9.748 5.357-16.044 5.357-15.237 0-24.011-10.732-24.011-22.253 0-4.293 1.046-8.292 2.918-11.723-1.688-2.953-2.661-6.292-2.863-9.722l-1.836.055h-8.205v11.869c0 6.567 1.028 7.778 7.691 7.778v2.642h-22.45V87.78c6.296 0 7.324-1.21 7.324-7.778v-34.8c0-6.55-1.028-7.76-7.673-7.76V34.8h28.71c6.866 0 15.163 2.531 18.596 8.915.22 0 .44-.036.661-.036 3.983 0 9.435 1.082 13.345 2.898 1.358.587 1.836.752 2.203.862.973.294 1.468.276 1.468.276l-.238 6.989h-1.744c-2.423-4.715-7.545-7.852-14.521-7.944.276 1.12.441 2.294.441 3.596 0 9.54-6.719 14.695-15.732 16.713.037 1.449.165 2.825.367 4.109 3.8-3.009 8.701-4.807 14.411-4.807 3.983 0 9.435 1.083 13.345 2.917 1.358.587 1.836.752 2.203.844.973.294 1.468.294 1.468.294l-.238 6.99h-1.744c-2.46-4.789-7.692-7.963-14.833-7.963-6.131 0-10.39 3.193-12.758 8.109 2.497 5.32 6.994 8.237 13.272 8.384 6.609.165 11.657-1.688 14.925-4.403l1.523 2.128c-4.589 3.797-9.747 5.357-16.044 5.357-6.296 0-11.675-1.908-15.622-4.953a31.643 31.643 0 0 0-.33 4.42c0 12.75 5.562 19.942 15.53 20.18l.037.019ZM260.485 235.918c-1.836 1.505-3.984 3.082-10.445 3.082-9.234 0-17.458-4.641-17.458-13.997 0-8.274 7.93-14.493 18.32-14.493 4.498 0 7.729 1.578 9.84 2.697l.807-2.22h2.277l.312 8.714h-2.222c-.862-2.146-2.771-7.026-9.747-7.026-8.481 0-10.5 7.466-10.5 12.842 0 8.769 5.947 11.3 10.188 11.3 7.82 0 9.692-5.045 10.5-7.87h2.111s-1.138 4.641-3.983 6.971ZM166.646 210.51c12.722 0 19.33 7.192 19.33 14.566 0 7.375-8.132 13.924-19.33 13.924-11.197 0-19.33-6.347-19.33-13.924 0-7.576 6.609-14.566 19.33-14.566Zm0 26.564c8.334 0 10.243-6.384 10.243-12.273 0-4.605-1.707-12.346-10.243-12.346s-10.243 7.741-10.243 12.346c0 5.889 1.909 12.273 10.243 12.273ZM192.748 215.867c0-2.513-1.12-3.229-4.791-3.229v-1.541c3.635.074 8.334.129 13.988.129s9.894-.037 13.529-.129l2.24 7.063h-2.423c-.808-2.697-2.442-5.137-10.96-5.137-2.368 0-3.487.037-3.487 1.34v8.879h3.139c2.882-.037 5.397-.386 6.168-4.513h2.129c-.092 1.449-.147 3.228-.147 5.778 0 2.55.055 4.036.147 5.247h-2.129c-.716-3.265-1.781-4.421-6.132-4.549h-3.175v8.438c0 2.495 1.101 3.229 4.791 3.229v1.541a352.652 352.652 0 0 0-8.738-.128c-2.882 0-5.856.036-8.94.128v-1.541c3.69 0 4.791-.734 4.791-3.229v-17.776ZM267.977 236.854c2.074-.092 3.836-.569 5.305-3.357l12.06-23.005h2.57l11.565 23.298c1.12 2.184 2.478 2.991 5.25 3.064v1.541c-2.478-.128-5.911-.128-8.829-.128-3.837 0-7.215.036-8.738.128v-1.541c2.735 0 4.387-.403 4.387-1.688 0-.367-.202-1.009-.551-1.779l-1.56-3.431h-11.51l-1.358 2.862c-.202.496-.496 1.449-.496 1.945 0 1.688 1.615 2.091 4.24 2.091v1.541c-.954-.073-3.175-.128-6.149-.128s-5.195.036-6.15.128v-1.541h-.036Zm15.897-18.492-4.938 9.65h9.582l-4.644-9.65ZM307.774 236.854c4.186 0 4.791-1.78 4.791-4.513v-17.153c0 .367-1.009-2.495-4.901-2.531v-1.541c1.817.073 3.635.128 5.452.128 1.817 0 3.58-.037 5.397-.128l20.248 18.602V217.17c0-2.752-.606-4.513-4.791-4.513v-1.541c2.221.073 4.185.128 6.149.128 1.964 0 3.929-.037 6.15-.128v1.541c-4.186 0-4.791 1.779-4.791 4.513V239h-2.717l-23.479-21.555v14.896c0 2.752.606 4.513 4.791 4.513v1.541c-2.221-.073-4.185-.129-6.149-.129-1.964 0-3.947.037-6.15.129v-1.541ZM346.781 236.854c2.075-.092 3.837-.569 5.305-3.357l12.061-23.005h2.57l11.565 23.298c1.12 2.184 2.478 2.991 5.25 3.064v1.541c-2.478-.128-5.911-.128-8.83-.128-3.836 0-7.214.036-8.738.128v-1.541c2.735 0 4.388-.403 4.388-1.688 0-.367-.202-1.009-.551-1.779l-1.56-3.431h-11.51l-1.359 2.862c-.202.496-.495 1.449-.495 1.945 0 1.688 1.615 2.091 4.24 2.091v1.541c-.954-.073-3.176-.128-6.149-.128-2.974 0-5.195.036-6.15.128v-1.541h-.037Zm15.897-18.492-4.938 9.65h9.583l-4.645-9.65ZM391.444 215.867c0-2.513-1.102-3.229-4.792-3.229v-1.541c2.772.074 5.599.129 8.371.129 1.157 0 3.488-.129 6.407-.129 11.913 0 20.339 4.275 20.339 14.456 0 7.833-6.058 12.842-16.962 12.842-3.286 0-6.516-.129-9.784-.129-2.772 0-5.599.037-8.371.129v-1.541c3.69 0 4.792-.734 4.792-3.229v-17.758Zm8.077 16.877c0 3.027 2.625 3.706 4.589 3.706 6.92 0 8.774-4.971 8.774-11.502 0-8.072-2.68-11.906-11.454-11.906-1.561 0-1.909.238-1.909 1.082v18.62ZM421.934 236.854c2.074-.092 3.836-.569 5.305-3.357l12.06-23.005h2.57l11.565 23.298c1.12 2.184 2.478 2.991 5.25 3.064v1.541c-2.478-.128-5.911-.128-8.829-.128-3.837 0-7.215.036-8.738.128v-1.541c2.716 0 4.387-.403 4.387-1.688 0-.367-.202-1.009-.551-1.779l-1.56-3.431h-11.51l-1.358 2.862c-.202.496-.496 1.449-.496 1.945 0 1.688 1.615 2.091 4.24 2.091v1.541c-.954-.073-3.175-.128-6.149-.128s-5.195.036-6.168.128v-1.541h-.018Zm15.897-18.492-4.957 9.65h9.583l-4.645-9.65h.019ZM237.356 194.623c-1.836 1.505-3.984 3.082-10.445 3.082-9.234 0-17.458-4.641-17.458-13.997 0-8.274 7.93-14.493 18.32-14.493 4.498 0 7.729 1.578 9.84 2.697l.807-2.22h2.277l.312 8.714h-2.221c-.863-2.146-2.772-7.026-9.748-7.026-8.481 0-10.5 7.467-10.5 12.842 0 8.769 5.947 11.3 10.188 11.3 7.82 0 9.692-5.045 10.5-7.87h2.111s-1.138 4.641-3.983 6.971ZM264.689 169.215c12.722 0 19.33 7.192 19.33 14.566 0 7.375-8.114 13.924-19.33 13.924-11.216 0-19.33-6.347-19.33-13.924 0-7.576 6.609-14.566 19.33-14.566Zm0 26.564c8.334 0 10.243-6.384 10.243-12.273 0-4.604-1.725-12.346-10.243-12.346-8.517 0-10.243 7.742-10.243 12.346 0 5.889 1.928 12.273 10.243 12.273ZM290.975 174.572c0-2.513-1.102-3.229-4.791-3.229v-1.541c3.084.092 6.002.129 8.939.129 3.176 0 6.352-.129 9.546-.129 5.801 0 12.318 1.541 12.318 7.026 0 3.835-3.782 6.054-8.279 6.733 1.468 1.413 2.918 2.55 4.387 4.164l5.746 6.348c1.321 1.578 2.019 1.174 3.634 1.651v1.376c-3.432-.037-6.92-.074-10.39-.074l-5.856-6.659c-.348-.403-4.736-5.54-5.855-5.54h-1.616v7.503c0 2.495 1.12 3.229 4.791 3.229v1.541a370.639 370.639 0 0 0-8.94-.129c-2.423 0-5.341.037-8.425.129v-1.541c3.689 0 4.791-.734 4.791-3.229v-17.758Zm7.765 8.31c5.36 0 9.545-.403 9.545-5.412 0-4.035-2.111-5.723-7.159-5.723-1.67 0-2.368.073-2.368 1.449v9.686h-.018ZM325.266 195.577c3.689 0 4.791-.733 4.791-3.228v-17.758c0-2.514-1.12-3.229-4.791-3.229v-1.541c2.331.092 4.699.128 7.012.128 2.313 0 4.846-.128 8.793-.128 9.582 0 14.63 2.385 14.63 7.356 0 5.449-7.067 7.558-13.015 7.558h-4.846v7.632c0 2.953 1.707 3.1 5.342 3.229v1.541a303.273 303.273 0 0 0-9.289-.129c-4.038 0-7.122.037-8.627.129V195.577Zm12.574-12.786h2.313c4.351 0 6.866-1.78 6.866-5.54 0-3.559-2.02-5.486-6.811-5.486-1.872 0-2.368.606-2.368 1.376v9.65ZM377.529 169.215c12.721 0 19.33 7.192 19.33 14.566 0 7.375-8.132 13.924-19.33 13.924-11.198 0-19.33-6.347-19.33-13.924 0-7.576 6.609-14.566 19.33-14.566Zm0 26.564c8.334 0 10.243-6.384 10.243-12.273 0-4.604-1.707-12.346-10.243-12.346s-10.243 7.742-10.243 12.346c0 5.889 1.909 12.273 10.243 12.273ZM403.819 174.572c0-2.513-1.102-3.229-4.792-3.229v-1.541c3.084.092 6.003.129 8.94.129 3.176 0 6.352-.129 9.546-.129 5.801 0 12.317 1.541 12.317 7.026 0 3.835-3.781 6.054-8.279 6.733 1.469 1.413 2.919 2.55 4.388 4.164l5.745 6.348c1.322 1.578 2.02 1.174 3.635 1.651v1.376a965.922 965.922 0 0 0-10.39-.074l-5.856-6.659c-.349-.403-4.736-5.54-5.856-5.54h-1.615v7.503c0 2.495 1.12 3.229 4.791 3.229v1.541a370.712 370.712 0 0 0-8.94-.129c-2.423 0-5.342.037-8.426.129v-1.541c3.69 0 4.792-.734 4.792-3.229v-17.758Zm7.765 8.31c5.36 0 9.545-.403 9.545-5.412 0-4.035-2.111-5.723-7.159-5.723-1.671 0-2.368.073-2.368 1.449v9.686h-.018Z"/><path d="M434.546 195.577c2.074-.073 3.836-.568 5.305-3.357l12.06-23.005h2.57l11.547 23.299c1.12 2.183 2.478 2.99 5.25 3.063v1.541c-2.478-.128-5.911-.128-8.83-.128-3.836 0-7.214.037-8.738.128v-1.541c2.736 0 4.388-.403 4.388-1.687 0-.367-.202-1.009-.551-1.78l-1.56-3.431h-11.51l-1.359 2.862c-.202.496-.514 1.45-.514 1.945 0 1.688 1.616 2.091 4.241 2.091v1.541c-.955-.073-3.176-.128-6.168-.128s-5.195.037-6.15.128v-1.541h.019Zm15.897-18.492-4.938 9.65h9.582l-4.644-9.65ZM477.851 195.577c3.984 0 5.104-.734 5.104-3.229v-19.372c0-.844-.496-1.082-2.515-1.082-4.351 0-7.82 1.339-8.334 5.65h-2.075l2.13-7.705c5.507.092 9.215.128 14.814.128s9.325-.036 14.814-.128l2.129 7.705h-2.074c-.514-4.311-3.984-5.65-8.334-5.65-2.019 0-2.533.238-2.533 1.082v19.372c0 2.495 1.119 3.229 5.103 3.229v1.541c-3.231-.073-6.15-.128-9.142-.128-2.992 0-5.911.036-9.142.128v-1.541h.055ZM507.129 195.577c3.69 0 4.791-.733 4.791-3.228v-17.758c0-2.514-1.101-3.229-4.791-3.229v-1.541c3.084.092 6.003.128 8.94.128 2.937 0 5.801-.036 8.738-.128v1.541c-3.69 0-4.792.715-4.792 3.229v17.758c0 2.495 1.12 3.228 4.792 3.228v1.541a351.373 351.373 0 0 0-8.738-.128c-2.882 0-5.856.037-8.94.128v-1.541ZM546.213 169.215c12.721 0 19.33 7.192 19.33 14.566 0 7.375-8.133 13.924-19.33 13.924-11.198 0-19.33-6.347-19.33-13.924 0-7.576 6.608-14.566 19.33-14.566Zm0 26.564c8.334 0 10.243-6.384 10.243-12.273 0-4.604-1.707-12.346-10.243-12.346s-10.243 7.742-10.243 12.346c0 5.889 1.909 12.273 10.243 12.273ZM567.489 195.577c4.185 0 4.791-1.779 4.791-4.513v-17.153c0 .367-1.009-2.494-4.901-2.531v-1.541c1.817.092 3.635.128 5.452.128 1.817 0 3.58-.036 5.397-.128l20.248 18.602v-12.548c0-2.752-.606-4.513-4.792-4.513v-1.541c2.222.092 4.186.128 6.168.128 1.983 0 3.929-.036 6.15-.128v1.541c-4.185 0-4.791 1.779-4.791 4.513v21.83h-2.717l-23.479-21.555v14.896c0 2.752.606 4.513 4.792 4.513v1.541c-2.222-.073-4.186-.128-6.168-.128-1.983 0-3.929.036-6.15.128v-1.541ZM0 195.376c3.69 0 4.791-.734 4.791-3.229v-17.758c0-2.513-1.101-3.229-4.791-3.229v-1.541c2.331.074 4.7.129 7.012.129 2.313 0 4.847-.129 8.775-.129 9.582 0 14.63 2.385 14.63 7.357 0 5.448-7.067 7.558-13.015 7.558h-4.846v7.631c0 2.954 1.707 3.101 5.36 3.229v1.541a307.047 307.047 0 0 0-9.288-.128c-4.039 0-7.123.036-8.628.128v-1.559Zm12.575-12.787h2.313c4.35 0 6.865-1.779 6.865-5.54 0-3.559-2.02-5.485-6.81-5.485-1.873 0-2.368.605-2.368 1.376v9.649ZM52.244 169.014c12.721 0 19.33 7.191 19.33 14.566 0 7.374-8.132 13.924-19.33 13.924-11.198 0-19.33-6.348-19.33-13.924 0-7.577 6.609-14.566 19.33-14.566Zm0 26.563c8.334 0 10.243-6.384 10.243-12.272 0-4.605-1.725-12.347-10.243-12.347S42 178.7 42 183.305c0 5.888 1.909 12.272 10.243 12.272ZM122.845 195.376c3.69 0 4.791-.734 4.791-3.229v-17.758c0-2.513-1.119-3.229-4.791-3.229v-1.541c3.635.074 8.334.129 13.988.129s8.518-.037 12.153-.129l1.835 7.1h-1.927c-1.267-4.311-3.837-5.174-8.591-5.174h-3.084c-1.01 0-1.524.276-1.524 1.248v8.952h2.717c2.864-.036 5.36-.403 6.131-4.513h2.111c-.092 1.45-.147 3.229-.147 5.779s.055 4.036.147 5.247h-2.111c-.716-3.266-1.78-4.421-6.168-4.55h-2.698v7.632c0 3.265 2.368 3.632 6.168 3.632 7.159 0 8.481-3.1 9.031-6.127h2.075l-2.148 8.072c-2.882-.074-6.994-.129-12.997-.129-6.002 0-11.014.037-14.997.129v-1.541h.036ZM161.1 174.37c0-2.513-1.12-3.228-4.791-3.228v-1.541c3.084.073 6.002.128 8.939.128 3.176 0 6.352-.128 9.546-.128 5.801 0 12.318 1.541 12.318 7.026 0 3.834-3.782 6.054-8.279 6.732 1.468 1.413 2.937 2.55 4.387 4.165l5.746 6.347c1.303 1.578 2.019 1.174 3.634 1.651v1.376c-3.432-.037-6.92-.073-10.39-.073l-5.856-6.66c-.348-.403-4.736-5.54-5.855-5.54h-1.616v7.503c0 2.495 1.12 3.229 4.791 3.229v1.541a375.778 375.778 0 0 0-8.94-.128 287.8 287.8 0 0 0-8.425.128v-1.541c3.689 0 4.791-.734 4.791-3.229V174.37Zm7.765 8.311c5.342 0 9.545-.404 9.545-5.412 0-4.036-2.129-5.724-7.159-5.724-1.67 0-2.368.074-2.368 1.449v9.687h-.018ZM114.181 169.729c-1.872 0-3.781-.073-5.654-.128v1.541c2.074 0 4.13.275 4.13 2.697 0 .972-.458 2.825-1.468 5.283l-3.69 9.117h-.092l-5.562-13.245c-.33-.899-.532-1.504-.532-2.054 0-1.45 2.111-1.816 4.387-1.816v-1.541c-2.68.036-5.397.128-8.077.128-2.919 0-5.342-.073-8.279-.128v1.541c2.074 0 3.176.403 4.186 2.788l.99 2.311-4.9 12.145h-.11l-4.939-12.64c-.514-1.339-.807-2.091-.807-2.788 0-1.45 2.11-1.816 4.387-1.816v-1.541c-2.68.036-5.397.128-8.077.128-2.937 0-5.8-.073-8.738-.128v1.541c2.074 0 3.176.403 4.185 2.788l10.042 23.573h2.514l7.82-17.831h.056l3.359 7.888 4.167 9.962h2.478l9.986-23.574c.459-1.137 1.065-2.788 3.837-2.788v-1.541c-1.872.037-3.782.128-5.654.128h.055Z"/></g><defs><clipPath id="a"><path fill="#fff" d="M0 0h607v239H0z"/></clipPath></defs></svg>