<?xml version="1.0" encoding="UTF-8"?>
<svg version="1.1" xmlns="http://www.w3.org/2000/svg" width="2924" height="1525">
<path d="M0 0 C425.57460317 0 425.57460317 0 504 64 C504.99515625 64.79148437 505.9903125 65.58296875 507.015625 66.3984375 C522.9972482 79.31991143 537.20707708 94.17816456 549 111 C549.45165527 111.6388916 549.90331055 112.2777832 550.36865234 112.93603516 C581.42694908 157.19268331 594.21373212 209.98992035 594.25 263.5625 C594.25101212 264.91418777 594.25101212 264.91418777 594.25204468 266.29318237 C594.17605431 330.55191524 574.445545 390.38083199 532 439 C531.33967773 439.75724365 531.33967773 439.75724365 530.66601562 440.52978516 C525.44049504 446.4875816 520.07827538 451.92763639 514 457 C513.1028125 457.79664063 512.205625 458.59328125 511.28125 459.4140625 C453.44472567 510.45622636 372.37187954 529.2990749 296.9453125 529.11352539 C295.28132123 529.11321811 293.61732983 529.11335416 291.95333862 529.11389065 C287.54948804 529.11411382 283.14566536 529.10837319 278.74182129 529.10128021 C274.58959884 529.09552992 270.43738274 529.09531411 266.28515625 529.09460449 C254.19010056 529.0893843 242.09504991 529.07542304 230 529.0625 C202.94 529.041875 175.88 529.02125 148 529 C148 613.48 148 697.96 148 785 C99.16 785 50.32 785 0 785 C0 525.95 0 266.9 0 0 Z M148 131 C148 219.11 148 307.22 148 398 C173.08 398.04125 198.16 398.0825 224 398.125 C231.87359375 398.14320801 239.7471875 398.16141602 247.859375 398.18017578 C255.01342687 398.18687103 255.01342687 398.18687103 262.16748047 398.19088745 C265.31562205 398.19272568 268.46369388 398.20011807 271.61181641 398.21115112 C318.15864831 398.36680764 369.5808785 396.524782 407 365 C407.80050781 364.34515625 408.60101562 363.6903125 409.42578125 363.015625 C431.95618626 343.81397345 442.90404709 314.72017955 445.81689453 285.8046875 C448.22294788 248.95036639 446.25006932 207.56086477 420.9453125 178.1875 C419.98238281 177.1046875 419.98238281 177.1046875 419 176 C418.09894531 174.88625 418.09894531 174.88625 417.1796875 173.75 C394.18323209 146.03879013 354.87963204 135.8955341 320.62606812 132.57872009 C314.51611664 132.01509186 308.41859942 131.6587574 302.28759766 131.43188477 C301.1806637 131.39054948 300.07372974 131.34921419 298.93325233 131.30662632 C284.95760004 130.83561714 270.97905762 130.87136532 256.99757385 130.89871979 C253.52352831 130.90454399 250.04948993 130.90468974 246.57543945 130.90539551 C236.50862195 130.9105804 226.4418105 130.9245412 216.375 130.9375 C193.81125 130.958125 171.2475 130.97875 148 131 Z " fill="#002140" transform="translate(1274,2)"/>
<path d="M0 0 C435.86907895 0 435.86907895 0 521.5625 79.8125 C522.20509766 80.41030273 522.84769531 81.00810547 523.50976562 81.62402344 C566.49436532 122.34036578 590.78054209 184.13550932 593.10687256 242.6900177 C593.1627975 245.43170812 593.19024252 248.1718352 593.203125 250.9140625 C593.21013931 251.91888168 593.21715363 252.92370087 593.22438049 253.95896912 C593.24177735 257.18102558 593.24823203 260.40289831 593.25 263.625 C593.25101212 265.27554886 593.25101212 265.27554886 593.25204468 266.95944214 C593.23654551 282.84580202 592.9145566 298.33919104 590 314 C589.82307617 314.99064453 589.64615234 315.98128906 589.46386719 317.00195312 C579.14170433 373.72927991 551.69186135 426.85749591 506 463 C504.95195825 463.86056019 503.90512103 464.72258903 502.859375 465.5859375 C439.28169091 517.55362013 355.24620192 529.70091223 275.71621704 529.30384064 C271.60849497 529.28628848 267.50082632 529.28592676 263.39306641 529.28381348 C251.51201103 529.26829603 239.63100178 529.22641459 227.75 529.1875 C201.1025 529.125625 174.455 529.06375 147 529 C147 613.48 147 697.96 147 785 C98.49 785 49.98 785 0 785 C0 525.95 0 266.9 0 0 Z M147 131 C147 219.11 147 307.22 147 398 C172.08 398.04125 197.16 398.0825 223 398.125 C230.87359375 398.14320801 238.7471875 398.16141602 246.859375 398.18017578 C254.01342687 398.18687103 254.01342687 398.18687103 261.16748047 398.19088745 C264.31562205 398.19272568 267.46369388 398.20011807 270.61181641 398.21115112 C308.99995461 398.33950928 347.8404614 397.05101925 383 380 C384.12019531 379.46632813 385.24039063 378.93265625 386.39453125 378.3828125 C410.65451215 366.1208149 428.88602047 344.82103798 437.72265625 319.171875 C450.31866164 280.32063338 450.38075967 232.99931755 432 195.8359375 C417.97378584 168.96432813 393.26688827 150.67923358 364.69726562 141.51342773 C329.42241894 130.7834233 293.34024345 130.8277524 256.79493713 130.89871979 C253.29566373 130.90454288 249.79639745 130.90468968 246.29711914 130.90539551 C236.15640844 130.91058092 226.01570375 130.92454173 215.875 130.9375 C193.14625 130.958125 170.4175 130.97875 147 131 Z " fill="#002140" transform="translate(0,2)"/>
<path d="M0 0 C0 47.85 0 95.7 0 145 C-12.54 145.33 -25.08 145.66 -38 146 C-87.04704269 149.9014693 -138.0928743 158.77574638 -175 194 C-175.81960205 194.78020508 -175.81960205 194.78020508 -176.65576172 195.57617188 C-227.45110046 244.97169364 -233.22799302 333.60970616 -240 400 C-247.86270237 476.87975652 -259.01459237 555.91996099 -296 625 C-296.37979004 625.71559082 -296.75958008 626.43118164 -297.15087891 627.16845703 C-314.06121623 658.87108299 -336.91204136 689.4489347 -365.35986328 711.71484375 C-366.52352117 712.62664713 -367.68293315 713.54388093 -368.83935547 714.46484375 C-402.04469371 740.87761962 -440.17845694 758.75441332 -481 770 C-482.47823242 770.40726318 -482.47823242 770.40726318 -483.98632812 770.82275391 C-530.59821078 783.37508891 -576.55234223 785 -625 785 C-625 737.15 -625 689.3 -625 640 C-616.75 640 -608.5 640 -600 640 C-594.68791757 639.81429703 -589.42281604 639.60081609 -584.125 639.25 C-583.46498993 639.20709839 -582.80497986 639.16419678 -582.12496948 639.11999512 C-541.09404244 636.39511152 -495.20356101 628.02323654 -462 602 C-461.45939941 601.58137695 -460.91879883 601.16275391 -460.36181641 600.73144531 C-443.15092123 587.2837201 -431.07074187 569.61376838 -421.91162109 549.95458984 C-421.05810217 548.12457578 -420.18029579 546.30594464 -419.30078125 544.48828125 C-395.52013948 493.2130047 -389.9164637 435.04698406 -384.44165039 379.46902466 C-375.90509704 292.92098887 -360.86104304 202.34057674 -287.24609375 100.46875 C-285.74297401 98.81662535 -284.25597974 97.14969113 -282.78515625 95.46875 C-277.55009175 89.50684878 -272.00115417 84.18360563 -266 79 C-265.06929687 78.16984375 -264.13859375 77.3396875 -263.1796875 76.484375 C-206.90121749 26.85933613 -130.2440261 6.67240066 -57 1 C-55.69627441 0.89413574 -55.69627441 0.89413574 -54.36621094 0.78613281 C-36.30101046 -0.61836036 -18.06887035 0 0 0 Z " fill="#002140" transform="translate(1156,2)"/>
<path d="M0 0 C0.495 12.375 0.495 12.375 1 25 C2.19625 23.700625 3.3925 22.40125 4.625 21.0625 C18.29365448 7.4794083 36.16686038 0.13907467 55.4375 -0.25 C68.67396891 0.031627 81.26091054 2.78607484 91.33203125 12.01171875 C95.15700092 16.57122592 98.05571052 21.84558154 101 27 C101.41507813 26.53851562 101.83015625 26.07703125 102.2578125 25.6015625 C116.63612563 10.38100509 134.54660432 1.37639046 155.56640625 -0.28125 C170.73111188 -0.68790132 183.79860362 2.47307584 194.95703125 12.86328125 C209.87233256 28.46303233 207.31574499 53.47772373 207.4140625 73.40625 C207.43280929 75.82719558 207.45238521 78.24813486 207.4727478 80.66906738 C207.52370437 86.98830425 207.56352353 93.30756221 207.60089111 99.62689209 C207.64116156 106.09636497 207.69214786 112.56575286 207.7421875 119.03515625 C207.83851395 131.6900431 207.92341984 144.34497901 208 157 C208.59014893 157.08564209 209.18029785 157.17128418 209.78833008 157.25952148 C212.46347393 157.64935599 215.13798429 158.04338014 217.8125 158.4375 C219.2056543 158.63956055 219.2056543 158.63956055 220.62695312 158.84570312 C221.51962891 158.97783203 222.41230469 159.10996094 223.33203125 159.24609375 C224.56530151 159.42676392 224.56530151 159.42676392 225.82348633 159.61108398 C228 160 228 160 231 161 C231 164.96 231 168.92 231 173 C230.04859131 172.96970703 229.09718262 172.93941406 228.11694336 172.90820312 C224.51056985 172.7940114 220.90410469 172.68296181 217.29760742 172.57275391 C215.75103223 172.52507837 214.20448137 172.47660495 212.65795898 172.42724609 C197.27012253 171.93715575 181.95172885 171.91629783 166.5625 172.5 C164.58926758 172.57154297 164.58926758 172.57154297 162.57617188 172.64453125 C159.38402598 172.76060928 156.19199905 172.87995168 153 173 C153 169.04 153 165.08 153 161 C157.80306596 159.6145002 162.30515215 158.81310145 167.296875 158.43359375 C168.36776367 158.35036865 169.43865234 158.26714355 170.54199219 158.18139648 C171.35313477 158.12153564 172.16427734 158.0616748 173 158 C172.93868514 144.35189165 172.86150387 130.7039729 172.76428509 117.05607033 C172.71963224 110.71822007 172.68036471 104.38043335 172.65356445 98.04248047 C172.62748106 91.92154292 172.58704253 85.80085051 172.53681374 79.68006516 C172.52017915 77.34943068 172.50864372 75.01875383 172.50238609 72.68806839 C172.49270811 69.41369413 172.46460376 66.13994224 172.43237305 62.86572266 C172.43380814 61.91049713 172.43524323 60.95527161 172.4367218 59.97109985 C172.30729207 50.62221884 170.22396455 41.26129197 164 34 C154.1431249 25.55124992 141.63401377 25.09497238 129.27099609 25.78857422 C119.21181832 26.72506615 111.8655854 31.16422615 103 36 C103.33 75.93 103.66 115.86 104 157 C110.27 157.99 116.54 158.98 123 160 C123.99 160.33 124.98 160.66 126 161 C126 164.96 126 168.92 126 173 C125.10917725 172.96970703 124.21835449 172.93941406 123.30053711 172.90820312 C119.91778559 172.79438683 116.53497327 172.6828574 113.15209961 172.57275391 C111.70252612 172.5251326 110.25298018 172.47666321 108.8034668 172.42724609 C93.53615408 171.90791369 78.32996664 171.94207776 63.0625 172.5 C61.68555527 172.54841646 60.30860213 172.5965944 58.93164062 172.64453125 C55.62100397 172.76069394 52.3104705 172.87921039 49 173 C49 169.04 49 165.08 49 161 C58.9 159.02 58.9 159.02 69 157 C69.04526118 143.87356145 69.08192222 130.7471751 69.10362434 117.62067604 C69.11404249 111.5249198 69.12816574 105.42921991 69.15087891 99.33349609 C69.17267747 93.44610417 69.18458343 87.55876631 69.18975449 81.67133713 C69.19343766 79.42997767 69.20062988 77.18862102 69.21146011 74.9472847 C69.22606819 71.79763746 69.22797405 68.64821105 69.22705078 65.49853516 C69.23783661 64.1218013 69.23783661 64.1218013 69.24884033 62.71725464 C69.2176326 52.81926083 67.96767604 42.86761735 61.3828125 35.08984375 C52.87331786 26.77454919 42.5001713 25.41022723 31.08325195 25.52490234 C20.98754698 25.889601 12.29792578 28.7552665 3.70703125 34.046875 C2 35 2 35 0 35 C0.33 75.26 0.66 115.52 1 157 C7.6 158.32 14.2 159.64 21 161 C21 164.96 21 168.92 21 173 C20.13947021 172.96970703 19.27894043 172.93941406 18.39233398 172.90820312 C15.12140297 172.79431734 11.85040734 172.68279992 8.5793457 172.57275391 C7.17827279 172.52516246 5.77722928 172.47669541 4.3762207 172.42724609 C-11.08106078 171.8829365 -26.48180523 171.97308122 -41.9375 172.5 C-43.41079996 172.54840077 -44.88410726 172.5965788 -46.35742188 172.64453125 C-49.9050357 172.76046817 -53.4525424 172.87936655 -57 173 C-57 169.04 -57 165.08 -57 161 C-54.47952208 160.51890037 -51.9586463 160.04007397 -49.4375 159.5625 C-48.73302734 159.42779297 -48.02855469 159.29308594 -47.30273438 159.15429688 C-46.60341797 159.02216797 -45.90410156 158.89003906 -45.18359375 158.75390625 C-44.23311157 158.57323608 -44.23311157 158.57323608 -43.26342773 158.38891602 C-40.18482079 157.85993092 -37.09269892 157.43804043 -34 157 C-33.50760418 141.72805246 -33.13825537 126.45647097 -32.91194439 111.17835045 C-32.80401961 104.08233456 -32.65718492 96.99127092 -32.41577148 89.8984375 C-32.20523016 83.70964414 -32.07071359 77.52443541 -32.02414161 71.33216059 C-31.99692916 68.05586498 -31.92272229 64.79210476 -31.77966881 61.51853561 C-30.77241064 47.6677267 -30.77241064 47.6677267 -36.145298 35.48932648 C-41.26844345 31.09044122 -46.90053876 27.84067934 -52.99128437 24.96389198 C-55 24 -55 24 -56 23 C-56.04080783 21.00041636 -56.04254356 18.99954746 -56 17 C-47.41513896 13.43332956 -38.68568455 10.26651636 -29.93188477 7.14404297 C-28.26509041 6.54662681 -26.60036668 5.94340268 -24.93774414 5.33447266 C-22.5035941 4.4435388 -20.06335165 3.57154883 -17.62109375 2.703125 C-16.88958603 2.43131409 -16.15807831 2.15950317 -15.40440369 1.87945557 C-9.71513908 -0.10877378 -6.49137178 0 0 0 Z " fill="#002140" transform="translate(2074,1012)"/>
<path d="M0 0 C0.495 11.88 0.495 11.88 1 24 C3.64 21.36 6.28 18.72 9 16 C27.103131 2.3813204 46.71156513 -2.76902523 69.23242188 0.3046875 C80.3684048 2.53872297 89.43378659 8.84812742 96 18 C97.51407637 20.62499631 98.76192234 23.22670605 100 26 C101.3303125 24.824375 101.3303125 24.824375 102.6875 23.625 C104.119967 22.41070433 105.55834103 21.20336823 107 20 C107.93457031 19.21496094 108.86914062 18.42992187 109.83203125 17.62109375 C117.65429741 11.2258793 125.59744905 6.68727488 135 3 C135.91523437 2.6390625 136.83046875 2.278125 137.7734375 1.90625 C151.46281843 -2.42938971 170.96938784 -2.4055536 184 4 C193.66341852 9.47205627 201.03453269 18.29789272 204 29 C205.82955793 36.38529253 206.27817659 43.3776803 206.22705078 50.96728516 C206.22734283 52.11966675 206.22763489 53.27204834 206.22793579 54.45935059 C206.22655195 58.23600011 206.21103535 62.0124478 206.1953125 65.7890625 C206.19157901 68.4203582 206.18873362 71.05165529 206.18673706 73.68295288 C206.18054695 79.88044838 206.16416995 86.07787243 206.14403808 92.27533662 C206.12160174 99.33709275 206.11066629 106.39885247 206.10064721 113.46063542 C206.07980123 127.97379362 206.04467382 142.48689581 206 157 C207.33988228 157.09896828 207.33988228 157.09896828 208.70683289 157.19993591 C209.87825333 157.28791946 211.04967377 157.37590302 212.2565918 157.46655273 C213.41797165 157.55315659 214.5793515 157.63976044 215.77592468 157.72898865 C219.15967676 158.01342221 222.47112905 158.45863778 225.8125 159.0625 C227.524375 159.371875 229.23625 159.68125 231 160 C231 163.96 231 167.92 231 172 C204.93 172 178.86 172 152 172 C152 168.04 152 164.08 152 160 C154.74928442 159.49576443 157.49931143 158.99646574 160.25 158.5 C161.02730469 158.35691406 161.80460937 158.21382812 162.60546875 158.06640625 C163.73662109 157.86337891 163.73662109 157.86337891 164.890625 157.65625 C165.58188477 157.53056641 166.27314453 157.40488281 166.98535156 157.27539062 C169 157 169 157 173 157 C172.91546445 143.74307879 172.82052984 130.48627618 172.71247292 117.22952461 C172.66261636 111.07328654 172.6162855 104.91706475 172.578125 98.76074219 C172.54113767 92.81491451 172.49474152 86.86922663 172.44193649 80.92351913 C172.42346386 78.65986468 172.40832985 76.39618034 172.39665604 74.13248062 C172.37967117 70.95162009 172.35060717 67.7710748 172.31884766 64.59033203 C172.31668747 63.66315872 172.31452728 62.73598541 172.31230164 61.78071594 C172.18959336 52.10336672 171.11287999 41.89003775 164.53515625 34.3125 C155.77195769 26.06478371 144.46493827 24.57991962 132.91015625 24.79296875 C122.93775786 25.32097786 115.14959379 28.63278921 106.6171875 33.57421875 C104 35 104 35 102 35 C102.24398781 36.13449081 102.24398781 36.13449081 102.49290466 37.29190063 C103.18031835 42.31856538 103.13066285 47.2620851 103.11352539 52.32958984 C103.11367142 53.46188019 103.11381744 54.59417053 103.1139679 55.76077271 C103.1132726 59.49418062 103.1054981 63.22753832 103.09765625 66.9609375 C103.09579071 69.55311048 103.09436745 72.14528382 103.09336853 74.73745728 C103.08994371 80.85714608 103.08206643 86.97681424 103.07201904 93.09649527 C103.06082538 100.06626956 103.05533926 107.03604472 103.05032361 114.00582576 C103.03988291 128.3372268 103.02230377 142.66861276 103 157 C104.12671867 157.09896828 104.12671867 157.09896828 105.27619934 157.19993591 C106.26375717 157.28791946 107.251315 157.37590302 108.26879883 157.46655273 C109.24681961 157.55315659 110.22484039 157.63976044 111.23249817 157.72898865 C116.20546292 158.21597293 121.08140165 159.13201206 126 160 C126 163.96 126 167.92 126 172 C100.59 172 75.18 172 49 172 C49 168.04 49 164.08 49 160 C51.56149628 159.49432271 54.12399465 158.99529868 56.6875 158.5 C57.40873047 158.35691406 58.12996094 158.21382812 58.87304688 158.06640625 C59.57880859 157.93105469 60.28457031 157.79570313 61.01171875 157.65625 C61.65584717 157.53056641 62.29997559 157.40488281 62.96362305 157.27539062 C65.32585249 156.95593315 67.61862634 156.98272536 70 157 C69.91537462 144.16876942 69.82040608 131.33766016 69.71247292 118.50660324 C69.66266744 112.54771981 69.61633666 106.58885276 69.578125 100.62988281 C69.54107248 94.8720759 69.49465981 89.11441158 69.44193649 83.3567276 C69.42349814 81.167295 69.40835186 78.97783196 69.39665604 76.78835297 C70.21831484 53.34782582 70.21831484 53.34782582 60.17578125 33.15234375 C50.1382115 25.12623198 38.46134571 24.29363495 26 25 C16.36556003 26.31433537 9.8327385 30.24391004 1 35 C0.67 75.26 0.34 115.52 0 157 C5.28 157.66 10.56 158.32 16 159 C17.32 159.33 18.64 159.66 20 160 C20 163.96 20 167.92 20 172 C-5.41 172 -30.82 172 -57 172 C-57 168.04 -57 164.08 -57 160 C-54.10496617 159.49494737 -51.20912047 158.9957978 -48.3125 158.5 C-47.49587891 158.35691406 -46.67925781 158.21382812 -45.83789062 158.06640625 C-45.04189453 157.93105469 -44.24589844 157.79570313 -43.42578125 157.65625 C-42.69786377 157.53056641 -41.96994629 157.40488281 -41.2199707 157.27539062 C-38.79368177 156.97440592 -36.4426968 156.98219441 -34 157 C-33.63868651 141.59645157 -33.39974846 126.19451009 -33.30309582 110.78719902 C-33.25540758 103.63117752 -33.16898821 96.47969031 -32.98852539 89.32568359 C-32.83116484 83.08349014 -32.7493841 76.84544238 -32.75510865 70.60119355 C-32.75558051 67.29750028 -32.70921942 64.00571083 -32.59447289 60.70373154 C-31.65636586 46.75009436 -31.65636586 46.75009436 -37.17053604 34.57688141 C-41.64245108 30.95590053 -46.34767968 28.32454624 -51.48603821 25.775177 C-54.0678196 24.44513321 -54.0678196 24.44513321 -56 23 C-56.64738464 19.14303589 -56.64738464 19.14303589 -56 16 C-50.07364521 13.88163533 -44.14711392 11.76376504 -38.22045898 9.64624023 C-36.20381659 8.92565136 -34.18721481 8.20494884 -32.1706543 7.48413086 C-29.27403226 6.44875772 -26.377265 5.41379183 -23.48046875 4.37890625 C-22.57725388 4.05596085 -21.674039 3.73301544 -20.74345398 3.40028381 C-19.90280899 3.10004807 -19.062164 2.79981232 -18.19604492 2.49047852 C-17.45658127 2.22622574 -16.71711761 1.96197296 -15.95524597 1.68971252 C-9.72450479 -0.50817986 -8.34320424 0 0 0 Z " fill="#002140" transform="translate(1517,1346)"/>
<path d="M0 0 C0.495 11.88 0.495 11.88 1 24 C2.69125 22.515 4.3825 21.03 6.125 19.5 C23.1593095 5.12744845 42.68921586 -1.28626114 65 0 C78.68321776 1.85263183 89.18132098 6.12071876 98 17 C108.18485663 31.80741001 106.46909695 51.55159713 106.51171875 68.62109375 C106.52859106 71.17799223 106.54674468 73.73488254 106.56611633 76.29176331 C106.60853867 82.29426327 106.63820328 88.29669042 106.66143972 94.29928404 C106.68866495 101.14359471 106.7325642 107.98776847 106.77772844 114.83198059 C106.87011555 128.88791227 106.94200427 142.94388727 107 157 C107.59014893 157.08564209 108.18029785 157.17128418 108.78833008 157.25952148 C111.46347393 157.64935599 114.13798429 158.04338014 116.8125 158.4375 C118.2056543 158.63956055 118.2056543 158.63956055 119.62695312 158.84570312 C120.51962891 158.97783203 121.41230469 159.10996094 122.33203125 159.24609375 C123.15421143 159.36654053 123.9763916 159.4869873 124.82348633 159.61108398 C127 160 127 160 130 161 C130 164.96 130 168.92 130 173 C129.07888428 172.96970703 128.15776855 172.93941406 127.20874023 172.90820312 C123.71416859 172.79445181 120.21953963 172.68291127 116.72485352 172.57275391 C115.22677926 172.52510462 113.72873087 172.47663312 112.23071289 172.42724609 C96.82046057 171.92029587 81.4726575 171.93686338 66.0625 172.5 C64.68555527 172.54841646 63.30860213 172.5965944 61.93164062 172.64453125 C58.62100397 172.76069394 55.3104705 172.87921039 52 173 C52 169.04 52 165.08 52 161 C61.9 159.02 61.9 159.02 72 157 C72.04537205 144.74221802 72.08198553 132.48449278 72.10362434 120.22664547 C72.1140153 114.53347057 72.12808787 108.84035663 72.15087891 103.1472168 C72.17277572 97.64234896 72.18460378 92.13753937 72.18975449 86.6326313 C72.19342025 84.54333137 72.20057757 82.45403425 72.21146011 80.36475945 C73.21737956 55.75343421 73.21737956 55.75343421 63.36328125 34.1640625 C53.2859154 24.87929846 40.4584263 25.36172314 27.55224609 25.81640625 C18.98538236 26.43265664 11.37565472 29.99882591 3.92578125 34.046875 C2 35 2 35 0 35 C0 75.59 0 116.18 0 158 C3.96 158.33 7.92 158.66 12 159 C14.68244849 159.60002137 17.35894856 160.23815824 20 161 C20 164.96 20 168.92 20 173 C19.16976318 172.96970703 18.33952637 172.93941406 17.48413086 172.90820312 C14.32502332 172.79424295 11.16584007 172.68273839 8.0065918 172.57275391 C5.9984704 172.50214386 3.99044398 172.42884832 1.98242188 172.35546875 C-12.84448058 171.84293385 -27.61521436 172.0113352 -42.4375 172.5 C-43.9589775 172.54839367 -45.48046188 172.59657173 -47.00195312 172.64453125 C-50.66805093 172.76054878 -54.33404852 172.87943691 -58 173 C-58 169.04 -58 165.08 -58 161 C-55.29172996 160.52047335 -52.58338656 160.04136769 -49.875 159.5625 C-49.11445312 159.42779297 -48.35390625 159.29308594 -47.5703125 159.15429688 C-46.82265625 159.02216797 -46.075 158.89003906 -45.3046875 158.75390625 C-44.2835083 158.57323608 -44.2835083 158.57323608 -43.24169922 158.38891602 C-40.49664309 157.9126718 -37.74829695 157.45713059 -35 157 C-34.50760418 141.72805246 -34.13825537 126.45647097 -33.91194439 111.17835045 C-33.80401961 104.08233456 -33.65718492 96.99127092 -33.41577148 89.8984375 C-33.20523016 83.70964414 -33.07071359 77.52443541 -33.02414161 71.33216059 C-32.99692916 68.05586498 -32.92272229 64.79210476 -32.77966881 61.51853561 C-31.72659751 47.67530682 -31.72659751 47.67530682 -37.16141129 35.58600616 C-41.63370669 31.96609735 -46.34157381 29.33462312 -51.47834778 26.78286743 C-54.06429482 25.44865799 -54.06429482 25.44865799 -56 24 C-56.64823914 20.1421814 -56.64823914 20.1421814 -56 17 C-47.14803102 13.18508554 -38.18977834 9.7466698 -29.11767578 6.49584961 C-27.61651866 5.95477284 -26.11781029 5.4068558 -24.62158203 4.85229492 C-22.41711884 4.03564042 -20.20589676 3.24041513 -17.9921875 2.44921875 C-17.33773651 2.20241867 -16.68328552 1.95561859 -16.00900269 1.70133972 C-10.15258984 -0.34552122 -6.81079961 0 0 0 Z " fill="#002140" transform="translate(721,1012)"/>
<path d="M0 0 C0.495 11.88 0.495 11.88 1 24 C3.31 21.69 5.62 19.38 8 17 C27.12970912 2.64697695 48.4093026 -2.95840913 72.22363281 0.3046875 C83.15087148 2.49572461 92.77256321 8.7597883 99 18 C104.88675387 29.1645332 106.31280712 40.43264051 106.22705078 52.8972168 C106.22734283 54.03023727 106.22763489 55.16325775 106.22793579 56.33061218 C106.22655402 60.03689513 106.21104739 63.74297138 106.1953125 67.44921875 C106.19157827 70.03424469 106.18873324 72.61927206 106.18673706 75.20429993 C106.1799081 81.28843526 106.16418139 87.37248661 106.14403808 93.45659047 C106.12158664 100.39019788 106.11066254 107.323809 106.10064721 114.25744379 C106.07981208 128.50500149 106.04469423 142.75249814 106 157 C107.23330048 157.09896828 107.23330048 157.09896828 108.49151611 157.19993591 C109.57100525 157.28791946 110.65049438 157.37590302 111.76269531 157.46655273 C113.36724579 157.59645851 113.36724579 157.59645851 115.00421143 157.72898865 C120.06418318 158.1867345 125.00107068 159.10733405 130 160 C130 163.96 130 167.92 130 172 C104.26 172 78.52 172 52 172 C52 168.04 52 164.08 52 160 C54.56149628 159.49432271 57.12399465 158.99529868 59.6875 158.5 C60.40873047 158.35691406 61.12996094 158.21382812 61.87304688 158.06640625 C62.57880859 157.93105469 63.28457031 157.79570313 64.01171875 157.65625 C64.65584717 157.53056641 65.29997559 157.40488281 65.96362305 157.27539062 C68.32585249 156.95593315 70.61862634 156.98272536 73 157 C72.91527842 144.59445995 72.82027415 132.18904406 72.71247292 119.78368187 C72.6627219 114.02215311 72.61639147 108.26064083 72.578125 102.49902344 C72.54100263 96.92923724 72.49457286 91.35959648 72.44193649 85.78993607 C72.42353468 83.67472534 72.4083755 81.55948361 72.39665604 79.44422531 C73.14963481 54.33801216 73.14963481 54.33801216 62.7265625 32.53515625 C53.6150077 24.43370594 40.73448566 24.19950293 29.18554688 24.8046875 C18.50871592 25.75882789 10.45177793 29.84448477 1 35 C0.67 75.26 0.34 115.52 0 157 C5.28 157.66 10.56 158.32 16 159 C17.32 159.33 18.64 159.66 20 160 C20 163.96 20 167.92 20 172 C-5.74 172 -31.48 172 -58 172 C-58 168.04 -58 164.08 -58 160 C-54.93821983 159.49521191 -51.87570351 158.99601107 -48.8125 158.5 C-47.94818359 158.35691406 -47.08386719 158.21382812 -46.19335938 158.06640625 C-45.35224609 157.93105469 -44.51113281 157.79570313 -43.64453125 157.65625 C-42.87471924 157.53056641 -42.10490723 157.40488281 -41.31176758 157.27539062 C-38.85373812 156.98257647 -36.47321774 156.98192802 -34 157 C-33.63868651 141.59645157 -33.39974846 126.19451009 -33.30309582 110.78719902 C-33.25540758 103.63117752 -33.16898821 96.47969031 -32.98852539 89.32568359 C-32.83116484 83.08349014 -32.7493841 76.84544238 -32.75510865 70.60119355 C-32.75558051 67.29750028 -32.70921942 64.00571083 -32.59447289 60.70373154 C-31.65636586 46.75009436 -31.65636586 46.75009436 -37.17053604 34.57688141 C-41.64245108 30.95590053 -46.34767968 28.32454624 -51.48603821 25.775177 C-54.0678196 24.44513321 -54.0678196 24.44513321 -56 23 C-56.64738464 19.14303589 -56.64738464 19.14303589 -56 16 C-51.03836839 14.20207419 -46.07619161 12.40566379 -41.11352539 10.6105957 C-39.42880799 10.00097598 -37.74423477 9.39095768 -36.05981445 8.78051758 C-33.62489926 7.89817646 -31.18945218 7.01731711 -28.75390625 6.13671875 C-28.01290176 5.86784348 -27.27189728 5.5989682 -26.50843811 5.32194519 C-25.06090114 4.79918555 -23.61107126 4.28272941 -22.15896606 3.77279663 C-20.70957874 3.25399198 -19.26953205 2.7083804 -17.83981323 2.13760376 C-11.22251017 -0.37054609 -7.80988646 0 0 0 Z " fill="#002140" transform="translate(721,1346)"/>
<path d="M0 0 C0.495 12.375 0.495 12.375 1 25 C3.64 22.36 6.28 19.72 9 17 C26.51913803 3.44352415 47.63604784 -2.31986232 69.6796875 0.46484375 C81.99698171 2.74233032 91.76095956 7.53629609 99 18 C109.54457373 36.39920517 107.14798754 59.49267105 107.09765625 79.97265625 C107.09578648 82.23522408 107.09436523 84.49779233 107.09336853 86.76036072 C107.0895873 92.65712644 107.07979561 98.55386674 107.06866455 104.45062256 C107.05835489 110.49116675 107.05385063 116.53171513 107.04882812 122.57226562 C107.0381685 134.38152146 107.02114624 146.1907586 107 158 C107.94246582 158.05986084 108.88493164 158.11972168 109.85595703 158.18139648 C111.72550049 158.30623413 111.72550049 158.30623413 113.6328125 158.43359375 C114.86402832 158.51407959 116.09524414 158.59456543 117.36376953 158.67749023 C122.02750655 159.09113308 126.437745 159.96312386 131 161 C131 164.96 131 168.92 131 173 C130.04859131 172.96970703 129.09718262 172.93941406 128.11694336 172.90820312 C124.51056985 172.7940114 120.90410469 172.68296181 117.29760742 172.57275391 C115.75103223 172.52507837 114.20448137 172.47660495 112.65795898 172.42724609 C97.10484309 171.93189174 81.61527512 171.93165167 66.0625 172.5 C64.68555527 172.54841646 63.30860213 172.5965944 61.93164062 172.64453125 C58.62100397 172.76069394 55.3104705 172.87921039 52 173 C52 169.04 52 165.08 52 161 C61.9 159.02 61.9 159.02 72 157 C72.06797535 143.92537701 72.12293102 130.8508728 72.15543652 117.77611256 C72.17104327 111.703946 72.19218993 105.63190739 72.22631836 99.55981445 C72.2590903 93.69185326 72.27689048 87.82401456 72.28463173 81.95596886 C72.29014335 79.72545127 72.30090559 77.49493982 72.31719017 75.26447487 C73.09239958 52.54477394 73.09239958 52.54477394 63 33 C55.031369 27.0924721 46.51945708 25.62638956 36.8125 25.6875 C35.87994385 25.69313965 34.9473877 25.6987793 33.98657227 25.70458984 C22.79735545 25.90118215 14.25084614 28.47887433 4.3984375 33.79296875 C2 35 2 35 0 35 C0.33 75.26 0.66 115.52 1 157 C7.6 158.32 14.2 159.64 21 161 C21 164.96 21 168.92 21 173 C20.13947021 172.96970703 19.27894043 172.93941406 18.39233398 172.90820312 C15.12140297 172.79431734 11.85040734 172.68279992 8.5793457 172.57275391 C7.17827279 172.52516246 5.77722928 172.47669541 4.3762207 172.42724609 C-11.08106078 171.8829365 -26.48180523 171.97308122 -41.9375 172.5 C-43.41079996 172.54840077 -44.88410726 172.5965788 -46.35742188 172.64453125 C-49.9050357 172.76046817 -53.4525424 172.87936655 -57 173 C-57 169.04 -57 165.08 -57 161 C-54.47952208 160.51890037 -51.9586463 160.04007397 -49.4375 159.5625 C-48.73302734 159.42779297 -48.02855469 159.29308594 -47.30273438 159.15429688 C-46.60341797 159.02216797 -45.90410156 158.89003906 -45.18359375 158.75390625 C-44.23311157 158.57323608 -44.23311157 158.57323608 -43.26342773 158.38891602 C-40.18482079 157.85993092 -37.09269892 157.43804043 -34 157 C-33.50760418 141.72805246 -33.13825537 126.45647097 -32.91194439 111.17835045 C-32.80401961 104.08233456 -32.65718492 96.99127092 -32.41577148 89.8984375 C-32.20523016 83.70964414 -32.07071359 77.52443541 -32.02414161 71.33216059 C-31.99692916 68.05586498 -31.92272229 64.79210476 -31.77966881 61.51853561 C-30.77241064 47.6677267 -30.77241064 47.6677267 -36.145298 35.48932648 C-41.26844345 31.09044122 -46.90053876 27.84067934 -52.99128437 24.96389198 C-55 24 -55 24 -56 23 C-56.04080783 21.00041636 -56.04254356 18.99954746 -56 17 C-47.41513896 13.43332956 -38.68568455 10.26651636 -29.93188477 7.14404297 C-28.26509041 6.54662681 -26.60036668 5.94340268 -24.93774414 5.33447266 C-22.5035941 4.4435388 -20.06335165 3.57154883 -17.62109375 2.703125 C-16.88958603 2.43131409 -16.15807831 2.15950317 -15.40440369 1.87945557 C-9.71513908 -0.10877378 -6.49137178 0 0 0 Z " fill="#002140" transform="translate(2534,1012)"/>
<path d="M0 0 C0.495 11.88 0.495 11.88 1 24 C3.31 21.69 5.62 19.38 8 17 C10.24124211 15.34773546 12.39671725 13.83228817 14.75 12.375 C15.35706787 11.99456543 15.96413574 11.61413086 16.58959961 11.22216797 C30.22535092 2.83341509 42.79992642 -0.23929799 58.6875 -0.375 C59.74469238 -0.38893799 60.80188477 -0.40287598 61.89111328 -0.41723633 C74.23876738 -0.34285287 85.10609929 3.19428885 94.25 11.6875 C108.32339269 26.7121757 106.41432487 47.85777044 106.29296875 66.9609375 C106.28736467 69.56409459 106.28309841 72.16725486 106.28010559 74.77041626 C106.26988005 80.8863742 106.2463146 87.00214299 106.21605712 93.11803019 C106.18232389 100.09038751 106.16597995 107.06275339 106.15097082 114.03517222 C106.11975827 128.35686901 106.06711711 142.67842864 106 157 C107.23330048 157.09896828 107.23330048 157.09896828 108.49151611 157.19993591 C109.57100525 157.28791946 110.65049438 157.37590302 111.76269531 157.46655273 C113.36724579 157.59645851 113.36724579 157.59645851 115.00421143 157.72898865 C120.06418318 158.1867345 125.00107068 159.10733405 130 160 C130 163.96 130 167.92 130 172 C104.26 172 78.52 172 52 172 C52 168.04 52 164.08 52 160 C54.56149628 159.49432271 57.12399465 158.99529868 59.6875 158.5 C60.40873047 158.35691406 61.12996094 158.21382812 61.87304688 158.06640625 C62.57880859 157.93105469 63.28457031 157.79570313 64.01171875 157.65625 C64.65584717 157.53056641 65.29997559 157.40488281 65.96362305 157.27539062 C68.32585249 156.95593315 70.61862634 156.98272536 73 157 C72.91537462 144.16876942 72.82040608 131.33766016 72.71247292 118.50660324 C72.66266744 112.54771981 72.61633666 106.58885276 72.578125 100.62988281 C72.54107248 94.8720759 72.49465981 89.11441158 72.44193649 83.3567276 C72.42349814 81.167295 72.40835186 78.97783196 72.39665604 76.78835297 C73.02828123 53.55015369 73.02828123 53.55015369 63.3984375 33.15234375 C54.70760397 25.07661488 43.50463761 24.59613209 32.16015625 24.79296875 C20.27246565 25.2366815 11.87441428 29.56279286 1 35 C0.67 75.26 0.34 115.52 0 157 C5.28 157.66 10.56 158.32 16 159 C17.32 159.33 18.64 159.66 20 160 C20 163.96 20 167.92 20 172 C-5.41 172 -30.82 172 -57 172 C-57 168.04 -57 164.08 -57 160 C-54.10496617 159.49494737 -51.20912047 158.9957978 -48.3125 158.5 C-47.49587891 158.35691406 -46.67925781 158.21382812 -45.83789062 158.06640625 C-45.04189453 157.93105469 -44.24589844 157.79570313 -43.42578125 157.65625 C-42.69786377 157.53056641 -41.96994629 157.40488281 -41.2199707 157.27539062 C-38.79368177 156.97440592 -36.4426968 156.98219441 -34 157 C-33.63868651 141.59645157 -33.39974846 126.19451009 -33.30309582 110.78719902 C-33.25540758 103.63117752 -33.16898821 96.47969031 -32.98852539 89.32568359 C-32.83116484 83.08349014 -32.7493841 76.84544238 -32.75510865 70.60119355 C-32.75558051 67.29750028 -32.70921942 64.00571083 -32.59447289 60.70373154 C-31.65636586 46.75009436 -31.65636586 46.75009436 -37.17053604 34.57688141 C-41.64245108 30.95590053 -46.34767968 28.32454624 -51.48603821 25.775177 C-54.0678196 24.44513321 -54.0678196 24.44513321 -56 23 C-56.64738464 19.14303589 -56.64738464 19.14303589 -56 16 C-50.07364521 13.88163533 -44.14711392 11.76376504 -38.22045898 9.64624023 C-36.20381659 8.92565136 -34.18721481 8.20494884 -32.1706543 7.48413086 C-29.27403226 6.44875772 -26.377265 5.41379183 -23.48046875 4.37890625 C-22.57725388 4.05596085 -21.674039 3.73301544 -20.74345398 3.40028381 C-19.90280899 3.10004807 -19.062164 2.79981232 -18.19604492 2.49047852 C-17.45658127 2.22622574 -16.71711761 1.96197296 -15.95524597 1.68971252 C-9.72450479 -0.50817986 -8.34320424 0 0 0 Z " fill="#002140" transform="translate(1977,1346)"/>
<path d="M0 0 C37.62 0 75.24 0 114 0 C114 3.96 114 7.92 114 12 C86.76666667 17 86.76666667 17 77 17 C77 88.94 77 160.88 77 235 C81.29 235.33 85.58 235.66 90 236 C93.71978604 236.46434236 97.41883143 236.95113926 101.125 237.5 C102.50171875 237.69529297 102.50171875 237.69529297 103.90625 237.89453125 C107.40864092 238.40294284 110.63440673 238.87813558 114 240 C114 243.96 114 247.92 114 252 C76.38 252 38.76 252 0 252 C0 248.04 0 244.08 0 240 C27.53333333 235 27.53333333 235 37 235 C37 163.06 37 91.12 37 17 C32.71 16.67 28.42 16.34 24 16 C20.28021396 15.53565764 16.58116857 15.04886074 12.875 14.5 C11.9571875 14.36980469 11.039375 14.23960938 10.09375 14.10546875 C6.59135908 13.59705716 3.36559327 13.12186442 0 12 C0 8.04 0 4.08 0 0 Z " fill="#002140" transform="translate(531,1266)"/>
<path d="M0 0 C37.62 0 75.24 0 114 0 C114 3.96 114 7.92 114 12 C109.2132167 12.71484253 104.42602351 13.42684978 99.63842773 14.13623047 C98.00973105 14.37796352 96.38114919 14.62047154 94.75268555 14.86376953 C92.41224431 15.21330205 90.07140457 15.56004741 87.73046875 15.90625 C87.00224411 16.0156189 86.27401947 16.12498779 85.52372742 16.2376709 C82.64966609 16.66046772 79.90979363 17 77 17 C77.33 88.61 77.66 160.22 78 234 C95.82 236.475 95.82 236.475 114 239 C114 243.29 114 247.58 114 252 C112.6809668 251.96970703 111.36193359 251.93941406 110.00292969 251.90820312 C105.0080252 251.79410079 100.01305693 251.68302025 95.01806641 251.57275391 C92.87514488 251.52504805 90.73224031 251.4765725 88.58935547 251.42724609 C66.45215005 250.9187027 44.38657113 250.99044506 22.25 251.5 C20.07682741 251.54837931 17.90365033 251.59655743 15.73046875 251.64453125 C10.48692475 251.76071187 5.24344825 251.87957876 0 252 C0 247.71 0 243.42 0 239 C11.88 237.35 23.76 235.7 36 234 C36.33 162.39 36.66 90.78 37 17 C28.75 16.01 20.5 15.02 12 14 C6.06 13.01 6.06 13.01 0 12 C0 8.04 0 4.08 0 0 Z " fill="#002140" transform="translate(531,933)"/>
<path d="M0 0 C11.64792779 8.90529515 19.9908022 20.45554395 23 35 C23.5414917 39.32672694 24.07323795 43.63623872 24 48 C22 50 22 50 19.29014587 50.21838379 C18.11794998 50.20110229 16.94575409 50.1838208 15.73803711 50.16601562 C15.08014915 50.15807228 14.42226118 50.15012894 13.74443722 50.14194489 C11.49577886 50.10879938 9.24818287 50.05677114 7 50 C5.79760115 49.97049759 5.79760115 49.97049759 4.57091141 49.94039917 C-1.89003036 49.77420635 -8.34918655 49.56053121 -14.80859375 49.34375 C-16.87223121 49.27627642 -18.93587577 49.20901949 -20.99952698 49.14196777 C-26.38016886 48.96656827 -31.76071053 48.78826378 -37.14123535 48.60931396 C-42.65204112 48.42655921 -48.16293837 48.24660749 -53.67382812 48.06640625 C-64.44930911 47.71365083 -75.22468611 47.35782044 -86 47 C-87.1945313 53.82733343 -87.24383366 60.52043562 -87.25 67.4375 C-87.25067474 68.11295868 -87.25134949 68.78841736 -87.25204468 69.48434448 C-87.21737199 91.2785619 -82.36617641 111.59789863 -67.125 127.96484375 C-56.39884182 138.23750627 -43.15549339 141.36335955 -28.66015625 141.2109375 C-15.40711258 140.44715483 -4.19271644 135.1430078 4.91796875 125.5234375 C8.40261732 121.30001729 11.25218151 116.72695464 14 112 C16.64 112.99 19.28 113.98 22 115 C20.31101291 128.1236238 11.47657505 139.23416808 2 148 C1.49855469 148.51820313 0.99710938 149.03640625 0.48046875 149.5703125 C-3.80315324 153.73261187 -8.47090486 156.55137908 -13.75 159.25 C-14.38075439 159.57911377 -15.01150879 159.90822754 -15.66137695 160.24731445 C-25.44865132 165.04956776 -35.49889251 166.54544212 -46.3125 166.4375 C-47.40554443 166.42847656 -48.49858887 166.41945313 -49.62475586 166.41015625 C-69.51538481 165.98597993 -87.90796345 158.11260887 -102 144 C-121.72071141 121.99055738 -125.22157777 95.56915757 -124 67 C-121.97715537 43.87983621 -110.14863613 22.16487284 -92.71875 7.12890625 C-67.12566982 -12.91165223 -28.19336236 -17.8333891 0 0 Z M-71.75 11.75 C-77.72883672 19.13893971 -84 28.22233588 -84 38 C-75.07263952 38.06951349 -66.14537222 38.12281799 -57.21780014 38.15543652 C-53.07234894 38.17109187 -48.92708291 38.19232757 -44.78173828 38.22631836 C-40.78116282 38.25891675 -36.78076547 38.276854 -32.78006744 38.28463173 C-31.25382941 38.2901744 -29.72760111 38.30099794 -28.2014389 38.31719017 C-26.06344037 38.33897148 -23.92617759 38.34196673 -21.78808594 38.34057617 C-20.5711908 38.34723801 -19.35429565 38.35389984 -18.1005249 38.36076355 C-14.74161991 37.96993602 -13.3540294 37.38847437 -11 35 C-9.07558583 26.51930584 -11.92453705 18.38945782 -16 11 C-20.76435839 4.39727301 -26.94282351 0.45293347 -35 -1 C-49.0221279 -2.03049759 -61.94072063 1.0783664 -71.75 11.75 Z " fill="#002140" transform="translate(1880,1356)"/>
<path d="M0 0 C10.46030355 9.43679048 15.9165353 23.72847206 17.2421875 37.51953125 C17.3125 39.6875 17.3125 39.6875 17 43 C15 45 15 45 11.24040222 45.13334656 C9.57946304 45.08871602 7.91881362 45.03248075 6.25854492 44.9675293 C5.35254547 44.94016693 4.44654602 44.91280457 3.51309204 44.88461304 C0.50180718 44.79109408 -2.50875455 44.68279423 -5.51953125 44.57421875 C-7.61542658 44.50567973 -9.7113491 44.43796774 -11.80729675 44.37104797 C-16.21348089 44.22828883 -20.61936747 44.07882466 -25.02514648 43.92407227 C-30.64200179 43.72683362 -36.25914964 43.54079621 -41.87653065 43.35921001 C-47.25766225 43.18478856 -52.63860119 43.00473392 -58.01953125 42.82421875 C-59.03378489 42.79063452 -60.04803852 42.75705029 -61.09302711 42.72244835 C-71.75099778 42.36570716 -82.37710691 41.97341626 -93 41 C-96.19913416 65.53529507 -95.47632132 92.87137437 -81 114 C-71.88582031 125.72340807 -61.39173958 133.24742468 -46.546875 135.53125 C-33.39232942 136.80613988 -20.19699864 134.93373578 -9.26953125 127.0234375 C-3.44927913 122.03968153 0.90554337 116.4441164 5 110 C5.99 108.515 5.99 108.515 7 107 C9.97 107.99 12.94 108.98 16 110 C12.5808103 122.60826202 5.13314054 132.83536587 -4 142 C-4.68578125 142.70898438 -5.3715625 143.41796875 -6.078125 144.1484375 C-19.91835456 157.52732607 -38.60428217 161.47558583 -57.25390625 161.21484375 C-77.63867521 160.55222558 -95.92166036 151.58032258 -110 137 C-128.13396417 116.30524614 -132.26342775 90.78557407 -131 64 C-129.2500024 43.94353985 -121.37157819 25.05925311 -108 10 C-107.40832031 9.31421875 -106.81664063 8.6284375 -106.20703125 7.921875 C-79.84268241 -20.63481841 -29.82640826 -25.19409762 0 0 Z M-80.6875 9.1875 C-86.1065115 16.57706113 -89.82606877 23.89700182 -91 33 C-82.64596179 33.04644848 -74.29197801 33.08193256 -65.93784237 33.10362434 C-62.05820576 33.11403807 -58.17865784 33.12815296 -54.29907227 33.15087891 C-50.55136309 33.17269364 -46.80373895 33.18458674 -43.05597115 33.18975449 C-41.62991562 33.19343481 -40.20386447 33.20062141 -38.77784538 33.21146011 C-36.77243508 33.22608909 -34.76693825 33.22681789 -32.76147461 33.22705078 C-31.62230087 33.231492 -30.48312714 33.23593323 -29.30943298 33.24050903 C-25.6040317 32.97122348 -22.48493134 32.28781729 -19 31 C-16.00361578 25.24694229 -17.12112374 20.02319183 -19 14 C-22.30981499 5.0940721 -27.20303345 -0.29625522 -35.4375 -4.9375 C-52.40053178 -10.30130451 -69.63652259 -4.16072655 -80.6875 9.1875 Z " fill="#002140" transform="translate(2444,1028)"/>
<path d="M0 0 C11.29952053 9.27038128 18.06333514 21.163232 20.3125 35.6875 C20.55824064 39.37360961 20.67160331 43.00669104 20.3125 46.6875 C19.3125 47.6875 19.3125 47.6875 16.68121338 47.80699158 C5.46289132 47.75039339 -5.74108869 47.43547911 -16.953125 47.06640625 C-18.96473934 47.00145804 -20.97635642 46.93659446 -22.98797607 46.87181091 C-27.16993924 46.73648824 -31.35183297 46.5992131 -35.53369141 46.46069336 C-40.89681613 46.28334067 -46.26012538 46.11242067 -51.62350845 45.94308567 C-55.76190428 45.81148068 -59.9001587 45.67579195 -64.03838348 45.53892326 C-66.0175284 45.47409806 -67.99672131 45.41072115 -69.97595978 45.34881783 C-72.7279487 45.26228248 -75.47969117 45.17008238 -78.23144531 45.07641602 C-79.04801102 45.05195908 -79.86457672 45.02750214 -80.70588684 45.00230408 C-83.9255033 44.88775659 -86.61299423 44.71233526 -89.6875 43.6875 C-92.08885291 70.74560152 -91.86771874 100.132636 -73.58984375 122.22265625 C-64.02900419 132.32308464 -52.34514473 138.01655868 -38.4609375 138.890625 C-23.11386106 139.10230881 -11.19826682 135.46099441 0.1640625 125.015625 C4.34252085 120.48769559 7.56186387 115.18877225 10.3125 109.6875 C13.71562738 110.74625074 16.32603231 111.69652154 19.3125 113.6875 C14.56399975 131.19759466 1.93154923 145.86238822 -13.3125 155.3125 C-30.150865 164.88601067 -51.37987679 166.38219149 -70.125 162.25 C-90.44065246 156.20166778 -106.10678272 143.87299114 -116.51953125 125.4453125 C-129.57808352 100.75777578 -130.90566889 71.55290289 -122.92041016 44.98901367 C-119.10947476 33.26897139 -112.96607656 22.8230087 -104.6875 13.6875 C-103.93855469 12.84574219 -103.18960937 12.00398438 -102.41796875 11.13671875 C-93.31189384 1.44220604 -82.20627694 -4.97528594 -69.6875 -9.3125 C-68.33785156 -9.79203125 -68.33785156 -9.79203125 -66.9609375 -10.28125 C-45.13113857 -16.63601627 -18.3885343 -13.57542801 0 0 Z M-72.6875 7.6875 C-73.30238281 8.24953125 -73.91726563 8.8115625 -74.55078125 9.390625 C-81.26211595 16.23588878 -85.9880176 26.31024971 -87.6875 35.6875 C-78.76011759 35.73384244 -69.8327766 35.76937889 -60.90530014 35.79112434 C-56.75990296 35.80156111 -52.61458809 35.81571835 -48.46923828 35.83837891 C-44.46867311 35.86011111 -40.46818709 35.87206943 -36.46756744 35.87725449 C-34.94134525 35.88094956 -33.41512739 35.88816511 -31.8889389 35.89896011 C-29.75105936 35.91348018 -27.61350686 35.91547775 -25.47558594 35.91455078 C-23.65024323 35.92121262 -23.65024323 35.92121262 -21.7880249 35.92800903 C-18.80855807 35.69689053 -17.13944599 35.35003832 -14.6875 33.6875 C-12.5363444 29.38518881 -13.24074959 24.36339273 -14.44140625 19.859375 C-17.60359098 10.78204471 -21.9490346 3.2715045 -30.6484375 -1.35546875 C-45.38390313 -7.18939845 -61.46713194 -2.81667435 -72.6875 7.6875 Z " fill="#002140" transform="translate(1144.6875,1358.3125)"/>
<path d="M0 0 C11.24723001 9.37269167 17.93040944 22.69483393 19.30859375 37.26171875 C19.36743879 39.90974556 19.41656022 42.38438935 19 45 C17 47 17 47 13.24040222 47.13334656 C11.57946304 47.08871602 9.91881362 47.03248075 8.25854492 46.9675293 C7.35254547 46.94016693 6.44654602 46.91280457 5.51309204 46.88461304 C2.50180718 46.79109408 -0.50875455 46.68279423 -3.51953125 46.57421875 C-5.61542658 46.50567973 -7.7113491 46.43796774 -9.80729675 46.37104797 C-14.21348089 46.22828883 -18.61936747 46.07882466 -23.02514648 45.92407227 C-28.64200179 45.72683362 -34.25914964 45.54079621 -39.87653065 45.35921001 C-45.25766225 45.18478856 -50.63860119 45.00473392 -56.01953125 44.82421875 C-57.03378489 44.79063452 -58.04803852 44.75705029 -59.09302711 44.72244835 C-69.75099778 44.36570716 -80.37710691 43.97341626 -91 43 C-93.32844194 70.19113575 -93.10485922 98.74948429 -75 121 C-65.77485042 131.23785897 -53.80018336 137.20023598 -40 138 C-27.19098496 138.09468121 -16.42176147 135.56347246 -6 128 C-5.19820312 127.42507813 -4.39640625 126.85015625 -3.5703125 126.2578125 C-0.57261002 123.62457233 1.56279454 120.67421901 3.75 117.375 C4.34748047 116.49714844 4.34748047 116.49714844 4.95703125 115.6015625 C6.4158803 113.44543306 7.83448294 111.33103411 9 109 C12.34373475 109.55728913 15.03312999 110.35173889 18 112 C16.1302768 125.65936674 4.59918749 139.84769445 -5.65625 148.3125 C-23.04894121 160.83523767 -42.78147089 165.36105389 -64.015625 162.5390625 C-77.77497702 160.0923158 -89.1543467 154.73332475 -100 146 C-100.63292969 145.53078125 -101.26585937 145.0615625 -101.91796875 144.578125 C-117.7981797 132.22281213 -125.71839526 111.28108333 -128.25 91.9375 C-131.29680319 65.36278163 -126.26634148 38.06319956 -109.625 16.625 C-84.27008301 -14.78501496 -33.37768754 -26.31461882 0 0 Z M-75 8 C-75.53109375 8.52207031 -76.0621875 9.04414062 -76.609375 9.58203125 C-83.3603797 16.73322437 -86.73094948 25.61092937 -89 35 C-80.64596179 35.04644848 -72.29197801 35.08193256 -63.93784237 35.10362434 C-60.05820576 35.11403807 -56.17865784 35.12815296 -52.29907227 35.15087891 C-48.55136309 35.17269364 -44.80373895 35.18458674 -41.05597115 35.18975449 C-39.62991562 35.19343481 -38.20386447 35.20062141 -36.77784538 35.21146011 C-34.77243508 35.22608909 -32.76693825 35.22681789 -30.76147461 35.22705078 C-29.62230087 35.231492 -28.48312714 35.23593323 -27.30943298 35.24050903 C-23.60385838 34.97121089 -20.48832541 34.2780648 -17 33 C-14.45789067 29.18683601 -14.45609127 26.40071611 -15 22 C-17.05758839 11.96062577 -21.66340466 4.32142368 -30.2109375 -1.5078125 C-45.44686378 -8.94377652 -63.74876738 -3.68202305 -75 8 Z " fill="#002140" transform="translate(1146,1026)"/>
<path d="M0 0 C9.72462571 8.72893024 16.13000594 22.06534224 16.8984375 35.09375 C17.03811818 40.49939231 17.03811818 40.49939231 16.7265625 43.1796875 C14.7265625 45.1796875 14.7265625 45.1796875 10.96696472 45.31303406 C9.30602554 45.26840352 7.64537612 45.21216825 5.98510742 45.1472168 C5.07910797 45.11985443 4.17310852 45.09249207 3.23965454 45.06430054 C0.22836968 44.97078158 -2.78219205 44.86248173 -5.79296875 44.75390625 C-7.88886408 44.68536723 -9.9847866 44.61765524 -12.08073425 44.55073547 C-16.48691839 44.40797633 -20.89280497 44.25851216 -25.29858398 44.10375977 C-30.91543929 43.90652112 -36.53258714 43.72048371 -42.14996815 43.53889751 C-47.53109975 43.36447606 -52.91203869 43.18442142 -58.29296875 43.00390625 C-59.30722239 42.97032202 -60.32147602 42.93673779 -61.36646461 42.90213585 C-72.02443528 42.54539466 -82.65054441 42.15310376 -93.2734375 41.1796875 C-95.46848211 69.16650633 -94.98585803 97.86111204 -76.0859375 120.5546875 C-65.90374766 131.20442687 -53.17676043 135.46840291 -38.78125 136.16796875 C-26.32304099 136.2095886 -13.22817502 131.84669319 -3.9375 123.19921875 C0.14489744 118.24475988 3.4133164 112.66419919 6.7265625 107.1796875 C10.06479207 107.79418747 12.74865742 108.52529579 15.7265625 110.1796875 C13.27721613 125.51593578 0.88527269 140.22618185 -11.2734375 149.1796875 C-29.04505427 160.06204891 -49.03182592 164.07075 -69.5859375 159.9921875 C-89.27784192 155.08624592 -105.94040198 144.69375648 -117.2109375 127.6171875 C-131.88239387 102.68995581 -134.4215965 74.08834979 -127.43359375 46.3046875 C-121.49508834 24.3778983 -107.75080297 6.44777961 -88.5859375 -5.5078125 C-60.9479902 -21.0275829 -24.95767789 -19.98329535 0 0 Z M-81.2734375 10.52734375 C-85.84511198 16.58678298 -91.2734375 25.37540426 -91.2734375 33.1796875 C-82.91939929 33.22613598 -74.56541551 33.26162006 -66.21127987 33.28331184 C-62.33164326 33.29372557 -58.45209534 33.30784046 -54.57250977 33.33056641 C-50.82480059 33.35238114 -47.07717645 33.36427424 -43.32940865 33.36944199 C-41.90335312 33.37312231 -40.47730197 33.38030891 -39.05128288 33.39114761 C-37.04587258 33.40577659 -35.04037575 33.40650539 -33.03491211 33.40673828 C-31.89573837 33.4111795 -30.75656464 33.41562073 -29.58287048 33.42019653 C-24.9250998 33.08169869 -20.65332811 32.55957811 -17.2734375 29.1796875 C-15.74506509 20.09831191 -18.91753439 11.27847706 -23.9609375 3.8046875 C-28.02002422 -1.22527492 -33.8912258 -4.68942937 -40.2734375 -5.8203125 C-57.75613583 -7.11669903 -69.58823734 -3.18907284 -81.2734375 10.52734375 Z " fill="#002140" transform="translate(1980.2734375,1027.8203125)"/>
<path d="M0 0 C0.67740234 0.19295654 1.35480469 0.38591309 2.05273438 0.5847168 C3.91796875 1.18359375 3.91796875 1.18359375 6.8125 2.5625 C7.84333264 5.3698821 7.99037879 8.16193138 8.12890625 11.1328125 C8.1918689 12.46578369 8.1918689 12.46578369 8.25610352 13.82568359 C8.29533936 14.77008301 8.3345752 15.71448242 8.375 16.6875 C8.4174585 17.6563916 8.45991699 18.6252832 8.50366211 19.62353516 C8.86869048 28.60602414 8.91236711 37.57445999 8.8125 46.5625 C5.5125 46.5625 2.2125 46.5625 -1.1875 46.5625 C-1.53941406 45.53511719 -1.89132812 44.50773437 -2.25390625 43.44921875 C-6.04528086 32.68941995 -10.27875265 22.16752822 -19.1875 14.5625 C-19.77144531 14.06105469 -20.35539062 13.55960938 -20.95703125 13.04296875 C-28.39178977 7.01597516 -35.56638655 4.91811741 -45.12890625 5.22265625 C-52.27572271 6.01674697 -58.19368628 7.99414073 -63.1875 13.3125 C-68.22626686 19.84960521 -70.19674124 26.33438044 -69.1875 34.5625 C-67.85587771 41.16512717 -65.30756658 46.16519074 -60.1875 50.5625 C-48.72582379 57.91564081 -36.2064091 63.49531646 -23.91088867 69.28076172 C-5.08711102 78.15852251 11.07180205 87.25243104 18.625 107.76953125 C22.13232829 120.50795275 20.54328724 135.92494247 14.375 147.5 C13.54082612 148.86657309 12.68904843 150.22271237 11.8125 151.5625 C11.255625 152.42875 10.69875 153.295 10.125 154.1875 C-3.07410189 167.74333437 -21.41240395 171.48632191 -39.61914062 171.91601562 C-56.87218394 172.04195025 -77.46931017 170.42159492 -93.1875 162.5625 C-93.8475 146.3925 -94.5075 130.2225 -95.1875 113.5625 C-91.5575 113.5625 -87.9275 113.5625 -84.1875 113.5625 C-83.83558594 114.63886719 -83.48367188 115.71523437 -83.12109375 116.82421875 C-77.79772842 132.73575591 -71.3418168 148.53589073 -56.3046875 157.625 C-47.19656555 161.65811673 -36.09979256 162.39684183 -26.6875 158.9375 C-19.97396533 155.71455728 -15.62016981 152.39541537 -12.75 145.375 C-10.21311008 137.2811131 -9.79981366 129.36896097 -13.75390625 121.6796875 C-22.78694221 108.33934557 -41.32388294 101.90571019 -55.32958984 95.39379883 C-71.16443758 87.94446783 -86.71653501 78.9575866 -93.21484375 61.859375 C-96.76026579 49.89970251 -96.66161258 36.23409803 -92.1875 24.5625 C-91.93226562 23.8715625 -91.67703125 23.180625 -91.4140625 22.46875 C-87.1777355 12.67467289 -78.83191809 4.86598536 -69.1875 0.5625 C-46.59187309 -8.04983996 -22.97989975 -6.79499087 0 0 Z " fill="#002140" transform="translate(1661.1875,1017.4375)"/>
<path d="M0 0 C0.41064453 2.75292969 0.41064453 2.75292969 0.6328125 6.421875 C0.67437469 7.07770569 0.71593689 7.73353638 0.75875854 8.40924072 C0.845493 9.80787258 0.92755124 11.20680085 1.00537109 12.60595703 C1.12222741 14.70030839 1.25305912 16.79338032 1.38671875 18.88671875 C1.9011059 27.26174777 2.11360555 35.6076154 2 44 C-1.3 44 -4.6 44 -8 44 C-8.37511719 43.02160156 -8.75023437 42.04320312 -9.13671875 41.03515625 C-14.57604906 27.01325405 -20.55382253 12.88990211 -34.890625 5.89453125 C-44.69206586 1.73799429 -53.77915234 1.82692324 -63.6171875 5.79296875 C-66.75640313 7.38316159 -68.80835184 9.2604398 -71 12 C-71.556875 12.639375 -72.11375 13.27875 -72.6875 13.9375 C-76.4688078 19.87955512 -76.72544147 26.15480872 -76 33 C-73.92288587 42.04464886 -69.07428036 46.79425667 -61.41894531 51.63061523 C-53.90292625 56.07007888 -46.20752721 59.80002181 -38.25 63.375 C2.69363528 82.09675519 2.69363528 82.09675519 11 104 C15.10999776 116.81352241 13.59339085 131.21056822 8.3828125 143.484375 C1.84177301 155.38389317 -8.91857164 161.83121762 -21.42578125 165.96484375 C-38.21735394 170.82797682 -56.38678904 170.08982954 -73.5 167.3125 C-74.42917236 167.16409668 -75.35834473 167.01569336 -76.31567383 166.86279297 C-84.48610712 165.393709 -92.18971282 162.74857951 -100 160 C-100.28820691 154.62908027 -100.57290274 149.2579895 -100.85449219 143.88671875 C-100.95055672 142.06342676 -101.04754335 140.24018309 -101.14550781 138.41699219 C-101.28699428 135.78072399 -101.42504912 133.14429383 -101.5625 130.5078125 C-101.60624756 129.70634796 -101.64999512 128.90488342 -101.69506836 128.07913208 C-101.98763245 122.37965092 -102.03542005 116.70705588 -102 111 C-98.7 111 -95.4 111 -92 111 C-91.46375 112.36125 -90.9275 113.7225 -90.375 115.125 C-89.58429745 117.08372281 -88.79251915 119.0420115 -88 121 C-87.55269531 122.13179687 -87.10539062 123.26359375 -86.64453125 124.4296875 C-82.64721162 134.22472808 -77.97169449 142.86743124 -70 150 C-69.278125 150.680625 -68.55625 151.36125 -67.8125 152.0625 C-59.03245726 158.11097389 -50.51910291 158.95733064 -40 158 C-33.76913413 156.76975802 -27.6163991 154.32864108 -23.59375 149.2109375 C-19.03280891 142.34300876 -16.96524665 135.2242734 -18 127 C-20.09767545 117.93353699 -25.04591842 112.77255858 -32.77246094 107.87695312 C-42.13486937 102.2076257 -51.98598134 97.5387046 -61.875 92.875 C-77.54098099 85.46196822 -93.6648985 77.27523662 -100 60 C-104.24018671 45.79612366 -103.50322923 29.73882421 -96.71484375 16.4921875 C-89.59341936 4.78845382 -78.20298205 -2.08089298 -65.25 -5.8125 C-45.59447695 -10.55212967 -18.44648185 -9.22324093 0 0 Z " fill="#002140" transform="translate(1812,1020)"/>
<path d="M0 0 C0.2887265 4.65878644 0.57338809 9.31779819 0.85449219 13.97705078 C0.95041501 15.557846 1.04739556 17.13857744 1.14550781 18.71923828 C1.66857117 27.15763794 2.13562211 35.54057102 2 44 C-1.3 44 -4.6 44 -8 44 C-8.35191406 43.05640625 -8.70382812 42.1128125 -9.06640625 41.140625 C-15.14340267 25.19137984 -21.35898617 12.78400407 -37.23046875 5.1640625 C-44.97644542 1.90834875 -53.56471886 1.74016613 -61.4375 4.75 C-68.27363833 7.88915472 -71.673308 11.346616 -75 18 C-77.07061945 24.54096342 -77.01279547 32.34581865 -74.5625 38.75 C-68.86475226 49.61683847 -57.53825044 54.05951796 -47 59 C-42.39581476 61.17843165 -37.79763746 63.36885894 -33.20440674 65.57028198 C-31.17047076 66.54080299 -29.1312452 67.49944598 -27.09130859 68.45727539 C-10.77966336 76.19500973 3.90520923 85.77414998 10.8125 103.125 C14.5848047 115.81161997 14.02753249 131.00101304 8.19140625 142.91015625 C1.46528875 154.70842794 -8.21383417 161.87907196 -21.16015625 166.0078125 C-45.19730865 172.26780415 -77.36010097 171.31994952 -100 160 C-100.28967466 155.11135498 -100.57426536 150.22244766 -100.85449219 145.33325195 C-100.95015838 143.67594755 -101.04712564 142.01871765 -101.14550781 140.36157227 C-101.72644628 130.55971761 -102.15823869 120.82288628 -102 111 C-98.7 111 -95.4 111 -92 111 C-91.43152344 112.46050781 -90.86304688 113.92101563 -90.27734375 115.42578125 C-84.41755862 130.38912295 -84.41755862 130.38912295 -76 144 C-75.60683594 144.58394531 -75.21367188 145.16789062 -74.80859375 145.76953125 C-70.21722666 152.08866017 -62.38617775 155.99228585 -55 158 C-44.25316181 159.03729302 -35.50320544 157.67572482 -26.125 152.375 C-20.8806382 146.51365446 -18.34658702 139.50563126 -17.75 131.75 C-18.2860326 123.70951104 -20.91555261 117.37083936 -27 112 C-35.98340839 105.254726 -46.41274127 100.67482159 -56.47900391 95.79931641 C-93.7168017 77.72127407 -93.7168017 77.72127407 -101.109375 56.87109375 C-102.24911814 51.91721017 -102.32976563 47.25323568 -102.3125 42.1875 C-102.32861328 41.25357422 -102.34472656 40.31964844 -102.36132812 39.35742188 C-102.37010658 26.70766926 -97.95509217 16.20905853 -89.5 6.8125 C-65.63236992 -15.73168597 -28.0542285 -8.93041953 0 0 Z " fill="#002140" transform="translate(1295,1020)"/>
<path d="M0 0 C1.82325806 0.00809692 1.82325806 0.00809692 3.68334961 0.01635742 C13.996967 0.18873935 23.45930792 1.71000052 33.375 4.4375 C37.005 5.4275 40.635 6.4175 44.375 7.4375 C45.035 22.2875 45.695 37.1375 46.375 52.4375 C43.075 52.4375 39.775 52.4375 36.375 52.4375 C36.02308594 51.49390625 35.67117187 50.5503125 35.30859375 49.578125 C29.83467818 35.20556842 23.49108886 20.72445639 9.0625 13.4375 C0.58539031 10.01108783 -8.98266046 9.07745841 -17.625 12.4375 C-24.20181535 15.53691873 -27.87143483 19.2471413 -30.75390625 25.9296875 C-33.42112334 33.60840216 -33.1246295 41.08968709 -29.64453125 48.53515625 C-21.92983285 60.47513561 -4.88911842 66.41828272 7.5625 72.0625 C26.2987807 80.5826746 45.20158933 89.41849653 54.1875 109.1875 C58.38834123 120.68453916 58.23466688 136.6397457 53.62890625 147.9375 C47.58049147 159.99664473 39.12437289 167.82527845 26.375 172.4375 C4.37479345 179.43889729 -20.42682457 177.91595662 -42.625 172.4375 C-43.34107422 172.26669922 -44.05714844 172.09589844 -44.79492188 171.91992188 C-52.59713318 170.00871738 -52.59713318 170.00871738 -55.625 168.4375 C-56.64886586 165.50433948 -56.80838845 162.62263099 -56.94140625 159.53515625 C-56.98338135 158.57158203 -57.02535645 157.60800781 -57.06860352 156.61523438 C-57.12745728 155.07319336 -57.12745728 155.07319336 -57.1875 153.5 C-57.25118774 151.91735352 -57.25118774 151.91735352 -57.31616211 150.30273438 C-57.69828051 140.0124472 -57.721521 129.73307374 -57.625 119.4375 C-54.325 119.4375 -51.025 119.4375 -47.625 119.4375 C-47.12871094 120.74203125 -46.63242188 122.0465625 -46.12109375 123.390625 C-37.13463426 147.19929409 -37.13463426 147.19929409 -18.3125 163.4375 C-8.34764383 167.4596277 1.51327699 167.1189091 11.5625 163.69140625 C18.04740352 160.92795305 21.90715416 156.07695338 24.515625 149.609375 C26.33782086 142.88381574 26.76554441 134.57087617 23.9375 128.0625 C15.311476 114.16665247 -3.22392259 107.50668999 -17.375 100.875 C-34.31407796 92.91203073 -49.5452975 84.76554562 -56.625 66.4375 C-60.5894636 52.80965637 -59.5974871 37.20212494 -53.1171875 24.4765625 C-44.47356089 11.41061529 -32.22764066 4.3542463 -17.1484375 1.04174805 C-11.42265094 0.05981057 -5.79827122 -0.04989069 0 0 Z " fill="#002140" transform="translate(2310.625,1345.5625)"/>
<path d="M0 0 C0.75249023 0.10086914 1.50498047 0.20173828 2.28027344 0.30566406 C10.77134722 1.6220821 18.92723995 4.30151193 27.125 6.8125 C27.41273744 11.79280655 27.69746097 16.77327329 27.97949219 21.75390625 C28.07568549 23.44535887 28.17267689 25.13676631 28.27050781 26.828125 C28.41164812 29.2707164 28.54983934 31.71346031 28.6875 34.15625 C28.73124756 34.90241577 28.77499512 35.64858154 28.82006836 36.4173584 C29.08730997 41.22367464 29.1630541 45.99865667 29.125 50.8125 C25.825 50.8125 22.525 50.8125 19.125 50.8125 C18.6403125 49.56855469 18.155625 48.32460937 17.65625 47.04296875 C12.05005417 32.99004804 5.93418291 19.17984408 -8.5625 12.5 C-16.88107138 8.99822128 -25.76724948 8.29557514 -34.3125 11.5625 C-41.08448935 14.69968356 -44.74109547 18.0993077 -47.92578125 24.890625 C-50.05514786 31.44521853 -49.64387169 38.05360748 -47.8125 44.625 C-38.49507387 59.95366879 -21.40889332 65.54179216 -5.74914551 72.7310791 C3.71108362 77.08593539 12.78864986 81.4922108 21.125 87.8125 C21.97320313 88.44027344 22.82140625 89.06804687 23.6953125 89.71484375 C31.85195347 96.2966877 37.46087159 105.40520137 39.125 115.8125 C39.41308483 119.44271806 39.45001831 123.04717437 39.4375 126.6875 C39.45361328 127.61691406 39.46972656 128.54632812 39.48632812 129.50390625 C39.49440869 141.09143774 35.97732281 151.41082122 28.0859375 160.04296875 C12.10457294 175.09255763 -10.09616393 176.50017208 -30.97216797 175.94873047 C-44.66746858 175.30600736 -60.48330566 173.00834717 -72.875 166.8125 C-73.92188744 159.99733206 -74.16887818 153.13377897 -74.4375 146.25 C-74.4799585 145.20457031 -74.52241699 144.15914062 -74.56616211 143.08203125 C-74.88778689 134.65377938 -74.98662003 126.24601308 -74.875 117.8125 C-71.575 117.8125 -68.275 117.8125 -64.875 117.8125 C-64.36710937 119.12863281 -63.85921875 120.44476562 -63.3359375 121.80078125 C-53.99286082 146.29682005 -53.99286082 146.29682005 -34.390625 162.71875 C-25.9867976 166.372588 -15.31514461 166.03408078 -6.75 163.0625 C0.37393203 160.00637531 3.84617075 156.62225543 7.109375 149.58984375 C10.07866609 141.46997464 9.74794367 133.65098779 6.125 125.8125 C-0.82581024 113.61721561 -19.22714316 107.45453638 -31.36132812 101.61621094 C-41.51738511 96.72186396 -51.09983007 91.97654247 -59.875 84.8125 C-61.14150391 83.86890625 -61.14150391 83.86890625 -62.43359375 82.90625 C-70.93344061 75.61678133 -74.40601974 64.89519362 -75.6875 54.125 C-76.33556436 43.64795949 -75.14028324 33.01699514 -69.875 23.8125 C-69.2975 22.801875 -68.72 21.79125 -68.125 20.75 C-58.12208383 7.69063723 -45.05694612 2.04585679 -29.125 -0.875 C-19.32011134 -1.80409227 -9.72427654 -1.3783926 0 0 Z " fill="#002140" transform="translate(2884.875,1013.1875)"/>
<path d="M0 0 C1.8250708 0.00809692 1.8250708 0.00809692 3.68701172 0.01635742 C17.95340757 0.25378659 30.94172088 3.24929428 44.5 7.4375 C44.78913907 12.07795134 45.07377114 16.71865093 45.35449219 21.35961914 C45.45030303 22.93358553 45.54727814 24.50748155 45.64550781 26.08129883 C46.19394605 34.88149397 46.62547778 43.61484365 46.5 52.4375 C43.2 52.4375 39.9 52.4375 36.5 52.4375 C36.13648438 51.39851563 35.77296875 50.35953125 35.3984375 49.2890625 C30.59519314 35.84320737 24.71106558 21.92495225 11.73828125 14.46875 C2.20199259 10.07506727 -6.74013586 9.37440482 -16.78125 12.33984375 C-22.81585188 14.77622755 -27.00623753 18.8773933 -30 24.625 C-32.60225626 31.40243187 -32.57175544 38.99335987 -30.3125 45.875 C-25.30588647 55.71558522 -14.90092828 61.04384922 -5.26171875 65.5546875 C-3.28707289 66.50122598 -1.31246469 67.44784302 0.66210938 68.39453125 C3.73436621 69.85438582 6.80833723 71.31053229 9.88354492 72.76416016 C31.72543827 83.11668158 31.72543827 83.11668158 40.5 90.4375 C41.37688477 91.12561768 42.25376953 91.81373535 43.15722656 92.52270508 C51.16584876 99.0683099 55.76847374 109.47210491 57.25 119.5625 C57.3325 120.84125 57.415 122.12 57.5 123.4375 C57.5515625 124.0975 57.603125 124.7575 57.65625 125.4375 C58.19782148 137.71312026 54.24658687 148.87812091 47.8125 159.125 C33.28952168 173.64797832 14.86512425 176.70185266 -4.8125 176.8125 C-46.35718163 176.58031837 -46.35718163 176.58031837 -55.5 167.4375 C-55.73216306 164.91537362 -55.90416071 162.41471209 -56.03515625 159.88671875 C-56.07813339 159.11753616 -56.12111053 158.34835358 -56.16539001 157.55586243 C-56.25583429 155.91749197 -56.34394183 154.27899115 -56.42993164 152.64038086 C-56.55995457 150.17329763 -56.69828354 147.70679158 -56.83789062 145.24023438 C-57.31211818 136.6272277 -57.60464697 128.06738658 -57.5 119.4375 C-54.2 119.4375 -50.9 119.4375 -47.5 119.4375 C-47.231875 120.118125 -46.96375 120.79875 -46.6875 121.5 C-36.56402223 147.33411911 -36.56402223 147.33411911 -15.6875 164.25 C-6.4997618 167.2647266 3.89714135 167.42959608 12.79296875 163.3984375 C19.25384988 159.64070176 23.11731406 155.36727899 25.375 148.25 C27.14456885 140.75475725 26.93231864 133.787105 23.625 126.75 C14.77832411 112.84105957 -6.05961868 106.08353406 -20.2590332 99.10522461 C-34.82421716 91.93426034 -49.29588472 84.24059658 -55.31811523 68.26757812 C-57.41117115 61.97039356 -58.01061479 56.17474624 -57.9375 49.5625 C-57.92992676 48.59868408 -57.92235352 47.63486816 -57.91455078 46.6418457 C-57.60390118 33.19434597 -53.1247236 22.63560674 -43.4375 13.25 C-31.1695804 2.91695363 -15.61353974 -0.13383034 0 0 Z " fill="#002140" transform="translate(1250.5,1345.5625)"/>
<path d="M0 0 C0 10.89 0 21.78 0 33 C6.10182893 32.90269849 12.20303605 32.79973963 18.30444336 32.68261719 C20.37697673 32.64450312 22.44957229 32.60962067 24.5222168 32.578125 C27.51373415 32.53209059 30.50482977 32.47416187 33.49609375 32.4140625 C34.87008583 32.39673569 34.87008583 32.39673569 36.27183533 32.37905884 C37.15206863 32.35918915 38.03230194 32.33931946 38.93920898 32.31884766 C39.70087875 32.30552399 40.46254852 32.29220032 41.24729919 32.2784729 C45.21754345 31.87682902 49.10451734 30.86566281 53 30 C53 38.91 53 47.82 53 57 C35.51 57 18.02 57 0 57 C0.11998556 72.95419323 0.11998556 72.95419323 0.2578125 88.90820312 C0.31801826 95.4193217 0.37617651 101.93041173 0.421875 108.44165039 C0.45886762 113.69371235 0.50526502 118.94561619 0.55806351 124.19754219 C0.57653337 126.19686662 0.59166839 128.19622486 0.60334396 130.19560051 C0.62033374 133.00548213 0.64939847 135.81500744 0.68115234 138.62475586 C0.68331253 139.44331558 0.68547272 140.26187531 0.68769836 141.10523987 C0.81523151 149.99390299 2.23686266 157.99850257 8 165 C17.10632646 172.36256182 27.83999552 172.40497409 39.0390625 171.515625 C44.2052267 170.84310658 48.36131507 169.27218393 53 167 C55.625 165.78515625 55.625 165.78515625 58 165 C60.3125 166.375 60.3125 166.375 62 168 C60.24575925 176.732649 53.03468474 182.02748852 46.13671875 186.95703125 C30.67660253 197.02632238 11.93283563 199.39042169 -6 195.875 C-14.74206695 193.53941657 -22.06928465 188.66840904 -27 181 C-35.17863698 165.75592941 -34.28064631 148.97535019 -34.1953125 132.1953125 C-34.19157473 130.01813895 -34.18873138 127.84096369 -34.18673706 125.66378784 C-34.1791607 119.97901633 -34.15956482 114.29434969 -34.1373291 108.60961914 C-34.11674034 102.79054177 -34.10770768 96.97144718 -34.09765625 91.15234375 C-34.07631236 79.76817607 -34.04118022 68.38411323 -34 57 C-42.25 57 -50.5 57 -59 57 C-59 50 -59 50 -57.72167969 48.18652344 C-57.12774414 47.74856445 -56.53380859 47.31060547 -55.921875 46.859375 C-54.93151245 46.09850586 -54.93151245 46.09850586 -53.92114258 45.32226562 C-53.20466553 44.80341797 -52.48818848 44.28457031 -51.75 43.75 C-50.26723718 42.61235878 -48.78678713 41.47169723 -47.30859375 40.328125 C-46.57366699 39.76673828 -45.83874023 39.20535156 -45.08154297 38.62695312 C-40.10528432 34.73746361 -35.55789326 30.3654323 -31 26 C-30.46777832 25.49500977 -29.93555664 24.99001953 -29.38720703 24.46972656 C-22.17858631 17.59732488 -16.00328578 10.71773156 -10.51171875 2.38671875 C-8 0 -8 0 0 0 Z " fill="#002140" transform="translate(2728,992)"/>
<path d="M0 0 C0 10.89 0 21.78 0 33 C6.10182893 32.90269849 12.20303605 32.79973963 18.30444336 32.68261719 C20.37697673 32.64450312 22.44957229 32.60962067 24.5222168 32.578125 C27.51373415 32.53209059 30.50482977 32.47416187 33.49609375 32.4140625 C34.87008583 32.39673569 34.87008583 32.39673569 36.27183533 32.37905884 C37.15206863 32.35918915 38.03230194 32.33931946 38.93920898 32.31884766 C39.70087875 32.30552399 40.46254852 32.29220032 41.24729919 32.2784729 C45.21754345 31.87682902 49.10451734 30.86566281 53 30 C53 38.91 53 47.82 53 57 C35.51 57 18.02 57 0 57 C0.09094579 73.08314062 0.09094579 73.08314062 0.20898438 89.16601562 C0.26317705 95.73182994 0.31429215 102.29756128 0.34643555 108.86352539 C0.3725697 114.16103736 0.41304305 119.45826851 0.46318626 124.7556057 C0.47978682 126.77001624 0.49134328 128.78447529 0.49761391 130.79894447 C-0.07327551 149.49746699 -0.07327551 149.49746699 8.1328125 165.56640625 C18.10601208 173.22365362 31.1827579 172.53833921 43 171 C46.53090971 169.98095264 49.70784376 168.61260888 53 167 C55.625 165.78515625 55.625 165.78515625 58 165 C60.3125 166.375 60.3125 166.375 62 168 C59.53724539 177.42211174 51.16028132 183.97956046 43.125 188.9375 C27.35281775 197.50130208 8.21601262 199.67303583 -9.12890625 195.0390625 C-17.63657118 191.96009805 -24.18642324 186.31453388 -28.40625 178.34375 C-34.97007743 163.8422708 -34.27353121 148.65678824 -34.1953125 133.07421875 C-34.19157559 130.87319569 -34.18873182 128.67217096 -34.18673706 126.47114563 C-34.179154 120.71895639 -34.15955208 114.9668705 -34.1373291 109.21472168 C-34.11675505 103.32870887 -34.10771078 97.44267914 -34.09765625 91.55664062 C-34.07630049 80.03770805 -34.0411626 68.51887884 -34 57 C-42.25 57 -50.5 57 -59 57 C-59 50 -59 50 -57.72167969 48.18652344 C-57.12774414 47.74856445 -56.53380859 47.31060547 -55.921875 46.859375 C-55.26155273 46.35204834 -54.60123047 45.84472168 -53.92089844 45.32202148 C-52.84630371 44.54387085 -52.84630371 44.54387085 -51.75 43.75 C-50.26852044 42.6136862 -48.78937315 41.47432562 -47.3125 40.33203125 C-46.57773438 39.77080566 -45.84296875 39.20958008 -45.0859375 38.63134766 C-40.10851201 34.73865605 -35.56655276 30.36096443 -31 26 C-30.5054834 25.53271484 -30.0109668 25.06542969 -29.50146484 24.58398438 C-24.68978287 20.01790671 -20.01760388 15.488857 -16.08203125 10.12890625 C-15.60580322 9.48348877 -15.1295752 8.83807129 -14.63891602 8.1730957 C-13.73557661 6.92233028 -12.85551992 5.6543003 -12.00366211 4.36791992 C-8.13508549 -1.02947301 -7.59003359 0 0 0 Z " fill="#002140" transform="translate(1382,992)"/>
<path d="M0 0 C0 10.56 0 21.12 0 32 C6.47821952 31.90308176 12.95579672 31.80036022 19.43359375 31.68261719 C21.63731247 31.64433114 23.84109361 31.60947763 26.04492188 31.578125 C29.21246652 31.5324667 32.37958162 31.47447298 35.546875 31.4140625 C36.53242371 31.40251129 37.51797241 31.39096008 38.53338623 31.37905884 C39.4540387 31.35918915 40.37469116 31.33931946 41.32324219 31.31884766 C42.53569611 31.29886215 42.53569611 31.29886215 43.77264404 31.2784729 C46.2276435 30.9715391 47.81932003 30.1277018 50 29 C50.99 29 51.98 29 53 29 C53 37.91 53 46.82 53 56 C35.51 56 18.02 56 0 56 C0.09094579 72.08314062 0.09094579 72.08314062 0.20898438 88.16601562 C0.26317705 94.73182994 0.31429215 101.29756128 0.34643555 107.86352539 C0.3725697 113.16103736 0.41304305 118.45826851 0.46318626 123.7556057 C0.47978682 125.77001624 0.49134328 127.78447529 0.49761391 129.79894447 C0.10409836 147.36863485 0.10409836 147.36863485 7 163 C7 163.66 7 164.32 7 165 C19.7763254 171.76931799 33.8654349 173.18376663 47.69921875 168.94140625 C49.86391847 168.05568022 51.50974405 167.08053925 53.375 165.6875 C56 164 56 164 58.8125 164.5 C61 166 61 166 61.8359375 167.80078125 C62.1424374 171.90933945 59.09573205 174.35353247 56.56640625 177.3359375 C45.5449864 188.77674167 31.45535111 195.6822027 15.546875 196.3359375 C-10.71303019 196.7443202 -10.71303019 196.7443202 -21.22265625 187.87890625 C-32.48787929 175.96995618 -34.17642993 160.69753283 -34.11352539 145.00390625 C-34.11367142 144.03713455 -34.11381744 143.07036285 -34.1139679 142.07429504 C-34.11327558 138.90367325 -34.10551527 135.73311144 -34.09765625 132.5625 C-34.09578965 130.35432975 -34.09436689 128.14615909 -34.09336853 125.93798828 C-34.08956243 120.1446619 -34.07974851 114.35136085 -34.06866455 108.55804443 C-34.05840934 102.63896019 -34.05386212 96.71987183 -34.04882812 90.80078125 C-34.03812445 79.20050795 -34.02054318 67.60026005 -34 56 C-42.25 56 -50.5 56 -59 56 C-59 49 -59 49 -56.578125 46.515625 C-55.48292709 45.74000005 -54.37230186 44.98586075 -53.25 44.25 C-52.03836399 43.38612397 -50.83009815 42.51750435 -49.625 41.64453125 C-48.70654297 40.98638428 -48.70654297 40.98638428 -47.76953125 40.31494141 C-33.91181236 30.01724908 -19.83350396 16.06553209 -10.15234375 1.80859375 C-8 0 -8 0 0 0 Z " fill="#002140" transform="translate(1382,1326)"/>
<path d="M0 0 C2.31 0 4.62 0 7 0 C7 10.56 7 21.12 7 32 C13.58399874 31.90295114 20.16738489 31.80014692 26.75097656 31.68261719 C28.98952791 31.64439012 31.22813937 31.60952639 33.46679688 31.578125 C36.68902026 31.53233852 39.91083207 31.47436586 43.1328125 31.4140625 C44.12991241 31.40251129 45.12701233 31.39096008 46.15432739 31.37905884 C47.09484955 31.35918915 48.0353717 31.33931946 49.00439453 31.31884766 C50.23683395 31.29886215 50.23683395 31.29886215 51.49417114 31.2784729 C54.64899789 31.01645714 54.64899789 31.01645714 60 29 C60 37.91 60 46.82 60 56 C42.51 56 25.02 56 7 56 C7.12046332 69.7793961 7.12046332 69.7793961 7.2578125 83.55859375 C7.3177069 89.19316238 7.37578616 94.82770166 7.421875 100.46240234 C7.45923382 105.01425745 7.50571688 109.56594256 7.55806351 114.11764908 C7.57634301 115.83879688 7.591544 117.55998073 7.60334396 119.28118515 C7.66642477 128.17918851 7.95258384 136.98711931 8.89306641 145.84033203 C8.96890646 146.57598326 9.04474651 147.31163448 9.12288475 148.06957817 C9.92826163 154.93415537 11.58555661 160.87630616 16.7890625 165.63671875 C26.32121397 172.26365274 39.13257943 172.31603983 50.19921875 170.46484375 C55.5191149 169.13668414 59.68380643 167.38296253 64 164 C66 165 68 166 70 167 C67.97693536 175.9913984 60.96343863 181.5251515 53.59765625 186.40234375 C37.95468498 196.02335916 20.07587331 198.82736567 1.94140625 195.34375 C-7.24938477 192.83224998 -14.16484904 188.27541591 -19.375 180.25 C-25.07249772 169.8808698 -26.15900438 158.56212705 -26.11352539 146.93383789 C-26.11367142 145.94770508 -26.11381744 144.96157227 -26.1139679 143.94555664 C-26.1132744 140.70456702 -26.10550845 137.46363576 -26.09765625 134.22265625 C-26.09579007 131.96821626 -26.09436711 129.71377587 -26.09336853 127.45933533 C-26.08955912 121.53940705 -26.07974232 115.6195035 -26.06866455 109.69958496 C-26.05841651 103.65324233 -26.05386365 97.60689569 -26.04882812 91.56054688 C-26.0381186 79.70701867 -26.02053459 67.85351526 -26 56 C-34.25 56 -42.5 56 -51 56 C-51 49 -51 49 -48.359375 46.296875 C-47.17087493 45.42756056 -45.96653178 44.57963272 -44.75 43.75 C-43.44888338 42.79566146 -42.15075344 41.8372391 -40.85546875 40.875 C-39.87586182 40.15570312 -39.87586182 40.15570312 -38.87646484 39.421875 C-33.92221799 35.66783731 -29.4699785 31.30860743 -25 27 C-24.39478516 26.41669922 -23.78957031 25.83339844 -23.16601562 25.23242188 C-15.22769576 17.53490039 -7.8001055 9.73313041 -1 1 C-0.67 0.67 -0.34 0.34 0 0 Z " fill="#002140" transform="translate(2163,1326)"/>
<path d="M0 0 C24.75 0 49.5 0 75 0 C75 3.96 75 7.92 75 12 C68.4 13.32 61.8 14.64 55 16 C55.61818604 17.5277002 56.23637207 19.05540039 56.87329102 20.62939453 C68.32397842 48.93411748 79.75128283 77.24552677 90.90364075 105.66949463 C92.91319807 110.7887604 94.94680282 115.89809283 97 121 C99.39967813 117.4004828 100.59300687 113.66218344 101.94921875 109.59375 C102.23876938 108.73762619 102.52832001 107.88150238 102.8266449 106.99943542 C103.45472684 105.14138697 104.08089635 103.28269121 104.7053833 101.4234314 C106.37891276 96.44189654 108.06672883 91.46520705 109.75390625 86.48828125 C110.10201355 85.4604805 110.45012085 84.43267975 110.80877686 83.37373352 C115.11527264 70.67874634 119.54983961 58.02865991 123.98706055 45.37890625 C127.40992509 35.61247549 130.75491941 25.82708367 134 16 C126.41 14.68 118.82 13.36 111 12 C111 8.04 111 4.08 111 0 C129.81 0 148.62 0 168 0 C168 3.96 168 7.92 168 12 C157.605 13.98 157.605 13.98 147 16 C146.4831665 17.505625 145.96633301 19.01125 145.43383789 20.5625 C136.18502784 47.49471419 126.90315965 74.41223429 117.35528564 101.24023438 C108.74570089 125.43870134 100.36859419 149.71733362 92 174 C89.03 174 86.06 174 83 174 C73.67495829 152.291474 64.78831366 130.40612768 55.87960815 108.52436829 C53.01468921 101.48811057 50.14443211 94.45405968 47.26953125 87.421875 C46.89215317 86.49736542 46.51477509 85.57285583 46.1259613 84.62033081 C44.26735835 80.07008488 42.39893665 75.52436188 40.50952148 70.98681641 C37.14967175 62.89246718 33.8786666 54.79986878 30.95245361 46.53701782 C29.65168463 42.87880863 28.29988181 39.24042764 26.94396973 35.60235596 C26.32415711 33.89364326 25.73000456 32.17536016 25.16442871 30.44793701 C22.44708902 21.28074257 22.44708902 21.28074257 15.88964844 14.89892578 C10.69122691 13.09377126 5.46723011 12.4147151 0 12 C0 8.04 0 4.08 0 0 Z " fill="#002140" transform="translate(849,1018)"/>
<path d="M0 0 C24.75 0 49.5 0 75 0 C75 3.63 75 7.26 75 11 C70.25440648 12.27765979 65.55554865 13.27930097 60.703125 14.0703125 C59.09679199 14.33352295 59.09679199 14.33352295 57.45800781 14.60205078 C56.64686523 14.73337402 55.83572266 14.86469727 55 15 C59.807374 27.02500659 64.6173606 39.04895213 69.43780518 51.06872559 C71.22398526 55.5226672 73.00882942 59.97714387 74.79341507 64.43172455 C76.09199404 67.67294955 77.39124048 70.91390396 78.69189453 74.15429688 C84.93758176 89.71605768 91.10391624 105.30159597 97 121 C100.54145021 112.794288 103.64367202 104.52124312 106.4765625 96.046875 C107.10077345 94.19781911 107.72498526 92.3487635 108.34923744 90.49972153 C109.22194617 87.9111893 110.09070549 85.32133782 110.9596405 82.73153687 C112.74355741 77.41877415 114.53661871 72.10908283 116.32771301 66.79873657 C116.98933694 64.83657883 117.6503936 62.87423062 118.31140137 60.91186523 C120.76421486 53.63409877 123.2392146 46.36465263 125.7578125 39.109375 C126.02401398 38.34171814 126.29021545 37.57406128 126.56448364 36.78314209 C127.73808201 33.40235865 128.91729511 30.02366331 130.10400391 26.64746094 C130.49765137 25.51598633 130.89129883 24.38451172 131.296875 23.21875 C131.63041992 22.26935547 131.96396484 21.31996094 132.30761719 20.34179688 C133.14176502 17.92751977 133.14176502 17.92751977 133 15 C132.40461426 14.91435791 131.80922852 14.82871582 131.19580078 14.74047852 C128.50500371 14.35138747 125.81500768 13.95700999 123.125 13.5625 C122.18785156 13.42779297 121.25070312 13.29308594 120.28515625 13.15429688 C119.38925781 13.02216797 118.49335937 12.89003906 117.5703125 12.75390625 C116.74289551 12.63345947 115.91547852 12.5130127 115.06298828 12.38891602 C113 12 113 12 111 11 C111 7.37 111 3.74 111 0 C129.81 0 148.62 0 168 0 C168 3.63 168 7.26 168 11 C164.27498618 12.00288834 160.79034593 12.93245768 156.9375 13.26171875 C155.3596875 13.41060547 155.3596875 13.41060547 153.75 13.5625 C152.25726562 13.65724609 152.25726562 13.65724609 150.734375 13.75390625 C146.38536682 15.7358114 145.68257111 19.70209716 144 24 C142.58326762 27.81313363 141.25618007 31.65324453 139.9453125 35.50390625 C139.56734528 36.60312912 139.18937805 37.70235199 138.79995728 38.83488464 C137.99132238 41.18786915 137.18447647 43.5414691 136.37927246 45.89562988 C134.67720544 50.87162902 132.96631665 55.84457942 131.2557373 60.81765747 C130.39244671 63.32750376 129.52957242 65.83749328 128.66711426 68.34762573 C125.06479954 78.82805492 121.42038741 89.29324443 117.75 99.75 C116.92023652 102.11512474 116.09054572 104.48027496 115.26086426 106.84542847 C114.70779395 108.42205248 114.15465294 109.9986517 113.60144043 111.57522583 C111.37479358 117.92369118 109.15868633 124.2758024 106.9453125 130.62890625 C106.60467773 131.60646881 106.26404297 132.58403137 105.91308594 133.59121704 C104.57802338 137.42296577 103.24306484 141.25474988 101.9095459 145.08703613 C95.37827856 163.8562476 95.37827856 163.8562476 92 173 C89.03 173 86.06 173 83 173 C79.75767709 165.98015861 76.67206431 158.92054359 73.76953125 151.75390625 C73.18795006 150.32596237 73.18795006 150.32596237 72.59461975 148.86917114 C71.33191724 145.76775533 70.07224149 142.66511955 68.8125 139.5625 C67.92034207 137.37009379 67.02792253 135.17779402 66.13525391 132.9855957 C64.76452318 129.61925313 63.39396448 126.2528416 62.02423096 122.88609314 C57.65528671 112.14743628 53.2672465 101.41664243 48.875 90.6875 C47.41267423 87.1146186 45.95048021 83.54168329 44.48828125 79.96875 C44.1263266 79.08438263 43.76437195 78.20001526 43.39144897 77.28884888 C41.00921663 71.46783831 38.6287924 65.64609101 36.24945068 59.82389832 C34.58774785 55.75777758 32.92562498 51.6918286 31.26348877 47.62588501 C30.47141239 45.68796068 29.67953774 43.74995387 28.88787842 41.81185913 C27.79167319 39.12825978 26.69474014 36.44495899 25.59765625 33.76171875 C25.27661423 32.97522949 24.9555722 32.18874023 24.62480164 31.37841797 C24.32201797 30.63825439 24.01923431 29.89809082 23.70727539 29.13549805 C23.42216095 28.43733978 23.13704651 27.73918152 22.84329224 27.01986694 C22.01863074 25.04462463 21.14903532 23.09373245 20.27514648 21.13989258 C19 18 19 18 19 15 C17.71222656 14.79503906 16.42445313 14.59007812 15.09765625 14.37890625 C13.41923637 14.10698348 11.7408528 13.83483649 10.0625 13.5625 C9.21236328 13.42779297 8.36222656 13.29308594 7.48632812 13.15429688 C6.67744141 13.02216797 5.86855469 12.89003906 5.03515625 12.75390625 C4.2862915 12.63345947 3.53742676 12.5130127 2.76586914 12.38891602 C1 12 1 12 0 11 C0 7.37 0 3.74 0 0 Z " fill="#002140" transform="translate(849,1352)"/>
<path d="M0 0 C0 52.47 0 104.94 0 159 C4.62 159.33 9.24 159.66 14 160 C17.34508249 160.60496173 20.68518569 161.24663311 24 162 C24 165.96 24 169.92 24 174 C23.04859131 173.96970703 22.09718262 173.93941406 21.11694336 173.90820312 C17.51056985 173.7940114 13.90410469 173.68296181 10.29760742 173.57275391 C8.75103223 173.52507837 7.20448137 173.47660495 5.65795898 173.42724609 C-10.39487027 172.91597626 -26.38667124 172.97083229 -42.4375 173.5 C-43.9589775 173.54839367 -45.48046188 173.59657173 -47.00195312 173.64453125 C-50.66805093 173.76054878 -54.33404852 173.87943691 -58 174 C-58 170.04 -58 166.08 -58 162 C-55.29172996 161.52047335 -52.58338656 161.04136769 -49.875 160.5625 C-49.11445312 160.42779297 -48.35390625 160.29308594 -47.5703125 160.15429688 C-46.82265625 160.02216797 -46.075 159.89003906 -45.3046875 159.75390625 C-44.2835083 159.57323608 -44.2835083 159.57323608 -43.24169922 159.38891602 C-40.49673311 158.91268741 -37.74806455 158.45801076 -35 158 C-35 118.73 -35 79.46 -35 39 C-41.6 35.37 -48.2 31.74 -55 28 C-56 27 -56 27 -56.0625 23.4375 C-56.041875 22.303125 -56.02125 21.16875 -56 20 C-47.04443405 15.80657031 -37.94700011 11.97011569 -28.80151367 8.21411133 C-27.13441564 7.52650493 -25.46970463 6.83308406 -23.80737305 6.1340332 C-21.37307347 5.11088718 -18.93178949 4.10638932 -16.48828125 3.10546875 C-15.7547493 2.79304733 -15.02121735 2.48062592 -14.26545715 2.15873718 C-13.56079819 1.87456436 -12.85613922 1.59039154 -12.13012695 1.29760742 C-11.52376907 1.04621506 -10.91741119 0.79482269 -10.29267883 0.53581238 C-8 0 -8 0 0 0 Z " fill="#002140" transform="translate(1518,1011)"/>
<path d="M0 0 C4.96600512 2.83484503 8.23507897 6.88967827 11.125 11.75 C12.89045943 19.34147554 12.08964122 25.39740223 8.31640625 32.234375 C5.3202098 36.44847674 1.66849322 38.79800226 -3.25 40.4375 C-10.56511362 41.09856953 -17.31922358 41.20589707 -23.25 36.4375 C-29.15583661 30.01474115 -30.55871664 25.03997873 -30.46484375 16.3828125 C-30.09796095 11.3531828 -28.21749411 8.59849293 -25.0625 4.8125 C-17.61766682 -1.47424802 -9.323048 -4.10996964 0 0 Z " fill="#002140" transform="translate(1510.25,917.5625)"/>
</svg>
