<svg width="601" height="152" viewBox="0 0 601 152" fill="none" xmlns="http://www.w3.org/2000/svg">
<g clip-path="url(#clip0_14_147)">
<path d="M37.5 147.2C34 148.3 29.5 149.5 24.3 149.5C13 149.5 0.900024 141.5 0.900024 126.3C0.900024 110.1 14.4 103.5 25.6 103.5C30 103.5 33.5 104.7 34.8 105.2C35.4 105.4 36.6 105.8 37.9 105.8C38.1 105.8 38.9 105.6 39.2 105.6C39.5 105.6 39.6 105.9 39.6 105.9C39.6 106 39.3 107.7 39.1 107.9C38.5 109.9 38.1 112.3 37.8 114.5C36.9 114.4 36.8 113.9 36.8 113C36.8 111.1 36.5 110.5 36.2 110C35.1 108.2 29.6 105.3 24.2 105.3C14.5 105.3 6.70003 112.9 6.70003 126.2C6.70003 143.3 20.3 147.9 25.5 147.9C33.2 147.9 35.8 143.8 38.1 139.6C38.5 138.8 38.7 138.6 39 138.6C39.3 138.6 39.6 138.7 39.6 139.2C39.6 139.8 39.1 141.5 39 142L37.5 147.2ZM82 130.5L74.8 111C74.1 109 73.5 107.5 72.5 103.6H71.4C70 108.7 67.7 114 65.7 118.8L60.2 132.1C59.2 135 55 145.1 53.3 146.5C53.2 146.7 52.1 147.6 50.2 148.1V149.1C51.9 149 54 148.8 56.4 148.8C58.1 148.8 59.3 148.9 60.5 148.9C61.6 149 62.4 149.1 63.2 149.3V148.2C58.4 147.5 57.7 146.3 57.7 144.9C57.7 144 58.1 143.1 59.4 139.9L61.9 133.5C63.9 133.1 66.9 133 69 133.1H71.7C73.7 133.1 76.2 133.1 78.1 133.4L80.6 140.3C80.9 140.9 82.1 144.4 82.1 145.8C82.1 147.4 80.1 147.8 78.7 148.1V149.2C79.8 149.1 82.7 148.8 86.8 148.8C88.3 148.8 89.2 148.8 90 148.9C90.8 148.9 91.5 149 92.2 149V147.8C90.8 147.7 89.3 147.4 88.6 146.2C87 144.1 84.2 136.3 82 130.5ZM68 118C68.3 117.2 69.3 114.7 70.1 112.9C70.7 114.1 72.9 119.2 73.3 120.4L75.8 126.8C76.1 127.5 77.1 130.2 77.3 131C76.2 131.1 72.8 131.1 72.2 131.1L69.1 131.2C69 131.2 65.7 131.2 63.2 130.8C63.5 130.2 63.5 130 64.2 128.1L68 118ZM112.1 143.2L112 132.5C113.3 132.7 114.2 132.9 116.4 132.9C129.1 132.9 135.7 125.7 135.7 118.5C135.7 112.4 129.7 103.9 116.4 103.9C115.7 103.9 115 103.9 114.2 104L112 104.1C110.7 104.2 109.7 104.2 108.3 104.2C106.6 104.2 103.8 104.1 101.9 104.1C101.8 104.5 101.8 104.7 101.9 105.4C104.1 105.6 105.4 105.8 106.1 106.8C106.7 107.9 106.8 108.7 107.1 116.9C107.3 121.2 107.3 125.6 107.3 129.9C107.3 137.1 107.3 143.9 106.8 145.9C106.6 147.1 105.3 147.5 102.5 148.2V149.4C103.3 149.4 104.3 149.4 105 149.3C105.8 149.2 108.8 148.9 111.4 148.9C112.3 148.9 113.7 149 115 149C116.4 149.1 117.7 149.2 118.5 149.4L118.6 147.8C112.8 147.7 112.2 147.1 112.1 143.2ZM130.1 118.8C130.1 128.4 122.4 130.9 117.5 130.9C115.5 130.9 113.7 130.5 112 130.1L111.9 122.7C111.9 120.1 112.3 108.4 112.3 106.1C113.4 105.8 115 105.5 117 105.5C126 105.6 130.1 112.4 130.1 118.8ZM159 130.3V124.1C159 120.9 159 109.6 160.1 107.4C160.8 106.1 161.9 105.8 165.8 105.8V104.2C165.1 104.2 163.3 104.3 161.3 104.3C159.3 104.4 157.4 104.5 156.3 104.5C155.1 104.5 153.4 104.4 151.6 104.3C149.8 104.2 148.1 104.1 146.8 104.1V105.5C153.4 105.6 153.7 107 153.9 111.7C154.1 117.4 154.2 119.7 154.2 126.6C154.2 130.6 154.2 141.6 153.1 144.7C152.5 146.4 151.6 147.4 146.3 147.7L146.4 149C147.1 149 148.9 148.9 150.9 148.9C152.9 148.9 155 148.8 156.3 148.8C157.1 148.8 159 148.9 160.9 148.9C162.8 149 164.7 149 165.3 149L165.4 147.7C159.1 147.6 159.1 146.4 159 142.2C159 139.5 159 133.3 159 130.3ZM175.9 111.4L177.1 111.7C178.5 108.3 179.1 106.9 188.8 106.9C192 106.9 193.8 107 195.2 107.2C196 109.4 196 112.8 196 125.5C196 132.5 195.8 139.4 195.8 140.2C195.7 140.8 195.5 143.9 195.5 144.1C195.5 146.7 195.3 147.2 190.5 148.3C189.4 148.6 189 148.7 188.4 148.9C188.7 149.7 188.8 150 189.6 150C190 150 190.2 149.9 192 149.6C196 149 197.8 149 199.3 149C199.9 149 201.5 149.1 203 149.2C204.6 149.3 206.1 149.4 206.6 149.4C207 149.4 207.4 149.4 207.9 149.3C208 149.2 208 148.5 208 148.4C208 148.1 207.9 148.1 206.5 148C201 147.3 201 147.3 201 135.4C201 133.1 201.1 121.6 201.1 118.9C201.2 113.9 201.4 110.5 201.5 108.2C201.6 106.9 202 106.9 206.7 106.9C214.7 106.9 216.5 107.9 217.5 108.7C217.4 110 217.4 110.5 217.2 111.8L218.7 111.6C219 110 219.8 106.6 220.6 104.5C220.2 104.2 220 104.1 219.7 103.6C219.1 104.3 218.9 104.6 216.8 104.6C215.7 104.6 209.9 104.7 208.6 104.7H191.3C185.8 104.7 183 104.6 181.4 104.4C179.8 104.2 179.4 103.8 178.7 103.1C177.6 106.9 177.2 108 175.9 111.4ZM255.1 130.5L247.9 111C247.2 109 246.6 107.5 245.6 103.6H244.5C243.1 108.7 240.8 114 238.8 118.8L233.3 132.1C232.2 135 228.1 145.1 226.4 146.5C226.3 146.7 225.2 147.6 223.3 148.1V149.1C225 149 227.1 148.8 229.5 148.8C231.2 148.8 232.4 148.9 233.6 148.9C234.7 149 235.5 149.1 236.3 149.3V148.2C231.5 147.5 230.8 146.3 230.8 144.9C230.8 144 231.2 143.1 232.5 139.9L235 133.5C237 133.1 240 133 242.1 133.1H244.8C246.8 133.1 249.3 133.1 251.2 133.4L253.7 140.3C254 140.9 255.2 144.4 255.2 145.8C255.2 147.4 253.2 147.8 251.8 148.1V149.2C252.9 149.1 255.8 148.8 259.9 148.8C261.4 148.8 262.4 148.8 263.1 148.9C263.9 148.9 264.6 149 265.3 149V147.8C263.9 147.7 262.4 147.4 261.7 146.2C260.1 144.1 257.3 136.3 255.1 130.5ZM241 118C241.4 117.2 242.3 114.7 243.1 112.9C243.7 114.1 245.9 119.2 246.3 120.4L248.8 126.8C249.1 127.5 250.1 130.2 250.3 131C249.2 131.1 245.8 131.1 245.2 131.1L242.1 131.2C242 131.2 238.7 131.2 236.2 130.8C236.5 130.2 236.5 130 237.3 128.1L241 118ZM281.7 119.7L281.6 134.9C281.5 146.4 281.4 147 276.6 148L276.7 149.1H300.7C301.6 149.1 303.6 149.2 304.7 149.2C305.8 149.2 307 149.3 309.4 149.6C310.9 145.8 311.8 141.7 312 140.2L310.9 140.1C310.1 143.1 308.7 144.2 307.9 144.7C306.4 145.6 302.2 147.2 294.9 147.2C288.1 147.2 287.8 146.8 287.2 146.3C286.5 145.6 286.3 143.6 286.3 138.1C286.3 132.7 286.4 125.4 286.6 119.7C286.7 114 286.8 109.3 287.3 108.1C288.1 106.3 290.3 106.2 292.5 106L292.6 104.6C290.8 104.7 288.1 104.7 285.1 104.7C284.4 104.7 283.7 104.6 277.3 104.6V105.8C281.7 105.8 281.7 106.8 281.7 119.7ZM392 128.3V127C387.5 127.4 383.5 127.4 376.3 127.5L376.2 129C376.6 128.9 377.5 128.9 378.4 128.9C384.4 128.9 384.6 129.7 384.6 137.5C384.6 143.7 384.5 143.8 384 144.4C383.2 145.4 379.7 147.7 373.9 147.7C360.8 147.7 353.6 135.2 353.6 126C353.6 116 360.7 105.7 372.6 105.7C380.9 105.7 385.2 110.3 386.8 113.9C387.1 114.6 387.2 114.7 387.5 114.7C387.8 114.7 387.9 114.5 387.9 114.2C387.9 111.7 387 107.9 387 105.4C387 104.5 387 104.1 386.5 104.1C386.1 104.1 384.7 105.7 384.4 105.7C384.1 105.7 382.8 105.2 382.5 105.1C382.1 105 378.6 103.9 374.2 103.9C361 103.9 348.2 112.1 348.2 126.9C348.2 137.3 355.2 149.6 372.7 149.6C375.8 149.6 379.2 149.5 385.8 148.3C386.5 148.2 389.8 147.4 390.6 147.4L390.9 146.6C389.8 145.7 389.4 145.3 389.4 139.3C389.4 131.9 389.5 130.9 389.7 130.1C390.1 129 390.6 128.8 392 128.3ZM418.8 127.8L422.7 133.5C428.6 142.2 435.6 151.2 444.9 151.2C446.6 151.2 446.6 150.9 446.6 150.6C446.6 150.1 446.4 150 446 149.9C439.1 149.4 432.6 139.5 426.1 129.6L424.6 127.3C431.2 124.8 434.1 120.2 434.1 115.8C434.1 110 428.9 104 418.9 104C416.9 104 408.2 104.8 406.5 104.8C405.2 104.8 403.7 104.8 401.9 104.7C401.8 105 401.8 105.3 401.8 105.8C406.5 106.4 406.8 106.5 406.7 120.2V135.5C406.6 146.6 405.9 147.3 403.1 148C401.8 148.4 401.7 148.4 401.7 148.9C401.7 149.3 402 149.4 402.4 149.4C402.8 149.4 403.8 149.3 405.2 149.2C406.5 149.1 408.2 149 409.8 149C410.4 149 411.9 149.1 413.4 149.3C414.8 149.4 416 149.6 416.3 149.6C416.7 149.6 416.8 149.2 416.8 148.9C416.8 148.6 416.7 148.6 416 148.4C412.9 147.6 412.6 147.4 412.1 146.2C411.3 144.4 411.3 138 411.3 135.7L411.4 127.4C413.9 127.8 416.2 127.8 418.8 127.8ZM429 116.5C429 125.9 419.4 125.9 417 125.9C413.8 125.9 412.3 125.5 411.5 125.3C411.5 119.2 411.5 108.6 412.3 106.9C412.8 105.6 416.4 105.3 417.9 105.3C425.8 105.4 429 112.5 429 116.5ZM474.8 103.5C462.4 103.5 451.2 113.8 451.2 126.7C451.2 136.8 459 149.9 473.6 149.9C487.5 149.9 497.3 139.1 497.3 126.6C497.3 112.5 485.8 103.5 474.8 103.5ZM456.3 124.1C456.3 112.6 464.2 106 472.7 106C483.4 106 492.2 116.4 492.2 129.4C492.2 142.1 483.9 147.5 476.6 147.5C465.7 147.4 456.3 136.5 456.3 124.1ZM509.3 104.6L509.2 105.9C513 106.3 513.1 106.3 513.5 107.4C514.3 110 514.4 114.9 514.4 120.2C514.4 122.5 514.3 132.9 514.3 135.3C514.3 146.2 523.2 149.8 531.6 149.8C535.3 149.8 545.8 149.2 549.3 142.6C551.5 138.4 552.1 130.3 552.4 112.7C552.5 106.7 552.5 106.3 556.9 106.1V104.7C554.4 104.6 549.6 104.6 547 104.6C546.3 104.6 544.6 104.7 543.6 104.8L543.7 106C548.4 106 549.7 106 549.7 118.4C549.7 124.2 549.6 135.1 547.8 140.2C545.8 146.4 536.6 147.5 533.3 147.5C531.1 147.5 521.4 147.1 519.7 138.8C519.1 135.8 519 130.9 519 124.3C519 121.1 519 110 520.1 108.1C520.7 107 521.5 106.2 526 105.6L525.6 104.5C520 104.8 519.9 104.8 514.2 104.8C512.6 104.7 511 104.7 509.3 104.6ZM577.2 143.2L577.1 132.5C578.4 132.7 579.3 132.9 581.5 132.9C594.1 132.9 600.8 125.7 600.8 118.5C600.8 112.4 594.8 103.9 581.5 103.9C580.8 103.9 580.1 103.9 579.3 104L577.1 104.1C575.8 104.2 574.8 104.2 573.4 104.2C571.7 104.2 568.9 104.1 567 104.1C566.9 104.5 566.9 104.7 567 105.4C569.2 105.6 570.5 105.8 571.2 106.8C571.8 107.9 571.9 108.7 572.3 116.9C572.5 121.2 572.5 125.6 572.5 129.9C572.5 137.1 572.5 143.9 572 145.9C571.8 147.1 570.5 147.5 567.7 148.2V149.4C568.5 149.4 569.4 149.4 570.2 149.3C571 149.2 574 148.9 576.6 148.9C577.5 148.9 578.9 149 580.2 149C581.6 149.1 582.9 149.2 583.7 149.4L583.8 147.8C577.9 147.7 577.2 147.1 577.2 143.2ZM595.1 118.8C595.1 128.4 587.4 130.9 582.5 130.9C580.5 130.9 578.7 130.5 577 130.1L576.9 122.7C576.9 120.1 577.3 108.4 577.3 106.1C578.4 105.8 579.9 105.5 582 105.5C591 105.6 595.1 112.4 595.1 118.8Z" fill="#68737A"/>
<path d="M33.8 44.3996C29 44.3996 24.9 44.2996 20.3 43.5996L20.2 58.4996C20.2 62.6996 20.3 74.0996 21.7 77.3996C22.7 79.5996 23.2 79.7996 28.7 81.3996C29.8 81.7996 30.1 81.7996 30.1 82.2996C30.1 82.7996 30 83.5996 29.2 83.5996C28.7 83.5996 26.6 83.2996 24 83.0996C21.4 82.7996 18.6 82.5996 17.6 82.5996C14.7 82.5996 11.7 82.6996 9.3 82.9996C6.8 83.0996 4.9 83.3996 4.3 83.3996C3.5 83.3996 3 83.0996 3 82.4996C3 81.5996 3.3 81.4996 5.5 80.7996C10.4 79.3996 11.8 78.0996 11.9 58.1996V30.5996C12 5.99961 11.5 5.7996 3.1 4.6996C3.2 3.6996 3.2 3.2996 3.4 2.6996C6.7 2.7996 9.4 2.79961 11.7 2.79961C14.8 2.79961 30.6 1.29961 34.1 1.29961C52 1.29961 61.4 12.0996 61.4 22.5996C61.4 30.4996 56.2 38.7996 44.3 43.2996L47.1 47.4996C58.7 65.1996 70.4 83.0996 82.8 83.9996C83.6 84.0996 83.9 84.3996 83.9 85.2996C83.9 85.8996 83.9 86.3996 80.8 86.3996C63.9 86.3996 51.5 70.1996 40.8 54.5996L33.8 44.3996ZM32.1 3.8996C29.5 3.8996 22.9 4.49959 22 6.79959C20.6 9.89959 20.6 28.9996 20.6 39.9996C22.1 40.3996 24.8 40.9996 30.5 40.9996C34.7 40.9996 52 40.9996 52 23.9996C52.1 16.7996 46.4 3.8996 32.1 3.8996ZM171.1 0.599609C190.9 0.599609 211.6 16.7996 211.6 42.0996C211.6 64.6996 194 84.0996 168.9 84.0996C142.5 84.0996 128.5 60.4996 128.5 42.3996C128.5 19.0996 148.7 0.599609 171.1 0.599609ZM174.2 79.5996C187.3 79.5996 202.3 69.8996 202.3 47.0996C202.3 23.6996 186.4 4.9996 167.2 4.9996C152 4.9996 137.8 16.8996 137.8 37.6996C137.7 59.9996 154.7 79.5996 174.2 79.5996ZM318.4 49.2996C322.3 59.5996 327.5 73.6996 330.4 77.5996C331.8 79.5996 334.4 80.1996 336.9 80.3996V82.5996C335.6 82.4996 334.5 82.2996 333 82.2996C331.6 82.1996 329.9 82.1996 327.2 82.1996C319.8 82.1996 314.6 82.6996 312.6 82.7996V80.7996C315.2 80.2996 318.8 79.4996 318.8 76.6996C318.8 74.0996 316.5 67.8996 316 66.6996L311.5 54.1996C308 53.6996 303.4 53.6996 299.9 53.6996H295C291.2 53.5996 285.7 53.7996 282.2 54.4996L277.7 65.9996C275.3 71.6996 274.7 73.3996 274.7 75.0996C274.7 77.6996 275.8 79.7996 284.5 81.0996V83.0996C283 82.7996 281.5 82.6996 279.6 82.4996C277.6 82.3996 275.3 82.1996 272.3 82.1996C267.9 82.1996 264.1 82.4996 261.1 82.6996V80.8996C264.6 79.9996 266.5 78.1996 266.8 77.9996C269.8 75.3996 277.4 57.2996 279.3 52.0996L289.1 28.1996C292.7 19.6996 296.9 10.0996 299.4 0.899597H301.4C303.3 7.8996 304.3 10.5996 305.5 14.1996L318.4 49.2996ZM286.2 44.7996C284.9 48.1996 284.8 48.5996 284.3 49.5996C289 50.3996 294.9 50.3996 295 50.3996L300.7 50.2996C301.8 50.2996 307.9 50.1996 309.9 49.9996C309.4 48.5996 307.8 43.6996 307.1 42.4996L302.7 30.9996C301.9 28.7996 297.9 19.5996 296.9 17.4996C295.5 20.6996 293.8 25.2996 293.1 26.6996L286.2 44.7996ZM421.2 44.3996C416.4 44.3996 412.3 44.2996 407.7 43.5996L407.6 58.4996C407.6 62.6996 407.7 74.0996 409.1 77.3996C410.1 79.5996 410.6 79.7996 416.1 81.3996C417.2 81.7996 417.5 81.7996 417.5 82.2996C417.5 82.7996 417.4 83.5996 416.6 83.5996C416.1 83.5996 414 83.2996 411.4 83.0996C408.8 82.7996 406 82.5996 405 82.5996C402.1 82.5996 399.1 82.6996 396.7 82.9996C394.2 83.0996 392.3 83.3996 391.7 83.3996C390.9 83.3996 390.4 83.0996 390.4 82.4996C390.4 81.5996 390.6 81.4996 392.9 80.7996C397.8 79.3996 399.2 78.0996 399.3 58.1996V30.5996C399.4 5.99961 398.9 5.7996 390.5 4.6996C390.6 3.6996 390.6 3.2996 390.7 2.6996C394 2.7996 396.7 2.79961 399 2.79961C402.2 2.79961 417.9 1.29961 421.4 1.29961C439.3 1.29961 448.7 12.0996 448.7 22.5996C448.7 30.4996 443.5 38.7996 431.6 43.2996L434.4 47.4996C446 65.1996 457.7 83.0996 470.1 83.9996C470.9 84.0996 471.2 84.3996 471.2 85.2996C471.2 85.8996 471.2 86.3996 468.1 86.3996C451.2 86.3996 438.8 70.1996 428.1 54.5996L421.2 44.3996ZM419.6 3.8996C417 3.8996 410.4 4.49959 409.5 6.79959C408.1 9.89959 408.1 28.9996 408.1 39.9996C409.6 40.3996 412.3 40.9996 418 40.9996C422.2 40.9996 439.5 40.9996 439.5 23.9996C439.6 16.7996 433.8 3.8996 419.6 3.8996ZM557.9 57.2996L569.2 66.5996C572.1 68.8996 582.9 77.7996 582.9 79.4996C582.9 80.3996 581.1 80.7996 580.4 80.8996C578.8 81.2996 578.5 81.2996 577.8 81.4996L577.9 83.2996C580.7 82.9996 586.2 82.4996 591.4 82.4996C593.8 82.4996 595.7 82.5996 597.2 82.7996C598.7 82.8996 600 83.1996 601 83.2996L600.9 81.2996C593.2 77.1996 585.7 70.0996 572.8 59.1996L550 39.8996C551.9 37.8996 552.8 36.9996 555.9 33.8996L564.5 25.4996C566.4 23.6996 580.1 10.8996 582.9 8.8996C587.6 5.2996 590.2 4.3996 592.6 4.1996L592.5 1.79961C588.2 2.29961 583.8 2.5996 579.4 2.3996L569.2 2.29961L569.3 4.59961C571.6 4.69961 575.3 4.99959 575.3 7.79959C575.3 9.29959 574.4 10.8996 573.9 11.4996C572.1 13.7996 568.7 17.1996 565.7 20.2996L550.6 35.3996C548.1 37.9996 544.7 41.3996 543.1 42.7996V35.3996C543.1 30.5996 543.6 9.89962 545 7.19962C546.4 4.59962 551.5 3.99961 553.6 3.79961V1.79961C550.7 2.19961 547.6 2.6996 540.9 2.6996C539 2.6996 536 2.5996 533.1 2.3996C530.2 2.2996 527.6 2.09961 526.3 2.09961L526.4 4.29961C534.1 5.29961 534.7 6.29961 534.7 20.0996C535.1 27.4996 535.1 34.9996 535.1 42.3996C535.1 48.4996 534.7 70.1996 533.3 76.1996C532.5 79.7996 530.4 80.4996 525.8 80.8996V83.0996C528.2 82.9996 529.3 82.7996 536 82.7996C539.3 82.7996 542.5 82.7996 545.7 82.8996C548.7 82.9996 551.6 83.1996 553.8 83.4996V81.5996C552.8 81.5996 545.6 80.0996 544.4 76.9996C543.4 73.8996 543.3 50.9996 543.4 45.8996C550.2 50.7996 555.5 55.3996 557.9 57.2996Z" fill="#002D56"/>
</g>
<defs>
<clipPath id="clip0_14_147">
<rect width="601" height="152" fill="white"/>
</clipPath>
</defs>
</svg>
