<?xml version="1.0" encoding="UTF-8"?>
<svg version="1.1" xmlns="http://www.w3.org/2000/svg" width="140" height="69">
<path d="M0 0 C2.3125 0.3125 2.3125 0.3125 3.3125 1.3125 C3.63631508 3.37019762 3.92137747 5.43404877 4.1875 7.5 C4.89741196 12.39409005 5.68676602 16.13519594 8.3125 20.3125 C9.199375 19.94125 10.08625 19.57 11 19.1875 C14.95037908 18.14400364 15.64850528 18.81359307 19.3125 20.3125 C21.89330751 20.3125 24.43456792 20.1877228 27.0078125 19.9921875 C29.3125 20.3125 29.3125 20.3125 31.1171875 22.1328125 C32.3125 24.3125 32.3125 24.3125 32.3125 27.3125 C33.22 26.52875 34.1275 25.745 35.0625 24.9375 C40.81147364 20.23136344 40.81147364 20.23136344 44.3359375 20.421875 C46.33594182 20.66047201 48.32571903 20.98136984 50.3125 21.3125 C50.621875 20.1678125 50.621875 20.1678125 50.9375 19 C52.87144391 13.81351406 55.5910146 9.12216916 58.3125 4.3125 C59.9625 4.9725 61.6125 5.6325 63.3125 6.3125 C65.30220971 13.31973854 62.72966166 17.56191893 59.375 23.75 C58.89353516 24.67232422 58.41207031 25.59464844 57.91601562 26.54492188 C56.7310196 28.80932021 55.52391346 31.06212385 54.3125 33.3125 C56.9525 28.6925 59.5925 24.0725 62.3125 19.3125 C66.3125 20.3125 66.3125 20.3125 68.3125 22.3125 C68.86335162 27.15999424 67.70582242 30.12418576 65.3125 34.3125 C69.35441465 29.82148372 71.74924441 24.72265011 74.3125 19.3125 C77.17974686 19.88594937 78.1739515 20.1739515 80.3125 22.3125 C80.91123581 27.46162794 79.49185819 30.77217044 77.3125 35.3125 C77.910625 34.3225 78.50875 33.3325 79.125 32.3125 C79.846875 31.3225 80.56875 30.3325 81.3125 29.3125 C82.3025 29.3125 83.2925 29.3125 84.3125 29.3125 C84.00743483 35.41380331 81.05529714 38.79965368 77.3125 43.3125 C76.81492187 43.9209375 76.31734375 44.529375 75.8046875 45.15625 C74.65273795 46.5517546 73.48444319 47.93374331 72.3125 49.3125 C72.663125 49.93125 73.01375 50.55 73.375 51.1875 C73.684375 51.88875 73.99375 52.59 74.3125 53.3125 C73.8175 54.3025 73.8175 54.3025 73.3125 55.3125 C71.6625 54.9825 70.0125 54.6525 68.3125 54.3125 C67.83039063 55.02277344 67.34828125 55.73304687 66.8515625 56.46484375 C65.90410156 57.84349609 65.90410156 57.84349609 64.9375 59.25 C64.31101562 60.16652344 63.68453125 61.08304688 63.0390625 62.02734375 C61.16454262 64.50832595 60.35059172 65.15138164 57.32421875 65.62109375 C51.30197171 65.95510073 51.30197171 65.95510073 48.57421875 64.18359375 C46.17920798 61.59968072 45.32756011 59.68900275 45.1875 56.1875 C46.84420913 51.95368778 49.54715162 50.45143444 53.25 48.0625 C55.99212495 47.06536365 58.42078807 47.18105855 61.3125 47.3125 C59.05509377 44.97725218 57.0319239 43.12544927 54.3125 41.3125 C53.19875 41.828125 52.085 42.34375 50.9375 42.875 C49.143125 43.5865625 49.143125 43.5865625 47.3125 44.3125 C45.64583333 43.3125 43.97916667 42.3125 42.3125 41.3125 C41.178125 41.8075 40.04375 42.3025 38.875 42.8125 C37.699375 43.3075 36.52375 43.8025 35.3125 44.3125 C33.30437074 43.32892648 31.30395391 42.32941264 29.3125 41.3125 C27.30437074 42.29607352 25.30395391 43.29558736 23.3125 44.3125 C20.5 43.375 20.5 43.375 18.3125 41.3125 C17.07641816 38.18594004 16.93005104 36.29518137 18.15625 33.14453125 C19.14277249 31.15386979 20.18183388 29.22444185 21.3125 27.3125 C17.2301221 30.78314543 15.33590889 35.79592268 12.93359375 40.4765625 C11.3125 43.3125 11.3125 43.3125 9.3125 44.3125 C6.8375 42.3325 6.8375 42.3325 4.3125 40.3125 C4.91948743 36.18498551 6.35060791 32.9803852 8.3125 29.3125 C4.99905145 30.048359 4.99905145 30.048359 3.48828125 33.47265625 C2.85696852 34.76850869 2.23624601 36.06956229 1.625 37.375 C1.30466797 38.03822266 0.98433594 38.70144531 0.65429688 39.38476562 C-0.1353598 41.02300858 -0.91262362 42.66721454 -1.6875 44.3125 C-4.47942205 44.36630578 -7.2703141 44.40607669 -10.0625 44.4375 C-10.8565625 44.45425781 -11.650625 44.47101562 -12.46875 44.48828125 C-14.54242015 44.50585473 -16.61633241 44.41585168 -18.6875 44.3125 C-21.44677344 41.55322656 -21.20533243 39.10095948 -21.6875 35.3125 C-22.1825 34.8175 -22.1825 34.8175 -22.6875 34.3125 C-23.6775 35.67375 -23.6775 35.67375 -24.6875 37.0625 C-27.78134758 40.72123549 -31.06641536 42.97329479 -35.6875 44.3125 C-40.43657551 44.70891699 -43.68866904 43.92402916 -47.75 41.4375 C-50.67026374 36.72739719 -50.57802736 32.70634457 -49.6875 27.3125 C-46.97418327 19.07692632 -41.92740516 13.16982739 -34.8125 8.375 C-30.68238773 6.97076183 -26.99578161 6.42550085 -22.6875 7.3125 C-19.625 9.8125 -19.625 9.8125 -17.6875 12.3125 C-15.93423802 11.06707942 -14.18502378 9.81595947 -12.4375 8.5625 C-11.46296875 7.86640625 -10.4884375 7.1703125 -9.484375 6.453125 C-6.68210955 4.41478908 -6.68210955 4.41478908 -4.49609375 2.06640625 C-2.6875 0.3125 -2.6875 0.3125 0 0 Z M-1.6875 4.3125 C-2.0175 4.9725 -2.3475 5.6325 -2.6875 6.3125 C-2.0275 6.3125 -1.3675 6.3125 -0.6875 6.3125 C-1.0175 5.6525 -1.3475 4.9925 -1.6875 4.3125 Z M-0.6875 7.3125 C-0.6875 8.9625 -0.6875 10.6125 -0.6875 12.3125 C-0.3575 12.3125 -0.0275 12.3125 0.3125 12.3125 C0.3125 10.6625 0.3125 9.0125 0.3125 7.3125 C-0.0175 7.3125 -0.3475 7.3125 -0.6875 7.3125 Z M0.3125 12.3125 C1.3125 15.3125 1.3125 15.3125 1.3125 15.3125 Z M-35 17.53515625 C-38.3769086 21.09185397 -39.53799818 24.72778068 -40 29.625 C-39.95191129 32.46189068 -39.95191129 32.46189068 -37.6875 34.3125 C-34.13474579 34.86979478 -31.73277361 35.00934907 -28.671875 32.96875 C-26.93844022 31.47489564 -25.28811499 29.94717063 -23.6875 28.3125 C-23.87578772 25.86769921 -23.87578772 25.86769921 -24.6875 23.3125 C-26.65508273 21.95229849 -26.65508273 21.95229849 -28.6875 21.3125 C-28.8125 15.5625 -28.8125 15.5625 -27.6875 13.3125 C-30.92856217 13.3125 -32.64989457 15.45433374 -35 17.53515625 Z M-25.6875 16.3125 C-25.3575 17.3025 -25.0275 18.2925 -24.6875 19.3125 C-24.6875 18.6525 -24.6875 17.9925 -24.6875 17.3125 C-24.0275 16.9825 -23.3675 16.6525 -22.6875 16.3125 C-23.6775 16.3125 -24.6675 16.3125 -25.6875 16.3125 Z M-7.6875 16.3125 C-9.78499995 18.67218744 -10.65655704 19.85866994 -10.875 23.0625 C-10.813125 23.805 -10.75125 24.5475 -10.6875 25.3125 C-8.27130177 25.56280977 -8.27130177 25.56280977 -5.6875 25.3125 C-3.5355563 22.08458445 -3.48663557 21.02849191 -3.6875 17.3125 C-5.0075 16.9825 -6.3275 16.6525 -7.6875 16.3125 Z M1.3125 16.3125 C2.3125 18.3125 2.3125 18.3125 2.3125 18.3125 Z M2.3125 18.3125 C3.3125 20.3125 3.3125 20.3125 3.3125 20.3125 Z M3.3125 20.3125 C3.6425 21.3025 3.9725 22.2925 4.3125 23.3125 C4.3125 22.3225 4.3125 21.3325 4.3125 20.3125 C3.9825 20.3125 3.6525 20.3125 3.3125 20.3125 Z M-23.6875 23.3125 C-22.6875 27.3125 -22.6875 27.3125 -22.6875 27.3125 Z M45.3125 25.3125 C42.55229568 28.07473489 42.55229568 28.07473489 40.3125 31.3125 C40.6425 32.3025 40.9725 33.2925 41.3125 34.3125 C45.59320998 30.53656041 45.59320998 30.53656041 47.3125 25.3125 C46.6525 25.3125 45.9925 25.3125 45.3125 25.3125 Z M-10.6875 29.3125 C-12.74675681 32.40138522 -12.9265374 33.02185927 -12.8125 36.5 C-12.77125 37.758125 -12.73 39.01625 -12.6875 40.3125 C-11.0375 40.3125 -9.3875 40.3125 -7.6875 40.3125 C-9.0075 39.9825 -10.3275 39.6525 -11.6875 39.3125 C-10.23995745 37.86495745 -8.64787087 37.75516439 -6.6875 37.3125 C-7.3475 37.3125 -8.0075 37.3125 -8.6875 37.3125 C-8.6875 36.3225 -8.6875 35.3325 -8.6875 34.3125 C-7.3675 33.9825 -6.0475 33.6525 -4.6875 33.3125 C-5.3475 31.9925 -6.0075 30.6725 -6.6875 29.3125 C-8.0075 29.3125 -9.3275 29.3125 -10.6875 29.3125 Z M30.3125 29.3125 C31.3125 31.3125 31.3125 31.3125 31.3125 31.3125 Z M29.3125 31.3125 C28.6525 32.6325 27.9925 33.9525 27.3125 35.3125 C28.3025 34.9825 29.2925 34.6525 30.3125 34.3125 C29.9825 33.3225 29.6525 32.3325 29.3125 31.3125 Z M74.3125 38.3125 C75.3125 40.3125 75.3125 40.3125 75.3125 40.3125 Z M61.3125 43.3125 C62.3125 45.3125 62.3125 45.3125 62.3125 45.3125 Z M51.3125 54.3125 C51.3125 55.3025 51.3125 56.2925 51.3125 57.3125 C53.72127257 57.19908466 53.72127257 57.19908466 56.3125 56.3125 C58.15684349 53.85134453 58.15684349 53.85134453 59.3125 51.3125 C55.69712395 51.3125 54.20084003 52.20479241 51.3125 54.3125 Z " fill="#221E1F" transform="translate(52.6875,1.6875)"/>
<path d="M0 0 C1.051875 0.391875 2.10375 0.78375 3.1875 1.1875 C3.5175 0.8575 3.8475 0.5275 4.1875 0.1875 C5.85367115 0.14686168 7.52138095 0.144779 9.1875 0.1875 C8.5275 2.8275 7.8675 5.4675 7.1875 8.1875 C8.96456209 5.52190687 10.06298273 3.1594385 11.1875 0.1875 C13.52083333 0.1875 15.85416667 0.1875 18.1875 0.1875 C18.785625 0.001875 19.38375 -0.18375 20 -0.375 C22.1875 -0.8125 22.1875 -0.8125 24.3125 -0.375 C28.59091014 0.46208024 32.84143531 0.26345065 37.1875 0.1875 C36.8575 1.5075 36.5275 2.8275 36.1875 4.1875 C35.5275 4.1875 34.8675 4.1875 34.1875 4.1875 C34.12691406 4.82558594 34.06632812 5.46367188 34.00390625 6.12109375 C33.87822266 7.36052734 33.87822266 7.36052734 33.75 8.625 C33.62818359 9.86056641 33.62818359 9.86056641 33.50390625 11.12109375 C33.1875 13.1875 33.1875 13.1875 32.1875 14.1875 C30.75169394 14.26030964 29.31249502 14.27117423 27.875 14.25 C27.09511719 14.24097656 26.31523438 14.23195313 25.51171875 14.22265625 C24.74472656 14.21105469 23.97773437 14.19945312 23.1875 14.1875 C21.02073318 14.1875 18.85359003 14.19584775 16.6875 14.25 C14.1875 14.1875 14.1875 14.1875 12.25 13.625 C10.03189341 13.00985103 10.03189341 13.00985103 7.1875 13.8125 C4.1875 14.1875 4.1875 14.1875 1.8125 12.75 C1.27625 12.234375 0.74 11.71875 0.1875 11.1875 C-0.864375 11.9609375 -0.864375 11.9609375 -1.9375 12.75 C-5.46295152 14.51272576 -7.0524636 14.08663914 -10.8125 13.1875 C-13.67102089 13.06623219 -13.67102089 13.06623219 -15.8125 13.6875 C-18.46905131 14.35163783 -20.53123328 14.2541158 -23.1875 13.625 C-26.04013909 13.14956015 -28.03247367 13.47263609 -30.8125 14.1875 C-31.1425 13.5275 -31.4725 12.8675 -31.8125 12.1875 C-32.4725 12.8475 -33.1325 13.5075 -33.8125 14.1875 C-35.1325 14.1875 -36.4525 14.1875 -37.8125 14.1875 C-38.1425 13.5275 -38.4725 12.8675 -38.8125 12.1875 C-39.8025 12.8475 -40.7925 13.5075 -41.8125 14.1875 C-44.3125 14.625 -44.3125 14.625 -46.8125 14.1875 C-47.84263277 12.53928756 -48.84364628 10.87246298 -49.8125 9.1875 C-51.1325 9.1875 -52.4525 9.1875 -53.8125 9.1875 C-54.4725 10.8375 -55.1325 12.4875 -55.8125 14.1875 C-57.1325 14.1875 -58.4525 14.1875 -59.8125 14.1875 C-59.27398032 8.91000715 -58.03906164 4.93104436 -55.8125 0.1875 C-50.8625 0.1875 -45.9125 0.1875 -40.8125 0.1875 C-41.8025 3.1575 -42.7925 6.1275 -43.8125 9.1875 C-43.1525 9.1875 -42.4925 9.1875 -41.8125 9.1875 C-40.8225 6.2175 -39.8325 3.2475 -38.8125 0.1875 C-31.14583333 0.1875 -23.47916667 0.1875 -15.8125 0.1875 C-15.8125 1.1775 -15.8125 2.1675 -15.8125 3.1875 C-15.4825 2.1975 -15.1525 1.2075 -14.8125 0.1875 C-13.1625 0.1875 -11.5125 0.1875 -9.8125 0.1875 C-9.3175 1.1775 -9.3175 1.1775 -8.8125 2.1875 C-7.7915625 1.383125 -7.7915625 1.383125 -6.75 0.5625 C-3.8125 -0.8125 -3.8125 -0.8125 0 0 Z M-48.8125 4.1875 C-47.8125 7.1875 -47.8125 7.1875 -47.8125 7.1875 Z M24.1875 4.1875 C24.1875 7.1875 24.1875 7.1875 24.1875 7.1875 Z M-5.8125 5.1875 C-6.1425 6.5075 -6.4725 7.8275 -6.8125 9.1875 C-5.8225 8.8575 -4.8325 8.5275 -3.8125 8.1875 C-4.4725 7.1975 -5.1325 6.2075 -5.8125 5.1875 Z M-3.8125 5.1875 C-2.8125 7.1875 -2.8125 7.1875 -2.8125 7.1875 Z M14.1875 6.1875 C15.1875 9.1875 15.1875 9.1875 15.1875 9.1875 Z M-18.8125 9.1875 C-17.8125 11.1875 -17.8125 11.1875 -17.8125 11.1875 Z " fill="#221E1F" transform="translate(63.8125,46.8125)"/>
<path d="M0 0 C0.66 0.33 1.32 0.66 2 1 C0.68 3.64 -0.64 6.28 -2 9 C-3 6 -3 6 -1.5625 2.8125 C-1.046875 1.884375 -0.53125 0.95625 0 0 Z " fill="#221E1F" transform="translate(58,32)"/>
<path d="M0 0 C0.33 0.66 0.66 1.32 1 2 C-0.32 3.32 -1.64 4.64 -3 6 C-1.125 1.125 -1.125 1.125 0 0 Z " fill="#221E1F" transform="translate(97,29)"/>
<path d="M0 0 C0.33 0 0.66 0 1 0 C1 2.97 1 5.94 1 9 C0.67 9 0.34 9 0 9 C0 6.03 0 3.06 0 0 Z " fill="#221E1F" transform="translate(1,30)"/>
<path d="M0 0 C2.97 0 5.94 0 9 0 C9 0.33 9 0.66 9 1 C6.03 1 3.06 1 0 1 C0 0.67 0 0.34 0 0 Z " fill="#221E1F" transform="translate(21,7)"/>
<path d="M0 0 C0.66 0.66 1.32 1.32 2 2 C0.68 2.99 -0.64 3.98 -2 5 C-1.34 3.35 -0.68 1.7 0 0 Z " fill="#221E1F" transform="translate(101,49)"/>
<path d="M0 0 C0.33 0 0.66 0 1 0 C1 2.31 1 4.62 1 7 C0.67 7 0.34 7 0 7 C-0.38133299 5.0085944 -0.71325582 3.00720923 -1 1 C-0.67 0.67 -0.34 0.34 0 0 Z " fill="#221E1F" transform="translate(30,37)"/>
<path d="M0 0 C0.33 0 0.66 0 1 0 C1 2.64 1 5.28 1 8 C0.67 8 0.34 8 0 8 C0 5.36 0 2.72 0 0 Z " fill="#221E1F" transform="translate(57,3)"/>
<path d="M0 0 C2.31 0 4.62 0 7 0 C7 0.33 7 0.66 7 1 C4.69 1 2.38 1 0 1 C0 0.67 0 0.34 0 0 Z " fill="#221E1F" transform="translate(88,62)"/>
<path d="M0 0 C0.99 0.33 1.98 0.66 3 1 C3 1.33 3 1.66 3 2 C1.35 2 -0.3 2 -2 2 C-1.34 1.34 -0.68 0.68 0 0 Z " fill="#221F1F" transform="translate(94,44)"/>
<path d="M0 0 C0.33 0 0.66 0 1 0 C1 1.98 1 3.96 1 6 C-0.0625 4.125 -0.0625 4.125 -1 2 C-0.67 1.34 -0.34 0.68 0 0 Z " fill="#221E1F" transform="translate(21,17)"/>
<path d="M0 0 C0.99 0.33 1.98 0.66 3 1 C1.68 1.33 0.36 1.66 -1 2 C-0.67 1.34 -0.34 0.68 0 0 Z " fill="#221E1F" transform="translate(110,46)"/>
<path d="M0 0 C0.66 0.66 1.32 1.32 2 2 C0.35 2 -1.3 2 -3 2 C-2.01 1.34 -1.02 0.68 0 0 Z " fill="#221E1F" transform="translate(71,44)"/>
<path d="M0 0 C1.98 0 3.96 0 6 0 C6 0.33 6 0.66 6 1 C4.02 1 2.04 1 0 1 C0 0.67 0 0.34 0 0 Z " fill="#221E1F" transform="translate(15,34)"/>
<path d="M0 0 C0.66 0.66 1.32 1.32 2 2 C1.01 3.485 1.01 3.485 0 5 C0 3.35 0 1.7 0 0 Z " fill="#221E1F" transform="translate(122,24)"/>
<path d="M0 0 C0.33 0.66 0.66 1.32 1 2 C1.99 2.33 2.98 2.66 4 3 C2.68 3 1.36 3 0 3 C0 2.01 0 1.02 0 0 Z " fill="#221E1F" transform="translate(43,23)"/>
<path d="M0 0 C1.98 0 3.96 0 6 0 C6 0.33 6 0.66 6 1 C4.02 1 2.04 1 0 1 C0 0.67 0 0.34 0 0 Z " fill="#221E1F" transform="translate(76,20)"/>
<path d="M0 0 C0.99 0.33 1.98 0.66 3 1 C2.01 1.33 1.02 1.66 0 2 C0 1.34 0 0.68 0 0 Z " fill="#231E1F" transform="translate(105,56)"/>
<path d="M0 0 C0.33 0.99 0.66 1.98 1 3 C0.01 3.495 0.01 3.495 -1 4 C-0.67 2.68 -0.34 1.36 0 0 Z " fill="#231F1F" transform="translate(68,38)"/>
<path d="M0 0 C1.32 0.33 2.64 0.66 4 1 C2.68 1.33 1.36 1.66 0 2 C0 1.34 0 0.68 0 0 Z " fill="#221E1F" transform="translate(42,32)"/>
<path d="M0 0 C0.33 0 0.66 0 1 0 C1 1.65 1 3.3 1 5 C0.67 5 0.34 5 0 5 C0 3.35 0 1.7 0 0 Z " fill="#231F1F" transform="translate(14,29)"/>
<path d="M0 0 C0.33 0 0.66 0 1 0 C1 1.65 1 3.3 1 5 C0.67 5 0.34 5 0 5 C0 3.35 0 1.7 0 0 Z " fill="#231E1F" transform="translate(134,25)"/>
<path d="M0 0 C0.33 0 0.66 0 1 0 C1 1.65 1 3.3 1 5 C0.67 5 0.34 5 0 5 C0 3.35 0 1.7 0 0 Z " fill="#231E1F" transform="translate(118,10)"/>
<path d="M0 0 C4 1 4 1 4 1 Z " fill="#231E20" transform="translate(79,62)"/>
<path d="M0 0 C4 1 4 1 4 1 Z " fill="#231F1F" transform="translate(68,62)"/>
<path d="M0 0 C4 1 4 1 4 1 Z " fill="#231E1F" transform="translate(55,62)"/>
<path d="M0 0 C0.99 0 1.98 0 3 0 C2.67 0.66 2.34 1.32 2 2 C1.34 1.34 0.68 0.68 0 0 Z " fill="#231E1F" transform="translate(11,57)"/>
<path d="M0 0 C0.66 0.66 1.32 1.32 2 2 C1.01 1.67 0.02 1.34 -1 1 C-0.67 0.67 -0.34 0.34 0 0 Z " fill="#231E20" transform="translate(83,44)"/>
<path d="M0 0 C0.99 0.33 1.98 0.66 3 1 C2.01 1 1.02 1 0 1 C0 0.67 0 0.34 0 0 Z " fill="#231F20" transform="translate(79,45)"/>
<path d="M0 0 C1.485 0.99 1.485 0.99 3 2 C2.01 2 1.02 2 0 2 C0 1.34 0 0.68 0 0 Z " fill="#221E1F" transform="translate(57,44)"/>
<path d="M0 0 C4 1 4 1 4 1 Z " fill="#221E1F" transform="translate(25,45)"/>
<path d="M0 0 C0.33 0.99 0.66 1.98 1 3 C0.34 2.67 -0.32 2.34 -1 2 C-0.67 1.34 -0.34 0.68 0 0 Z " fill="#221F1F" transform="translate(53,43)"/>
<path d="M0 0 C1 4 1 4 1 4 Z " fill="#221E1F" transform="translate(138,31)"/>
<path d="M0 0 C0.33 0.66 0.66 1.32 1 2 C0.01 1.67 -0.98 1.34 -2 1 C-1.34 0.67 -0.68 0.34 0 0 Z " fill="#231F20" transform="translate(46,33)"/>
<path d="M0 0 C4 1 4 1 4 1 Z " fill="#231F1F" transform="translate(96,20)"/>
<path d="M0 0 C3 1 3 1 3 1 Z " fill="#231E1F" transform="translate(109,68)"/>
<path d="M0 0 C3 1 3 1 3 1 Z " fill="#231E1F" transform="translate(46,62)"/>
<path d="M0 0 C3 1 3 1 3 1 Z " fill="#221E1F" transform="translate(34,62)"/>
<path d="M0 0 C3 1 3 1 3 1 Z " fill="#231E20" transform="translate(27,62)"/>
<path d="M0 0 C3 1 3 1 3 1 Z " fill="#231E1F" transform="translate(18,62)"/>
<path d="M0 0 C3 1 3 1 3 1 Z " fill="#221E1F" transform="translate(5,62)"/>
<path d="M0 0 C0.66 0 1.32 0 2 0 C1.67 0.66 1.34 1.32 1 2 C0.67 1.34 0.34 0.68 0 0 Z " fill="#231F1F" transform="translate(96,61)"/>
<path d="M0 0 C0.99 0.495 0.99 0.495 2 1 C1.01 1.495 1.01 1.495 0 2 C0 1.34 0 0.68 0 0 Z " fill="#231F1F" transform="translate(120,57)"/>
<path d="M0 0 C0.66 0 1.32 0 2 0 C1.67 0.66 1.34 1.32 1 2 C0.67 1.34 0.34 0.68 0 0 Z " fill="#231F1F" transform="translate(107,55)"/>
<path d="M0 0 C3 1 3 1 3 1 Z " fill="#231F20" transform="translate(101,46)"/>
<path d="M0 0 C3 1 3 1 3 1 Z " fill="#221E1F" transform="translate(30,45)"/>
<path d="M0 0 C0.66 0 1.32 0 2 0 C1.67 0.66 1.34 1.32 1 2 C0.67 1.34 0.34 0.68 0 0 Z " fill="#221E1F" transform="translate(6,45)"/>
<path d="" fill="#221E1F" transform="translate(0,0)"/>
<path d="M0 0 C3 1 3 1 3 1 Z " fill="#231F20" transform="translate(67,19)"/>
<path d="M0 0 C3 1 3 1 3 1 Z " fill="#231E20" transform="translate(45,19)"/>
<path d="" fill="#231F20" transform="translate(0,0)"/>
<path d="M0 0 C2 1 2 1 2 1 Z " fill="#231F20" transform="translate(104,68)"/>
<path d="M0 0 C2 1 2 1 2 1 Z " fill="#231E1F" transform="translate(112,67)"/>
<path d="M0 0 C2 1 2 1 2 1 Z " fill="#231E1F" transform="translate(40,62)"/>
<path d="M0 0 C2 1 2 1 2 1 Z " fill="#221E20" transform="translate(84,61)"/>
<path d="M0 0 C2 1 2 1 2 1 Z " fill="#231F1F" transform="translate(72,61)"/>
<path d="M0 0 C2 1 2 1 2 1 Z " fill="#231E1F" transform="translate(53,61)"/>
<path d="M0 0 C2 1 2 1 2 1 Z " fill="#231E1F" transform="translate(22,61)"/>
<path d="" fill="#231F20" transform="translate(0,0)"/>
<path d="M0 0 C2 1 2 1 2 1 Z " fill="#231F20" transform="translate(63,59)"/>
<path d="" fill="#231E1F" transform="translate(0,0)"/>
<path d="" fill="#231F20" transform="translate(0,0)"/>
<path d="M0 0 C2 1 2 1 2 1 Z " fill="#231F20" transform="translate(123,58)"/>
<path d="" fill="#231E20" transform="translate(0,0)"/>
<path d="" fill="#231E20" transform="translate(0,0)"/>
<path d="" fill="#231E1F" transform="translate(0,0)"/>
<path d="" fill="#221F1F" transform="translate(0,0)"/>
<path d="M0 0 C2 1 2 1 2 1 Z " fill="#221E1F" transform="translate(126,49)"/>
<path d="M0 0 C2 1 2 1 2 1 Z " fill="#231E20" transform="translate(104,49)"/>
<path d="M0 0 C2 1 2 1 2 1 Z " fill="#231F20" transform="translate(106,48)"/>
<path d="" fill="#231E1F" transform="translate(0,0)"/>
<path d="M0 0 C2 1 2 1 2 1 Z " fill="#221E1F" transform="translate(89,46)"/>
<path d="M0 0 C2 1 2 1 2 1 Z " fill="#221E1F" transform="translate(73,46)"/>
<path d="M0 0 C2 1 2 1 2 1 Z " fill="#231F20" transform="translate(20,45)"/>
<path d="M0 0 C2 1 2 1 2 1 Z " fill="#231F20" transform="translate(106,44)"/>
<path d="" fill="#221E1F" transform="translate(0,0)"/>
<path d="" fill="#231E1F" transform="translate(0,0)"/>
<path d="" fill="#231E1F" transform="translate(0,0)"/>
<path d="" fill="#231E20" transform="translate(0,0)"/>
<path d="" fill="#221E1F" transform="translate(0,0)"/>
<path d="" fill="#231F1F" transform="translate(0,0)"/>
<path d="" fill="#231E1F" transform="translate(0,0)"/>
<path d="" fill="#231F20" transform="translate(0,0)"/>
<path d="M0 0 C2 1 2 1 2 1 Z " fill="#231F20" transform="translate(89,23)"/>
<path d="" fill="#231F20" transform="translate(0,0)"/>
<path d="" fill="#231F20" transform="translate(0,0)"/>
<path d="" fill="#221F20" transform="translate(0,0)"/>
<path d="M0 0 C2 1 2 1 2 1 Z " fill="#231F1F" transform="translate(93,21)"/>
<path d="M0 0 C2 1 2 1 2 1 Z " fill="#231F20" transform="translate(74,21)"/>
<path d="" fill="#231E1F" transform="translate(0,0)"/>
<path d="" fill="#231E1F" transform="translate(0,0)"/>
<path d="" fill="#221E1F" transform="translate(0,0)"/>
<path d="M0 0 C2 1 2 1 2 1 Z " fill="#231F20" transform="translate(64,19)"/>
<path d="" fill="#231F20" transform="translate(0,0)"/>
<path d="" fill="#231F20" transform="translate(0,0)"/>
<path d="" fill="#231F20" transform="translate(0,0)"/>
<path d="" fill="#221F1F" transform="translate(0,0)"/>
<path d="" fill="#221E1F" transform="translate(0,0)"/>
<path d="" fill="#231E20" transform="translate(0,0)"/>
<path d="" fill="#221E1F" transform="translate(0,0)"/>
<path d="" fill="#231F20" transform="translate(0,0)"/>
<path d="" fill="#231F20" transform="translate(0,0)"/>
<path d="" fill="#231E20" transform="translate(0,0)"/>
<path d="M0 0 C2 1 2 1 2 1 Z " fill="#231E1F" transform="translate(38,10)"/>
<path d="M0 0 C2 1 2 1 2 1 Z " fill="#231E1F" transform="translate(15,10)"/>
<path d="" fill="#231F1F" transform="translate(0,0)"/>
<path d="" fill="#231E1F" transform="translate(0,0)"/>
<path d="M0 0 C2 1 2 1 2 1 Z " fill="#231F20" transform="translate(43,6)"/>
<path d="M0 0 C2 1 2 1 2 1 Z " fill="#231F20" transform="translate(111,4)"/>
<path d="M0 0 C2 1 2 1 2 1 Z " fill="#231F1F" transform="translate(53,0)"/>
<path d="M0 0 C2 1 2 1 2 1 Z " fill="#231F1F" transform="translate(50,0)"/>
<path d="" fill="#231F20" transform="translate(0,0)"/>
<path d="" fill="#231F20" transform="translate(0,0)"/>
<path d="" fill="#231F20" transform="translate(0,0)"/>
<path d="" fill="#231F20" transform="translate(0,0)"/>
<path d="" fill="#231F20" transform="translate(0,0)"/>
<path d="" fill="#221E1F" transform="translate(0,0)"/>
<path d="" fill="#231F20" transform="translate(0,0)"/>
<path d="" fill="#221E20" transform="translate(0,0)"/>
<path d="" fill="#231F20" transform="translate(0,0)"/>
<path d="" fill="#231E1F" transform="translate(0,0)"/>
<path d="" fill="#221E1F" transform="translate(0,0)"/>
<path d="" fill="#231E1F" transform="translate(0,0)"/>
<path d="" fill="#231F1F" transform="translate(0,0)"/>
<path d="" fill="#231F20" transform="translate(0,0)"/>
<path d="" fill="#231F20" transform="translate(0,0)"/>
<path d="" fill="#231F20" transform="translate(0,0)"/>
<path d="" fill="#231F20" transform="translate(0,0)"/>
<path d="" fill="#221F20" transform="translate(0,0)"/>
<path d="" fill="#231F20" transform="translate(0,0)"/>
<path d="" fill="#231F20" transform="translate(0,0)"/>
<path d="" fill="#231F20" transform="translate(0,0)"/>
<path d="" fill="#231E20" transform="translate(0,0)"/>
<path d="" fill="#231F20" transform="translate(0,0)"/>
<path d="" fill="#231F20" transform="translate(0,0)"/>
<path d="" fill="#231F20" transform="translate(0,0)"/>
<path d="" fill="#231F20" transform="translate(0,0)"/>
<path d="" fill="#231F20" transform="translate(0,0)"/>
<path d="" fill="#231F20" transform="translate(0,0)"/>
<path d="" fill="#231F1F" transform="translate(0,0)"/>
<path d="" fill="#231F20" transform="translate(0,0)"/>
<path d="" fill="#231E20" transform="translate(0,0)"/>
<path d="" fill="#231F20" transform="translate(0,0)"/>
<path d="" fill="#231F20" transform="translate(0,0)"/>
<path d="" fill="#231F20" transform="translate(0,0)"/>
<path d="" fill="#231F20" transform="translate(0,0)"/>
<path d="" fill="#231F20" transform="translate(0,0)"/>
<path d="" fill="#231F20" transform="translate(0,0)"/>
<path d="" fill="#221E1F" transform="translate(0,0)"/>
<path d="" fill="#231F20" transform="translate(0,0)"/>
<path d="" fill="#231E20" transform="translate(0,0)"/>
<path d="" fill="#231F20" transform="translate(0,0)"/>
<path d="" fill="#221F1F" transform="translate(0,0)"/>
<path d="" fill="#231F20" transform="translate(0,0)"/>
<path d="" fill="#231F20" transform="translate(0,0)"/>
<path d="" fill="#231F20" transform="translate(0,0)"/>
<path d="" fill="#231F20" transform="translate(0,0)"/>
<path d="" fill="#231F20" transform="translate(0,0)"/>
<path d="" fill="#231F20" transform="translate(0,0)"/>
<path d="" fill="#231F20" transform="translate(0,0)"/>
<path d="" fill="#231E1F" transform="translate(0,0)"/>
<path d="" fill="#221F20" transform="translate(0,0)"/>
<path d="" fill="#231F20" transform="translate(0,0)"/>
<path d="" fill="#231F20" transform="translate(0,0)"/>
<path d="" fill="#231F20" transform="translate(0,0)"/>
<path d="" fill="#231E20" transform="translate(0,0)"/>
<path d="" fill="#231F20" transform="translate(0,0)"/>
<path d="" fill="#221E1F" transform="translate(0,0)"/>
<path d="" fill="#231F20" transform="translate(0,0)"/>
<path d="" fill="#231F20" transform="translate(0,0)"/>
<path d="" fill="#231E20" transform="translate(0,0)"/>
<path d="" fill="#231F20" transform="translate(0,0)"/>
<path d="" fill="#221E20" transform="translate(0,0)"/>
<path d="" fill="#231F20" transform="translate(0,0)"/>
<path d="" fill="#231E1F" transform="translate(0,0)"/>
<path d="" fill="#231F1F" transform="translate(0,0)"/>
<path d="" fill="#231E20" transform="translate(0,0)"/>
<path d="" fill="#231F1F" transform="translate(0,0)"/>
<path d="" fill="#231F20" transform="translate(0,0)"/>
<path d="" fill="#231F20" transform="translate(0,0)"/>
<path d="" fill="#221E1F" transform="translate(0,0)"/>
<path d="" fill="#231F20" transform="translate(0,0)"/>
<path d="" fill="#231E20" transform="translate(0,0)"/>
<path d="" fill="#231E20" transform="translate(0,0)"/>
<path d="" fill="#231F20" transform="translate(0,0)"/>
<path d="" fill="#231E1F" transform="translate(0,0)"/>
<path d="" fill="#231F20" transform="translate(0,0)"/>
<path d="" fill="#231F20" transform="translate(0,0)"/>
<path d="" fill="#231F20" transform="translate(0,0)"/>
<path d="" fill="#231F20" transform="translate(0,0)"/>
<path d="" fill="#231F20" transform="translate(0,0)"/>
<path d="" fill="#231F20" transform="translate(0,0)"/>
<path d="" fill="#231F20" transform="translate(0,0)"/>
<path d="" fill="#221F1F" transform="translate(0,0)"/>
<path d="" fill="#231F1F" transform="translate(0,0)"/>
<path d="" fill="#231E1F" transform="translate(0,0)"/>
<path d="" fill="#221F1F" transform="translate(0,0)"/>
<path d="" fill="#221E1F" transform="translate(0,0)"/>
<path d="" fill="#231F20" transform="translate(0,0)"/>
<path d="" fill="#231E1F" transform="translate(0,0)"/>
<path d="" fill="#231F20" transform="translate(0,0)"/>
<path d="" fill="#231F20" transform="translate(0,0)"/>
<path d="" fill="#231F20" transform="translate(0,0)"/>
<path d="" fill="#231E20" transform="translate(0,0)"/>
<path d="" fill="#221E1F" transform="translate(0,0)"/>
<path d="" fill="#221F1F" transform="translate(0,0)"/>
<path d="" fill="#231F1F" transform="translate(0,0)"/>
<path d="" fill="#231F20" transform="translate(0,0)"/>
<path d="" fill="#231F20" transform="translate(0,0)"/>
<path d="" fill="#221E1F" transform="translate(0,0)"/>
<path d="" fill="#231E1F" transform="translate(0,0)"/>
<path d="" fill="#231F1F" transform="translate(0,0)"/>
<path d="" fill="#231F20" transform="translate(0,0)"/>
<path d="" fill="#231F20" transform="translate(0,0)"/>
<path d="" fill="#231F1F" transform="translate(0,0)"/>
<path d="" fill="#231F20" transform="translate(0,0)"/>
<path d="" fill="#231F20" transform="translate(0,0)"/>
<path d="" fill="#231F20" transform="translate(0,0)"/>
<path d="" fill="#221E1F" transform="translate(0,0)"/>
<path d="" fill="#231F20" transform="translate(0,0)"/>
<path d="" fill="#231E1F" transform="translate(0,0)"/>
<path d="" fill="#231F20" transform="translate(0,0)"/>
<path d="" fill="#231F20" transform="translate(0,0)"/>
<path d="" fill="#221E1F" transform="translate(0,0)"/>
<path d="" fill="#231F1F" transform="translate(0,0)"/>
<path d="" fill="#221E1F" transform="translate(0,0)"/>
<path d="" fill="#221E1F" transform="translate(0,0)"/>
<path d="" fill="#231F20" transform="translate(0,0)"/>
<path d="" fill="#231E1F" transform="translate(0,0)"/>
<path d="" fill="#221F20" transform="translate(0,0)"/>
<path d="" fill="#231F20" transform="translate(0,0)"/>
<path d="" fill="#231F20" transform="translate(0,0)"/>
<path d="" fill="#231F20" transform="translate(0,0)"/>
<path d="" fill="#231F1F" transform="translate(0,0)"/>
<path d="" fill="#231E20" transform="translate(0,0)"/>
<path d="" fill="#231F20" transform="translate(0,0)"/>
<path d="" fill="#231F20" transform="translate(0,0)"/>
<path d="" fill="#231E20" transform="translate(0,0)"/>
<path d="" fill="#231F20" transform="translate(0,0)"/>
<path d="" fill="#231F20" transform="translate(0,0)"/>
<path d="" fill="#231F1F" transform="translate(0,0)"/>
<path d="" fill="#231F20" transform="translate(0,0)"/>
<path d="" fill="#231E20" transform="translate(0,0)"/>
<path d="" fill="#231F20" transform="translate(0,0)"/>
<path d="" fill="#231E20" transform="translate(0,0)"/>
<path d="" fill="#231F20" transform="translate(0,0)"/>
</svg>
