<?xml version="1.0" encoding="UTF-8"?>
<svg version="1.1" xmlns="http://www.w3.org/2000/svg" width="927" height="453">
<path d="M0 0 C5.56792745 3.07286562 8.65432505 6.83797515 10.6875 12.9375 C10.73691774 15.36354508 10.73166599 17.75962555 10.6796875 20.18359375 C10.65928741 21.66575764 10.63996066 23.14793661 10.62158203 24.63012695 C10.61112854 25.405065 10.60067505 26.18000305 10.58990479 26.97842407 C10.43111343 40.86488752 10.53522972 54.33997115 13.6875 67.9375 C13.88617676 68.7948877 14.08485352 69.65227539 14.28955078 70.53564453 C20.33914551 95.76268112 29.29757438 130.11340939 50.9375 146.6875 C54.21996575 148.17952989 55.31240789 148.0608052 58.6875 146.9375 C60.61275776 145.02704222 60.61275776 145.02704222 62.1875 142.625 C67.0331074 136.06367324 71.62232962 132.51202062 79.6875 130.9375 C91.20583996 129.8799533 101.05127208 131.00807066 110.375 138.1875 C116.85314073 144.33881561 120.89405714 153.55717143 123.6875 161.9375 C124.46351563 161.380625 125.23953125 160.82375 126.0390625 160.25 C141.48439833 149.28294058 155.47411797 140.68091486 175 140.5 C175.93134766 140.4896875 176.86269531 140.479375 177.82226562 140.46875 C187.36209451 140.59166834 193.65745944 143.08392576 200.63671875 149.6171875 C207.00535177 156.82284086 209.21069908 165.30083369 208.99975586 174.74731445 C207.76458068 187.36657485 199.27078071 200.11957286 193.625 211.25 C192.71753289 213.04984491 191.81062819 214.8499735 190.90429688 216.65039062 C189.23905781 219.95659802 187.57057931 223.26112306 185.89819336 226.5637207 C185.53184784 227.2920108 185.16550232 228.0203009 184.78805542 228.7706604 C184.03923739 230.2449783 183.27739998 231.71273975 182.50418091 233.17440796 C180.24082508 237.3213417 180.24082508 237.3213417 179.9375 241.9375 C180.185 242.5975 180.4325 243.2575 180.6875 243.9375 C187.790936 244.67744125 192.08805032 243.36871917 197.6875 238.9375 C199.89620575 236.72879425 200.15299705 235.77514716 200.87890625 232.81640625 C208.46770604 203.3859164 223.79384976 175.9486034 250.6875 159.9375 C251.69425781 159.298125 252.70101562 158.65875 253.73828125 158 C260.39969684 153.94322096 267.12456306 150.78064646 274.4375 148.0625 C275.20505615 147.77632812 275.9726123 147.49015625 276.76342773 147.1953125 C285.8859304 143.94932844 294.7015244 142.54616112 304.375 142.5625 C305.80694702 142.56382935 305.80694702 142.56382935 307.26782227 142.56518555 C318.27669733 142.74750992 327.64824892 145.50804535 337.6875 149.9375 C345.09561755 136.2307756 351.92832926 122.27402391 358.66204834 108.22721863 C362.79695567 99.61110127 366.99609494 91.0262275 371.1875 82.4375 C377.59807914 69.29642152 383.98431826 56.14408344 390.32421875 42.96875 C393.06879052 37.26900814 395.83915399 31.58614763 398.6875 25.9375 C409.96576103 27.71407563 418.35339728 36.37746658 425.28515625 44.90234375 C429.25569168 50.64565647 431.24239726 57.16449321 432.6875 63.9375 C433.07035156 65.7009375 433.07035156 65.7009375 433.4609375 67.5 C434.97085701 81.63056752 427.09445135 93.44977419 420.61456299 105.46429443 C417.7746611 110.73085339 415.15727715 116.07865547 412.625 121.5 C407.20629801 132.94570106 401.63037885 144.31386606 396.0625 155.6875 C395.09768075 157.65931462 394.13291843 159.63115709 393.16821289 161.60302734 C392.69114395 162.5781427 392.21407501 163.55325806 391.72254944 164.55792236 C391.24692062 165.53009705 390.77129181 166.50227173 390.28125 167.50390625 C389.806306 168.47463074 389.331362 169.44535522 388.84202576 170.44549561 C387.45711001 173.27612763 386.07228761 176.10680529 384.6875 178.9375 C384.06343262 180.21303741 384.06343262 180.21303741 383.42675781 181.51434326 C378.14770777 192.30636244 372.88642084 203.10661211 367.6875 213.9375 C367.37516418 214.58797302 367.06282837 215.23844604 366.74102783 215.90863037 C364.68300193 220.2009851 362.64816952 224.50360528 360.625 228.8125 C360.11759277 229.87686279 359.61018555 230.94122559 359.08740234 232.0378418 C358.63445801 233.01277588 358.18151367 233.98770996 357.71484375 234.9921875 C357.32031006 235.83249512 356.92577637 236.67280273 356.51928711 237.53857422 C355.61423989 240.14878671 355.52888034 242.19481641 355.6875 244.9375 C362.95098695 244.90387275 367.46416078 242.99306601 372.6875 237.9375 C375.56895993 234.57646232 377.6371946 231.34249496 379.5078125 227.3359375 C380.03375 226.22395996 380.5596875 225.11198242 381.1015625 223.96630859 C381.51776855 223.07670441 381.51776855 223.07670441 381.94238281 222.16912842 C389.70576144 205.60387768 398.08878027 189.36658877 406.51416016 173.13134766 C408.25990383 169.76583781 409.99718135 166.3960741 411.72970581 163.02374268 C412.6812757 161.17164244 413.63430434 159.32030104 414.58789062 157.46923828 C415.73048215 155.25117468 416.8712837 153.03218749 418.00976562 150.81201172 C421.67748059 143.71583037 425.60367753 136.80225099 429.6875 129.9375 C439.6725437 131.72188359 448.54948947 139.05730979 454.6875 146.9375 C459.42740564 154.57033688 462.8085932 162.10304979 462.875 171.1875 C462.88917969 172.05890625 462.90335938 172.9303125 462.91796875 173.828125 C462.35355 181.44299498 460.1049142 187.82769625 456.6171875 194.56640625 C456.21726593 195.35917465 455.81734436 196.15194305 455.40530396 196.96873474 C454.13378451 199.48406478 452.84856297 201.99208029 451.5625 204.5 C450.72302004 206.15382093 449.88447144 207.80811497 449.046875 209.46289062 C442.36382944 222.6486456 442.36382944 222.6486456 439.28613281 228.54248047 C438.54744345 229.9748923 437.80883267 231.40734467 437.0703125 232.83984375 C436.72684784 233.48611221 436.38338318 234.13238068 436.0295105 234.79823303 C434.22339314 238.32581059 433.2786054 240.96045704 433.6875 244.9375 C442.19741987 245.44809519 447.19009869 243.60383835 453.6875 237.9375 C455.73631767 235.61647193 457.59405302 233.17350109 459.4375 230.6875 C459.96335693 229.97859619 460.48921387 229.26969238 461.03100586 228.53930664 C469.72506128 216.58811992 475.96794507 203.49538896 482.25 190.16796875 C487.16582646 179.77038889 492.25467381 169.45582953 497.31533813 159.12820435 C502.22113912 149.11499094 507.08512851 139.09485642 511.6875 128.9375 C523.30746882 132.44541511 533.30855118 140.34529476 539.375 150.86328125 C545.00087664 161.72284601 547.96667106 172.74290027 545.6875 184.9375 C543.07762253 192.92248877 538.85757275 200.26216283 534.875 207.625 C533.85656635 209.56263863 532.84157392 211.50208999 531.83007812 213.44335938 C530.31123342 216.35645861 528.78975245 219.26780233 527.2542572 222.17216492 C523.16942804 229.91439061 519.35731691 237.76629364 515.61367798 245.67807007 C512.82144612 251.5773346 509.97426048 257.44201983 507.03515625 263.26953125 C506.67552292 263.98320358 506.31588959 264.69687592 505.94535828 265.43217468 C504.51639198 268.26324616 503.08383107 271.09247188 501.64819336 273.92016602 C497.64968456 281.80481128 493.72790494 289.61936366 490.6875 297.9375 C497.24222314 291.66170125 503.0408276 285.03203712 508.6875 277.9375 C509.62369219 276.79059789 510.56125373 275.64481253 511.5 274.5 C529.11336019 252.92551863 543.53158746 229.54434194 556.56518555 204.96435547 C557.52071547 203.23870626 558.59333328 201.57875007 559.6875 199.9375 C563.85426032 200.18260355 566.16457269 200.53077876 569.5 203.125 C573.3963147 208.13454747 574.26678031 212.67634266 573.6875 218.9375 C572.25966395 222.64357166 570.40057094 226.07968468 568.5 229.5625 C567.69393311 231.06961548 567.69393311 231.06961548 566.87158203 232.60717773 C558.51053027 248.03896563 549.2220363 262.89713826 538.6875 276.9375 C538.0672998 277.7718457 538.0672998 277.7718457 537.43457031 278.62304688 C532.53755854 285.19505499 527.45300765 291.51771898 521.890625 297.546875 C520.42092532 299.14165551 518.97277458 300.7565649 517.546875 302.390625 C505.31654622 316.38071331 490.78226038 328.34574249 475.375 338.6875 C474.73457764 339.11812744 474.09415527 339.54875488 473.43432617 339.99243164 C468.94570304 342.9375 468.94570304 342.9375 466.6875 342.9375 C466.54393066 343.95348267 466.54393066 343.95348267 466.39746094 344.98999023 C465.52257752 348.6222005 463.98868832 351.77619558 462.328125 355.09765625 C461.98738953 355.79188187 461.64665405 356.48610748 461.29559326 357.20137024 C460.18131473 359.47012302 459.05948239 361.73504858 457.9375 364 C456.37626515 367.16864498 454.8197075 370.33956022 453.265625 373.51171875 C452.68041077 374.70538055 452.68041077 374.70538055 452.08337402 375.92315674 C449.64222356 380.9227544 447.27538076 385.94945632 444.984375 391.01953125 C444.70327377 391.64154419 444.42217255 392.26355713 444.1325531 392.90441895 C443.85798782 393.51233276 443.58342255 394.12024658 443.30053711 394.74658203 C438.57375208 405.19601779 433.99968899 415.03936599 426.6875 423.9375 C426.04683594 424.75476563 425.40617188 425.57203125 424.74609375 426.4140625 C414.13951913 439.22766174 398.15882774 448.18724349 381.6875 450.625 C380.35588139 450.74917872 379.02221117 450.85279718 377.6875 450.9375 C376.62015625 451.01677734 376.62015625 451.01677734 375.53125 451.09765625 C357.2478871 451.79851849 340.66952739 445.12422942 327.01953125 433.15234375 C317.30197865 423.92311038 310.96770063 413.64553767 310.3515625 399.94921875 C310.06576275 383.2578918 312.99564267 372.21674262 324.75 359.75 C348.1097031 337.76439708 386.200593 326.38185353 417.6875 324.9375 C417.90535156 324.17179687 418.12320313 323.40609375 418.34765625 322.6171875 C420.55877238 316.54467615 423.66280942 310.91002489 426.61132812 305.16796875 C429.31995537 299.83844307 431.71852543 294.58411859 433.6875 288.9375 C432.79611328 289.53498047 432.79611328 289.53498047 431.88671875 290.14453125 C422.51589777 296.13427841 412.90023999 299.34900475 401.6875 297.9375 C389.20199859 294.91433482 379.70923362 286.99721243 372.95703125 276.16015625 C372.53808594 275.42667969 372.11914062 274.69320313 371.6875 273.9375 C370.81609375 274.72253906 369.9446875 275.50757813 369.046875 276.31640625 C353.76635797 289.88564366 338.77358904 298.18751897 317.828125 297.30859375 C307.43723133 296.5580364 300.65011596 291.47186362 293.6875 283.9375 C291.26912076 280.69014025 289.6875 278.09501449 289.6875 273.9375 C289.21554199 274.29465088 288.74358398 274.65180176 288.25732422 275.01977539 C270.38200655 288.46199695 253.95941388 298.8180587 230.6875 296.9375 C220.88185239 295.19427376 212.99717784 289.31475207 207.1953125 281.39453125 C204.77989596 277.45852865 203.15508284 273.30378683 201.6875 268.9375 C200.89988281 269.77152344 200.11226562 270.60554688 199.30078125 271.46484375 C186.89229612 284.37328334 172.60009032 296.70519977 153.875 297.3125 C147.32852572 297.20154281 142.42069463 296.05674657 136.6875 292.9375 C135.90632813 292.51339844 135.12515625 292.08929688 134.3203125 291.65234375 C125.29800384 286.19946697 119.45975194 278.08244358 116.6875 267.9375 C112.18408333 246.16580977 124.24493973 226.70836571 133.6652832 208.07568359 C136.58150252 202.26784143 139.35414026 196.42827242 141.875 190.4375 C142.16640869 189.76195068 142.45781738 189.08640137 142.75805664 188.39038086 C144.37208044 184.43890923 145.07920191 181.20127165 144.6875 176.9375 C143.45486617 175.49663448 143.45486617 175.49663448 139.75 175.5 C133.74675726 175.56702185 129.28532001 178.2379296 124.6875 181.9375 C120.00956197 186.92879851 117.18496109 192.40554669 114.17871094 198.5168457 C113.65289429 199.56950119 113.12707764 200.62215668 112.58532715 201.70671082 C110.85666866 205.17188504 109.13932044 208.64253781 107.421875 212.11328125 C106.22241532 214.52454105 105.02041674 216.93453211 103.81842041 219.3445282 C100.98377 225.03137831 98.15696503 230.72208802 95.33328652 236.41439265 C91.18136451 244.78360684 87.01915298 253.14770276 82.85507584 261.51087475 C82.54994938 262.12369708 82.24482292 262.73651941 81.9304502 263.36791211 C81.32233178 264.5892459 80.71418744 265.81056678 80.1060164 267.03187436 C78.03576065 271.19012492 75.97008852 275.35062815 73.90570068 279.51179504 C72.8300748 281.67625758 71.75441352 283.84070253 70.67871094 286.00512695 C70.18522156 287.00198517 69.69173218 287.99884338 69.18328857 289.02590942 C68.73477539 289.92734177 68.28626221 290.82877411 67.82415771 291.75752258 C67.23795969 292.93909423 67.23795969 292.93909423 66.63991928 294.14453602 C65.6875 295.9375 65.6875 295.9375 64.6875 296.9375 C54.86721927 297.84102508 46.96407096 296.89301918 38.98828125 290.9140625 C33.06577853 285.84751272 28.17848856 280.8261849 26.6875 272.9375 C26.5149392 270.40000757 26.41109621 267.91376654 26.375 265.375 C26.33149414 264.39563477 26.33149414 264.39563477 26.28710938 263.39648438 C26.14269142 251.87637555 32.79701063 241.29670559 37.86791992 231.29541016 C38.99300305 229.07630075 40.1095761 226.85307965 41.22460938 224.62890625 C45.56996505 215.98572054 50.04599678 207.42550689 54.6875 198.9375 C53.64835449 198.82486816 52.60920898 198.71223633 51.53857422 198.59619141 C43.38409027 197.68651487 36.31345219 196.1006077 28.6875 192.9375 C23.37067958 202.07443251 18.29099825 211.29094356 13.5625 220.75 C13.24723358 221.379133 12.93196716 222.00826599 12.60714722 222.65646362 C2.5657862 242.77520089 -6.23356692 263.58025903 -13.91772461 284.71118164 C-17.74166771 295.15208386 -17.74166771 295.15208386 -21.3125 296.9375 C-22.89755174 297.03850939 -24.48677939 297.07692806 -26.07502747 297.08467102 C-27.08024948 297.09182632 -28.0854715 297.09898163 -29.12115479 297.10635376 C-30.22819763 297.10904266 -31.33524048 297.11173157 -32.47583008 297.11450195 C-33.63851913 297.12107315 -34.80120819 297.12764435 -35.99913025 297.13441467 C-39.86009784 297.15418175 -43.7210265 297.16581725 -47.58203125 297.17578125 C-49.55578012 297.18189454 -49.55578012 297.18189454 -51.56940269 297.18813133 C-57.81378352 297.20718376 -64.05815251 297.22141457 -70.30255681 297.2297433 C-77.51045987 297.23951585 -84.71805584 297.26583518 -91.92585069 297.30624419 C-97.49705097 297.33640598 -103.06816323 297.35121222 -108.63944358 297.35452431 C-111.9669433 297.35687485 -115.29403987 297.36780587 -118.6214695 297.39098549 C-122.33489253 297.41524802 -126.04750885 297.41443506 -129.76098633 297.4074707 C-131.41244156 297.42668579 -131.41244156 297.42668579 -133.09725952 297.44628906 C-140.52617644 297.39540026 -140.52617644 297.39540026 -144.46746826 295.1002655 C-146.92265439 292.22227064 -147.36639089 289.97040013 -147.99609375 286.25 C-148.11053329 285.59427002 -148.22497284 284.93854004 -148.34288025 284.26293945 C-149.64494788 276.52759936 -150.5302745 268.73350752 -151.375 260.9375 C-151.54637105 259.40076853 -151.718005 257.86406636 -151.88989258 256.32739258 C-152.97599017 246.51917342 -153.94330668 236.7035841 -154.71704102 226.86523438 C-155.06172244 222.50624986 -155.50494503 218.2421191 -156.3125 213.9375 C-156.90675781 214.78570312 -157.50101563 215.63390625 -158.11328125 216.5078125 C-166.69902012 228.69096718 -175.62356498 240.38857916 -185.828125 251.265625 C-187.89218367 253.48546168 -189.86379421 255.74261216 -191.8125 258.0625 C-213.25226844 282.60138189 -244.03446072 296.87526537 -276.22265625 299.22265625 C-295.48010358 299.69636886 -314.60320075 295.36710435 -330.3125 283.9375 C-330.96863281 283.46570313 -331.62476563 282.99390625 -332.30078125 282.5078125 C-344.85761081 272.65167578 -350.27555422 256.83382916 -352.875 241.65234375 C-357.8598095 199.32597025 -340.33862874 152.67612133 -314.59716797 119.56445312 C-314.17322754 119.02755859 -313.74928711 118.49066406 -313.3125 117.9375 C-312.88984863 117.40060547 -312.46719727 116.86371094 -312.03173828 116.31054688 C-299.15556598 100.19251843 -284.19076814 84.85386987 -267.3125 72.9375 C-266.72726562 72.51855469 -266.14203125 72.09960938 -265.5390625 71.66796875 C-241.40379637 54.52467886 -216.30575623 44.12933211 -186.3125 47.9375 C-172.64826172 50.27120383 -161.44671479 56.01119776 -152.6796875 66.98046875 C-146.98294696 75.52557955 -145.36884303 84.76758391 -145.3125 94.9375 C-145.6425 95.9275 -145.9725 96.9175 -146.3125 97.9375 C-133.06018944 90.65468112 -120.46002165 82.9423061 -108.3125 73.9375 C-106.96355244 72.94920404 -105.61459413 71.96092276 -104.265625 70.97265625 C-90.70736926 60.97414144 -77.72936724 50.25803842 -64.92773438 39.31445312 C-63.26415457 37.89628654 -61.59354124 36.48674683 -59.921875 35.078125 C-51.71400923 28.13620645 -43.83524122 20.89134119 -36.00634766 13.52685547 C-14.52313632 -6.63107272 -14.52313632 -6.63107272 0 0 Z M-15.6875 20.625 C-16.20497803 21.11468262 -16.72245605 21.60436523 -17.25561523 22.10888672 C-18.36890488 23.1626395 -19.4784028 24.22040976 -20.58447266 25.28173828 C-23.49127843 28.06698224 -26.4308456 30.81683246 -29.375 33.5625 C-29.96498779 34.11357422 -30.55497559 34.66464844 -31.1628418 35.23242188 C-35.51987149 39.27337577 -40.03939641 43.05594552 -44.6796875 46.76953125 C-47.42219154 49.02782463 -50.0218759 51.39531334 -52.625 53.8125 C-57.76435477 58.53633247 -63.14606294 62.83330812 -68.6640625 67.09765625 C-71.08313768 68.96846799 -73.47102474 70.86978548 -75.8359375 72.80859375 C-100.98304213 93.39537825 -129.03809253 113.19686141 -160.3125 122.9375 C-160.98410156 123.15148437 -161.65570313 123.36546875 -162.34765625 123.5859375 C-165.38058882 124.12860933 -168.36081502 124.06892314 -171.4375 124.0625 C-172.67757812 124.06507812 -173.91765625 124.06765625 -175.1953125 124.0703125 C-178.3125 123.9375 -178.3125 123.9375 -180.3125 122.9375 C-180.125 121.0625 -180.125 121.0625 -179.3125 118.9375 C-176.38933018 117.30396393 -174.16530449 116.92698604 -170.8125 116.6875 C-167.3142526 115.93787556 -166.59169069 115.66928542 -164.3125 113.1875 C-162.10092057 110.18211161 -162.10092057 110.18211161 -162.1875 107.1875 C-163.14100141 104.7981574 -163.14100141 104.7981574 -165.375 103.625 C-172.48425171 101.96113258 -178.76810817 102.78258709 -185.3125 105.9375 C-189.31126696 108.65149203 -192.53448964 111.3547409 -194.3125 115.9375 C-194.98646904 121.12549427 -194.92668948 125.58628315 -192.75 130.375 C-187.60558302 135.78323324 -182.21838932 137.65343532 -174.875 138.1875 C-128.15316876 137.31419474 -77.17962772 92.89903374 -44.46875 62.9140625 C-42.44235179 61.0565308 -40.38731371 59.24061191 -38.3125 57.4375 C-34.35995293 53.99910539 -30.48234316 50.48073294 -26.609375 46.953125 C-24.57437041 45.16730465 -22.50349251 43.52546705 -20.3125 41.9375 C-20.33570313 43.22527344 -20.35890625 44.51304688 -20.3828125 45.83984375 C-20.33467109 86.97667628 -2.29823305 135.78163035 26.0625 165.6875 C34.10142267 173.47864765 43.28596266 178.35453618 54.55859375 179.13671875 C65.46678991 178.86147874 76.03631829 173.36484046 83.87109375 165.90234375 C90.37588522 159.10845743 90.37588522 159.10845743 94.6875 150.9375 C93.63119738 149.29179841 93.63119738 149.29179841 91.6875 147.9375 C86.5675465 147.36861628 83.85288079 148.01341549 79.6875 150.9375 C78.19943984 152.53776578 76.76317961 154.18735934 75.375 155.875 C70.62894092 161.22212248 67.02931016 164.31724141 59.87109375 165.33984375 C50.52651784 165.82915105 43.91589487 162.69597516 36.6875 157 C13.65380754 135.35109867 3.27997455 99.77943479 -3.3125 69.9375 C-3.57933594 68.75220703 -3.57933594 68.75220703 -3.8515625 67.54296875 C-7.48685288 50.60713181 -6.60487163 33.15594026 -6.3125 15.9375 C-11.39229446 15.9375 -12.09187166 17.17221169 -15.6875 20.625 Z M-258.13012695 122.14038086 C-275.60709889 145.35164737 -292.09147742 179.00723986 -288.8359375 208.77734375 C-287.08676391 219.33765297 -283.54276287 226.88483763 -275.3125 233.9375 C-264.76031847 241.17085024 -252.65379679 241.89971455 -240.3125 239.9375 C-220.48183495 235.67241224 -204.25832843 224.62829493 -189.56640625 210.98046875 C-188.00479267 209.56500272 -186.38869593 208.20825467 -184.734375 206.90234375 C-177.94925588 201.39764227 -172.61168421 193.83179218 -167.3125 186.9375 C-166.40177734 185.75414062 -166.40177734 185.75414062 -165.47265625 184.546875 C-164.92480469 183.78890625 -164.37695312 183.0309375 -163.8125 182.25 C-163.3278125 181.58613281 -162.843125 180.92226562 -162.34375 180.23828125 C-159.84079837 174.65404446 -161.60908275 169.08933785 -163.3125 163.5 C-163.869375 161.64568359 -163.869375 161.64568359 -164.4375 159.75390625 C-164.72625 158.82449219 -165.015 157.89507812 -165.3125 156.9375 C-165.89104736 156.9281543 -166.46959473 156.91880859 -167.06567383 156.90917969 C-194.78834938 156.34650674 -194.78834938 156.34650674 -205.3125 145.9375 C-213.03734417 136.50940511 -214.31646934 126.90983438 -213.3125 114.9375 C-210.92984194 104.83827891 -204.90945883 97.43955365 -196.3125 91.9375 C-196.84212147 89.47272315 -197.14481255 88.13313535 -198.8125 86.1875 C-219.28402246 75.95173877 -247.39636297 108.41035303 -258.13012695 122.14038086 Z M-74.3125 118.9375 C-87.01379944 135.16019221 -88.80301166 156.00472478 -87.3125 175.9375 C-84.42277483 178.82722517 -75.01039492 177.66799879 -70.97827148 177.78198242 C-69.25767342 177.84346117 -67.53780449 177.93187969 -65.82006836 178.04858398 C-56.23250284 178.94256401 -56.23250284 178.94256401 -47.56945801 175.62774658 C-44.01038768 171.8745477 -41.63530183 167.51940249 -39.3125 162.9375 C-38.62129732 161.68714435 -37.92560942 160.43925591 -37.22509766 159.1940918 C-30.68528449 147.2800563 -25.58506664 133.70976983 -29.5 120.1875 C-31.78863082 114.10597398 -35.37853629 109.8284054 -41.3125 106.9375 C-54.67794337 103.02431864 -65.38061692 109.14995753 -74.3125 118.9375 Z M291.20507812 182.44335938 C290.14331971 183.48871998 289.06784367 184.52024667 287.98242188 185.54101562 C283.47974779 189.85545911 279.96460806 194.47245204 276.5625 199.6875 C276.04115479 200.48027344 275.51980957 201.27304688 274.98266602 202.08984375 C271.27904577 207.81484097 268.03455623 213.51397768 265.6875 219.9375 C265.37296875 220.7625 265.0584375 221.5875 264.734375 222.4375 C262.50527273 228.92216115 260.97725484 236.62081135 263.58203125 243.1953125 C264.57958944 245.09838468 264.57958944 245.09838468 266.6875 245.9375 C272.62588777 246.78584111 275.78900096 245.13820201 280.4375 241.75390625 C292.73014775 231.83015416 301.20710348 218.34768749 309.9375 205.375 C310.51936066 204.51665054 310.51936066 204.51665054 311.11297607 203.64096069 C320.2462179 190.71102603 320.2462179 190.71102603 325.3125 176 C324.51819847 172.10792251 323.80660136 170.44799622 320.6875 167.9375 C308.67432694 164.92809005 298.99954168 174.75465516 291.20507812 182.44335938 Z M-90.0078125 203.3671875 C-101.1538507 215.07332812 -99.37860031 232.90526117 -99.81518555 247.89648438 C-99.8749658 249.93633312 -99.94010319 251.97596107 -100.00585938 254.015625 C-100.27423822 262.65983876 -100.36570564 271.28947194 -100.3125 279.9375 C-94.95573369 280.06103289 -89.59979474 280.15180573 -84.24194336 280.2121582 C-82.41920533 280.23731397 -80.59656828 280.27144285 -78.77416992 280.31469727 C-76.15518307 280.37530546 -73.53752847 280.40369761 -70.91796875 280.42578125 C-70.10224899 280.45158768 -69.28652924 280.4773941 -68.4460907 280.50398254 C-65.87620964 280.56177764 -65.87620964 280.56177764 -62.3125 279.9375 C-60.28431629 277.88443741 -60.28431629 277.88443741 -59.3125 274.9375 C-58.60033325 273.32814575 -58.60033325 273.32814575 -57.8737793 271.6862793 C-57.38304932 270.47367432 -56.89231934 269.26106934 -56.38671875 268.01171875 C-56.11664505 267.34646683 -55.84657135 266.6812149 -55.5683136 265.99580383 C-54.99742337 264.58711325 -54.42854838 263.17760449 -53.86157227 261.76733398 C-53.01722341 259.66782669 -52.16643999 257.57102693 -51.31445312 255.47460938 C-49.6245569 251.30440881 -47.96258482 247.12359535 -46.3125 242.9375 C-45.88343857 241.85411346 -45.88343857 241.85411346 -45.44570923 240.74884033 C-44.60015923 238.60303893 -43.76697371 236.45284144 -42.9375 234.30078125 C-42.68292526 233.65670822 -42.42835052 233.01263519 -42.1660614 232.3490448 C-39.66773509 225.78302797 -38.68057735 219.33400395 -41.16796875 212.6328125 C-45.83812704 204.1850859 -54.3353298 199.6320472 -63.3125 196.9375 C-72.81253089 194.77911819 -82.48908184 197.0265068 -90.0078125 203.3671875 Z M367.6875 357.9375 C366.68589844 358.43894531 365.68429687 358.94039063 364.65234375 359.45703125 C356.17273111 364.03452126 346.69175131 370.31450753 343.6875 379.9375 C343.01341974 385.89187561 344.40024389 390.0596361 347.6875 394.9375 C352.73274575 399.7366362 356.97426052 400.29981187 363.7109375 400.2109375 C372.37288429 399.4152206 378.83808708 395.13891426 384.6875 388.9375 C390.36684001 381.88687718 394.35605851 374.04252638 398.19702148 365.90283203 C399.13887026 363.90812468 400.09472933 361.92058518 401.05273438 359.93359375 C404.27253744 354.1612627 404.27253744 354.1612627 405.6875 347.9375 C393.16686393 347.6122707 378.73600662 352.34108663 367.6875 357.9375 Z " fill="#221E1F" transform="translate(353.3125,2.0625)"/>
<path d="M0 0 C1.07636719 0.00322266 2.15273437 0.00644531 3.26171875 0.00976562 C4.38964844 0.01814453 5.51757812 0.02652344 6.6796875 0.03515625 C8.38318359 0.04192383 8.38318359 0.04192383 10.12109375 0.04882812 C12.93234388 0.0606401 15.7434898 0.07711118 18.5546875 0.09765625 C21.62430034 6.46733334 23.14833504 13.04281663 24.7421875 19.91015625 C25.01482422 21.05419922 25.28746094 22.19824219 25.56835938 23.37695312 C27.5546875 31.79520089 27.5546875 31.79520089 27.5546875 34.09765625 C28.2146875 34.09765625 28.8746875 34.09765625 29.5546875 34.09765625 C29.70164062 33.51242187 29.84859375 32.9271875 30 32.32421875 C31.64091586 26.04347183 33.511708 19.84089748 35.4921875 13.66015625 C35.73275879 12.87914551 35.97333008 12.09813477 36.22119141 11.29345703 C37.63224137 6.97041941 38.87206035 4.00655971 42.5546875 1.09765625 C44.98359932 -0.11679966 46.56188193 -0.03158573 49.2734375 -0.03515625 C50.20542969 -0.03644531 51.13742188 -0.03773438 52.09765625 -0.0390625 C53.07347656 -0.03519531 54.04929687 -0.03132813 55.0546875 -0.02734375 C56.03050781 -0.03121094 57.00632812 -0.03507812 58.01171875 -0.0390625 C59.40970703 -0.03712891 59.40970703 -0.03712891 60.8359375 -0.03515625 C61.69251953 -0.03402832 62.54910156 -0.03290039 63.43164062 -0.03173828 C65.5546875 0.09765625 65.5546875 0.09765625 67.5546875 1.09765625 C67.75458539 6.65192436 67.29667212 10.86685625 65.50683594 16.19702148 C65.28892899 16.85672943 65.07102203 17.51643738 64.84651184 18.19613647 C64.13058182 20.35356456 63.3977115 22.50478959 62.6640625 24.65625 C62.15705739 26.169944 61.65099014 27.68395241 61.14581299 29.19825745 C60.08711608 32.36361314 59.02060331 35.52618117 57.94775391 38.68676758 C56.5804416 42.71528698 55.22745705 46.7484255 53.87969589 50.78352261 C52.83513791 53.90856072 51.78562278 57.03191479 50.73438263 60.15471077 C50.23439776 61.64020252 49.73528909 63.12598951 49.23711395 64.61208916 C42.31999336 85.20431473 42.31999336 85.20431473 38.65283203 89.13745117 C35.97020605 90.36514119 33.93303798 90.46998248 30.984375 90.4609375 C29.39302734 90.4599707 29.39302734 90.4599707 27.76953125 90.45898438 C26.11630859 90.43481445 26.11630859 90.43481445 24.4296875 90.41015625 C23.31980469 90.41337891 22.20992187 90.41660156 21.06640625 90.41992188 C12.82172076 90.36468951 12.82172076 90.36468951 10.5546875 88.09765625 C9.90636579 86.05950169 9.34429529 83.99353212 8.828125 81.91796875 C8.51875 80.67917969 8.209375 79.44039063 7.890625 78.1640625 C7.73303711 77.51711426 7.57544922 76.87016602 7.41308594 76.20361328 C6.93269693 74.23498885 6.43991186 72.26978394 5.9453125 70.3046875 C3.5546875 60.63169643 3.5546875 60.63169643 3.5546875 56.09765625 C1.2565832 56.96799121 1.2565832 56.96799121 0.48901367 59.80981445 C0.11236572 60.99406006 -0.26428223 62.17830566 -0.65234375 63.3984375 C-1.07826435 64.69873543 -1.50471369 65.99886026 -1.93164062 67.29882812 C-2.59633763 69.3507402 -3.25585789 71.40396826 -3.90551758 73.46069336 C-4.53570583 75.44500909 -5.18634776 77.42169551 -5.83984375 79.3984375 C-6.21987549 80.58606689 -6.59990723 81.77369629 -6.99145508 82.99731445 C-8.66466573 86.56542563 -10.08584715 88.06726091 -13.4453125 90.09765625 C-16.00073242 90.58349609 -16.00073242 90.58349609 -18.67578125 90.55859375 C-20.12694336 90.55279297 -20.12694336 90.55279297 -21.60742188 90.546875 C-22.60580078 90.52238281 -23.60417969 90.49789062 -24.6328125 90.47265625 C-25.64279297 90.47136719 -26.65277344 90.47007812 -27.69335938 90.46875 C-35.16416829 90.37880046 -35.16416829 90.37880046 -37.4453125 88.09765625 C-37.35449493 79.07088426 -33.89096868 70.62618621 -31.01953125 62.171875 C-30.46958267 60.53537492 -29.92009588 58.89871959 -29.37104797 57.26191711 C-28.22294944 53.84658878 -27.06804175 50.4336583 -25.90844727 47.0222168 C-24.42466823 42.65463812 -22.96012455 38.28088259 -21.50081158 33.90507793 C-20.37248891 30.52989825 -19.23309681 27.15853555 -18.09043312 23.78818703 C-17.54577493 22.17670042 -17.00478054 20.56397058 -16.46756554 18.94998741 C-15.71589069 16.69658503 -14.94920069 14.44884725 -14.1784668 12.2019043 C-13.96065048 11.53847015 -13.74283417 10.87503601 -13.51841736 10.1914978 C-10.96756394 2.87304062 -7.60622698 -0.04003277 0 0 Z " fill="#221E1F" transform="translate(199.4453125,314.90234375)"/>
<path d="M0 0 C6.49905792 5.37422098 9.21694367 10.40362366 10.3125 18.765625 C11.02178908 30.58710966 7.53110715 41.72765332 2.4375 52.265625 C2.06882812 53.04292969 1.70015625 53.82023437 1.3203125 54.62109375 C-6.42172192 69.70471253 -18.55494025 79.92256114 -34.5625 85.265625 C-46.10086674 88.77490533 -59.31591411 88.71461399 -70.5625 84.265625 C-76.82630765 80.9017283 -81.41492624 76.14162869 -83.5625 69.265625 C-86.01973793 50.88614938 -80.10847967 33.39756477 -69.5703125 18.4375 C-61.53688862 7.97403686 -51.99606307 1.52511193 -39.5625 -2.734375 C-38.84964844 -2.98058594 -38.13679688 -3.22679687 -37.40234375 -3.48046875 C-26.216917 -6.60549164 -9.83139142 -6.65417346 0 0 Z M-45.5625 29.265625 C-50.0647307 36.10535697 -53.38882643 43.99609103 -53.5625 52.265625 C-52.47359316 55.71383001 -51.80435685 57.47947099 -48.7421875 59.41796875 C-44.65403301 61.00780661 -40.73727374 60.32658254 -36.5625 59.265625 C-28.63875836 55.29688785 -24.50303617 48.47171615 -21.6875 40.328125 C-20.40009375 35.58812924 -20.03356026 30.99759673 -21.5625 26.265625 C-23.11501566 24.21912708 -24.11498946 23.40265342 -26.578125 22.6484375 C-34.44914737 21.74024261 -39.6493214 23.97245104 -45.5625 29.265625 Z " fill="#221E1F" transform="translate(425.5625,318.734375)"/>
<path d="M0 0 C1.01900391 -0.01611328 2.03800781 -0.03222656 3.08789062 -0.04882812 C4.06048828 -0.04947266 5.03308594 -0.05011719 6.03515625 -0.05078125 C6.92726807 -0.05376221 7.81937988 -0.05674316 8.73852539 -0.05981445 C9.82701782 0.1244812 9.82701782 0.1244812 10.9375 0.3125 C12.9375 3.3125 12.9375 3.3125 12.375 7.0625 C11.09672974 12.19251178 9.36789888 17.18642878 7.61499023 22.17089844 C6.62297933 25.02806758 5.9375 27.26247213 5.9375 30.3125 C8.22910319 30.33942484 10.52079546 30.35886124 12.8125 30.375 C14.72675781 30.39240234 14.72675781 30.39240234 16.6796875 30.41015625 C19.82414652 30.54426569 19.82414652 30.54426569 21.9375 29.3125 C22.90616389 27.08226292 22.90616389 27.08226292 23.7421875 24.359375 C24.07863281 23.34746094 24.41507812 22.33554687 24.76171875 21.29296875 C25.45689646 19.15574956 26.14964398 17.01773822 26.83984375 14.87890625 C30.11421131 5.05580357 30.11421131 5.05580357 33.9375 1.3125 C37.83071764 -0.63410882 42.65540941 0.08407224 46.9375 0.0625 C47.96101563 0.041875 48.98453125 0.02125 50.0390625 0 C51.01617187 -0.00515625 51.99328125 -0.0103125 53 -0.015625 C53.89847656 -0.0249707 54.79695313 -0.03431641 55.72265625 -0.04394531 C56.45355469 0.07368164 57.18445313 0.19130859 57.9375 0.3125 C59.9375 3.3125 59.9375 3.3125 59.39404297 6.97167969 C57.52770959 14.34541176 55.02944455 21.55111694 52.6328125 28.765625 C52.10708285 30.35501349 51.58143938 31.94443048 51.05587769 33.53387451 C49.95800874 36.84985228 48.85633004 40.1645373 47.75244141 43.47851562 C46.34125452 47.71737921 44.94398544 51.96069192 43.55003548 56.20524979 C42.47106453 59.48306197 41.38260561 62.75766541 40.29150009 66.03145599 C39.77218802 67.59476381 39.25630699 69.15921587 38.74399185 70.72483063 C38.02693009 72.91278107 37.29663805 75.09588544 36.56298828 77.27832031 C35.94582443 79.13955536 35.94582443 79.13955536 35.31619263 81.03839111 C33.66454766 84.96070517 31.84351484 88.35949258 27.9375 90.3125 C24.46425094 90.5780943 20.98227721 90.54401412 17.5 90.5625 C16.53255859 90.583125 15.56511719 90.60375 14.56835938 90.625 C13.17520508 90.63273437 13.17520508 90.63273437 11.75390625 90.640625 C10.90256104 90.6499707 10.05121582 90.65931641 9.17407227 90.66894531 C6.9375 90.3125 6.9375 90.3125 5.13085938 88.9777832 C3.9375 87.3125 3.9375 87.3125 4.02734375 84.33984375 C5.04746234 79.06437331 6.82571809 73.97078474 8.5 68.875 C8.82935547 67.85728516 9.15871094 66.83957031 9.49804688 65.79101562 C10.30613532 63.29648174 11.11940128 60.80376517 11.9375 58.3125 C9.49815775 58.17748106 7.06625896 58.07846103 4.625 58 C3.58956055 57.9371582 3.58956055 57.9371582 2.53320312 57.87304688 C0.24456875 57.76408413 0.24456875 57.76408413 -3.0625 58.3125 C-5.4359246 61.55400438 -6.72831285 64.88234192 -7.9296875 68.69140625 C-8.42275391 70.19670898 -8.42275391 70.19670898 -8.92578125 71.73242188 C-9.60067139 73.82875053 -10.26733815 75.9277443 -10.92578125 78.02929688 C-12.2854494 82.14268982 -13.4810466 85.56615682 -16.15625 89 C-20.62884398 91.01988115 -24.83966884 90.85237246 -29.6875 90.75 C-30.64140625 90.75708984 -31.5953125 90.76417969 -32.578125 90.77148438 C-39.38650826 90.70915411 -39.38650826 90.70915411 -41.91943359 89.22290039 C-43.73685182 86.18545964 -42.69486104 83.7194113 -42.0625 80.3125 C-41.36563181 77.86017058 -40.61014931 75.42403959 -39.80932617 73.00366211 C-39.58151962 72.3100206 -39.35371307 71.61637909 -39.1190033 70.90171814 C-38.37063557 68.62900942 -37.61350925 66.35934291 -36.85546875 64.08984375 C-36.32813223 62.50005139 -35.80106234 60.91017057 -35.27424622 59.32020569 C-34.17120386 55.9961952 -33.0635554 52.67376261 -31.95288086 49.35229492 C-30.53383468 45.10675373 -29.12849298 40.85681862 -27.72684765 36.60550594 C-26.64273626 33.32364037 -25.55028171 30.04459758 -24.45543861 26.76629829 C-23.93395494 25.20082417 -23.41528746 23.63440887 -22.89955711 22.06702995 C-22.17626728 19.8723506 -21.44152151 17.68182635 -20.70385742 15.49194336 C-20.28939865 14.2473082 -19.87493988 13.00267303 -19.44792175 11.72032166 C-15.12682152 1.09140024 -10.61207867 -0.03368914 0 0 Z " fill="#221E1F" transform="translate(292.0625,314.6875)"/>
<path d="M0 0 C1.45116211 0.00580078 1.45116211 0.00580078 2.93164062 0.01171875 C3.93001953 0.03621094 4.92839844 0.06070312 5.95703125 0.0859375 C7.47200195 0.08787109 7.47200195 0.08787109 9.01757812 0.08984375 C16.48838704 0.17979329 16.48838704 0.17979329 18.76953125 2.4609375 C18.46166118 8.98998524 16.53416375 14.74060553 14.390625 20.875 C13.71025573 22.87238537 13.02991813 24.86978152 12.34960938 26.8671875 C11.2766998 29.98623088 10.20072124 33.10419516 9.12329102 36.22167969 C8.07985537 39.24942772 7.04737656 42.28075442 6.015625 45.3125 C5.69065536 46.24075592 5.36568573 47.16901184 5.03086853 48.12539673 C3.47185745 52.71536169 2.34748052 56.53955176 2.76953125 61.4609375 C5.78659973 63.22602518 7.73398638 63.7091243 11.20703125 63.3359375 C11.94824219 63.27148438 12.68945312 63.20703125 13.453125 63.140625 C16.65729485 62.200447 18.33798733 60.75768168 20.76953125 58.4609375 C21.93964535 56.07886103 22.83718854 53.93645198 23.671875 51.4453125 C23.91888657 50.74952087 24.16589813 50.05372925 24.4203949 49.33685303 C25.2239303 47.05137143 26.00010412 44.75811426 26.76953125 42.4609375 C27.03437317 41.67404541 27.29921509 40.88715332 27.57208252 40.07641602 C29.80031313 33.43413953 32.01769813 26.78717485 34.16772461 20.11914062 C34.97964307 17.60806239 35.81212084 15.10460329 36.6484375 12.6015625 C36.88816788 11.8411969 37.12789825 11.0808313 37.37489319 10.29742432 C38.93272777 5.70639936 40.39765059 2.98592163 44.76953125 0.4609375 C47.32495117 -0.02490234 47.32495117 -0.02490234 50 0 C51.45116211 0.00580078 51.45116211 0.00580078 52.93164062 0.01171875 C53.93001953 0.03621094 54.92839844 0.06070312 55.95703125 0.0859375 C57.47200195 0.08787109 57.47200195 0.08787109 59.01757812 0.08984375 C66.48838704 0.17979329 66.48838704 0.17979329 68.76953125 2.4609375 C68.45173499 9.08169288 66.50429339 15.0307703 64.41796875 21.28515625 C64.08084869 22.30841507 63.74372864 23.33167389 63.39639282 24.38594055 C62.68232989 26.54462006 61.9643464 28.7020062 61.24267578 30.8581543 C60.15523035 34.11638063 59.08869878 37.38094836 58.0234375 40.64648438 C52.15587469 58.41121417 46.13579051 75.60009378 28.97265625 85.4375 C14.51556972 92.15338062 -2.22926377 94.16677013 -17.44140625 88.86328125 C-23.62262022 85.75535994 -26.97699223 80.86058029 -29.23046875 74.4609375 C-31.24024405 62.42166528 -26.38524914 51.20593688 -22.54296875 40.0234375 C-21.90905795 38.13014211 -21.27688491 36.23626396 -20.64648438 34.34179688 C-19.14448897 29.84354962 -17.60619553 25.35882073 -16.05523682 20.8772583 C-15.29064034 18.63722205 -14.55650259 16.38996853 -13.83349609 14.13623047 C-13.21595459 12.26862061 -13.21595459 12.26862061 -12.5859375 10.36328125 C-12.2458667 9.30488037 -11.9057959 8.24647949 -11.55541992 7.15600586 C-9.01951096 1.9977418 -5.67439922 -0.05282365 0 0 Z " fill="#221E20" transform="translate(112.23046875,314.5390625)"/>
<path d="M0 0 C0.96744141 0.01160156 1.93488281 0.02320313 2.93164062 0.03515625 C4.42920898 0.09123047 4.42920898 0.09123047 5.95703125 0.1484375 C6.96701172 0.16261719 7.97699219 0.17679687 9.01757812 0.19140625 C16.40182655 0.33958515 16.40182655 0.33958515 18.76953125 1.5234375 C19.17691485 8.27590639 17.80130374 13.39386544 15.5234375 19.71875 C15.1928685 20.66982635 14.8622995 21.62090271 14.52171326 22.60079956 C13.470078 25.62088587 12.40205498 28.63482257 11.33203125 31.6484375 C10.26823471 34.67003391 9.20803738 37.69281145 8.15306091 40.71749878 C7.49770364 42.59379604 6.83687212 44.46819283 6.16981506 46.34036255 C3.89063599 52.79224346 3.89063599 52.79224346 2.76953125 59.5234375 C3.9938828 62.16581596 3.9938828 62.16581596 6.76953125 63.5234375 C12.21250453 63.847786 16.3115556 62.66106284 20.76953125 59.5234375 C27.26531032 48.99321246 30.02470385 34.82686208 33.76098633 23.11035156 C34.66067505 20.29653768 35.57531678 17.48794162 36.4921875 14.6796875 C36.89704124 13.3890741 36.89704124 13.3890741 37.31007385 12.0723877 C38.76737816 7.64365551 39.96142558 4.47889548 43.76953125 1.5234375 C46.19844307 0.30898159 47.77672568 0.39419552 50.48828125 0.390625 C51.42027344 0.38933594 52.35226562 0.38804687 53.3125 0.38671875 C54.28832031 0.39058594 55.26414062 0.39445312 56.26953125 0.3984375 C57.24535156 0.39457031 58.22117187 0.39070313 59.2265625 0.38671875 C60.62455078 0.38865234 60.62455078 0.38865234 62.05078125 0.390625 C62.90736328 0.39175293 63.76394531 0.39288086 64.64648438 0.39404297 C66.76953125 0.5234375 66.76953125 0.5234375 68.76953125 1.5234375 C69.24210313 8.61885696 67.57557917 14.18395338 65.26171875 20.85546875 C64.71706467 22.46406013 64.71706467 22.46406013 64.16140747 24.10514832 C63.3921714 26.36712421 62.6168879 28.62705149 61.8359375 30.88500977 C60.65378206 34.30914239 59.49547846 37.74066695 58.33984375 41.17382812 C57.58605592 43.38069404 56.83089124 45.58709024 56.07421875 47.79296875 C55.56288895 49.31069633 55.56288895 49.31069633 55.04122925 50.85908508 C49.57510301 66.52874954 41.75226845 78.68600024 26.76953125 86.5234375 C14.36439673 91.95068385 -2.18153083 94.50813178 -15.23046875 89.5234375 C-21.47132582 86.71049645 -25.65289292 82.93433123 -28.23046875 76.5234375 C-32.30990872 61.78946021 -23.50605039 43.64004693 -18.79467773 29.79223633 C-17.78322754 26.8071887 -16.794824 23.81508437 -15.80664062 20.82226562 C-15.15894084 18.90578009 -14.50990138 16.98974668 -13.859375 15.07421875 C-13.56962296 14.18777176 -13.27987091 13.30132477 -12.9813385 12.38801575 C-10.65858929 5.68015596 -7.98854223 -0.17935396 0 0 Z " fill="#221E1F" transform="translate(461.23046875,314.4765625)"/>
<path d="M0 0 C1.11455566 -0.00637985 2.22911133 -0.0127597 3.37744141 -0.01933289 C4.58577637 -0.02044571 5.79411133 -0.02155853 7.0390625 -0.02270508 C8.27446777 -0.02603348 9.50987305 -0.02936188 10.78271484 -0.03279114 C13.39875922 -0.03786123 16.01481009 -0.04019944 18.63085938 -0.04003906 C21.31972951 -0.03995755 24.00843022 -0.04693479 26.69726562 -0.06054688 C30.56125141 -0.07878663 34.42503808 -0.08377188 38.2890625 -0.08520508 C39.49739746 -0.09239059 40.70573242 -0.09957611 41.95068359 -0.10697937 C43.62251709 -0.10236443 43.62251709 -0.10236443 45.328125 -0.09765625 C46.31248535 -0.09908127 47.2968457 -0.10050629 48.31103516 -0.10197449 C50.6640625 0.14526367 50.6640625 0.14526367 52.6640625 2.14526367 C52.42415279 9.70241962 51.08351507 18.76275503 45.51733398 24.26879883 C41.98551377 26.59151383 39.8847944 26.64277794 35.68359375 26.64916992 C34.70249886 26.66330177 34.70249886 26.66330177 33.70158386 26.67771912 C31.6262528 26.70624978 29.55207341 26.70945049 27.4765625 26.70776367 C25.39050983 26.71136902 23.3052847 26.72083131 21.21940613 26.7485199 C19.33496503 26.77301473 17.45027379 26.77524205 15.56567383 26.77636719 C14.60814209 26.89810303 13.65061035 27.01983887 12.6640625 27.14526367 C10.3867124 29.96036361 10.3867124 29.96036361 10.6640625 33.14526367 C11.22391846 33.15984619 11.78377441 33.17442871 12.3605957 33.18945312 C14.89994387 33.26397719 17.43798328 33.36061948 19.9765625 33.45776367 C21.29817383 33.49160156 21.29817383 33.49160156 22.64648438 33.52612305 C23.49404297 33.56157227 24.34160156 33.59702148 25.21484375 33.63354492 C26.38527222 33.67282104 26.38527222 33.67282104 27.5793457 33.71289062 C30.14587427 34.24519208 31.08347238 35.08582172 32.6640625 37.14526367 C32.65288586 42.81181957 30.00192671 49.59660558 26.6640625 54.14526367 C23.69287283 55.95094555 21.42123683 56.40093912 17.96875 56.45385742 C16.64810547 56.4915625 16.64810547 56.4915625 15.30078125 56.5300293 C13.45189588 56.56533333 11.60292816 56.59654966 9.75390625 56.6237793 C8.43712891 56.66341797 8.43712891 56.66341797 7.09375 56.70385742 C6.29179199 56.71731201 5.48983398 56.7307666 4.66357422 56.74462891 C2.26337746 56.98052873 2.26337746 56.98052873 0.6640625 60.14526367 C0.6640625 61.13526367 0.6640625 62.12526367 0.6640625 63.14526367 C1.53208496 63.15984619 2.40010742 63.17442871 3.29443359 63.18945312 C6.51145129 63.25046479 9.72781913 63.32460758 12.94433594 63.40771484 C14.33712339 63.4409924 15.73004661 63.46901564 17.12304688 63.49169922 C19.12397628 63.52519056 21.12453171 63.57907673 23.125 63.63354492 C24.32946777 63.659729 25.53393555 63.68591309 26.77490234 63.71289062 C28.20503662 63.92691528 28.20503662 63.92691528 29.6640625 64.14526367 C31.77454825 67.3109923 31.92758451 68.23289594 31.26953125 71.84057617 C27.63078059 85.69130449 27.63078059 85.69130449 23.42216492 88.80265808 C20.3394377 90.30328647 18.39759088 90.51977345 14.98754883 90.51757812 C13.87321976 90.52380692 12.75889069 90.53003571 11.61079407 90.53645325 C9.82151741 90.52263863 9.82151741 90.52263863 7.99609375 90.50854492 C6.1493531 90.50929268 6.1493531 90.50929268 4.26530457 90.51005554 C1.66716901 90.50771764 -0.93096891 90.49800591 -3.52905273 90.48144531 C-6.19779176 90.46562307 -8.86528413 90.45630315 -11.53393555 90.4609375 C-15.37820876 90.46733002 -19.22215587 90.45945633 -23.06640625 90.44604492 C-24.86479195 90.44741203 -24.86479195 90.44741203 -26.69950867 90.44880676 C-27.80438126 90.43927475 -28.90925385 90.42974274 -30.04760742 90.41992188 C-31.02291916 90.41531448 -31.9982309 90.41070709 -33.00309753 90.40596008 C-35.3359375 90.14526367 -35.3359375 90.14526367 -37.3359375 88.14526367 C-37.09289037 80.50698595 -34.79507713 73.8178827 -32.29296875 66.64916992 C-31.88688889 65.46161606 -31.48080902 64.27406219 -31.06242371 63.05052185 C-29.98464459 59.90366061 -28.89906325 56.7597283 -27.80932617 53.61700439 C-26.29590607 49.24488634 -24.79912864 44.86702511 -23.29830933 40.49057007 C-22.46642343 38.06921283 -21.63175987 35.64880798 -20.79421997 33.22940063 C-18.98506571 27.99800651 -17.19633783 22.7657277 -15.52490234 17.48852539 C-15.25779953 16.65232162 -14.99069672 15.81611786 -14.71549988 14.95457458 C-14.24001626 13.45391456 -13.77430794 11.95010019 -13.32124329 10.44252014 C-12.03481383 6.39487305 -10.6449277 3.8393562 -7.3359375 1.14526367 C-4.75582105 -0.14479455 -2.8890191 0.01118732 0 0 Z " fill="#221E1F" transform="translate(620.3359375,314.854736328125)"/>
<path d="M0 0 C0.99 0.99 0.99 0.99 2 2 C1.82049487 7.70964408 0.10937821 10.87527402 -3.375 15.3125 C-4.16648437 16.33988281 -4.95796875 17.36726563 -5.7734375 18.42578125 C-8.52259097 21.6041885 -10.02119985 22.9058846 -14.25 23.3125 C-18.41614334 22.96532139 -21.1779358 21.64744147 -25 20 C-30.10344042 18.89132156 -34.26655638 18.4042406 -39 21 C-39 21.99 -39 22.98 -39 24 C-37.515 24.38091797 -37.515 24.38091797 -36 24.76953125 C-31.98910979 25.80818776 -27.99373174 26.8971624 -24 28 C-22.72962891 28.3403125 -22.72962891 28.3403125 -21.43359375 28.6875 C-16.15272597 30.34100067 -12.87326685 33.37692358 -10 38 C-7.19805557 46.83037031 -10.05216055 56.20062116 -13.875 64.3125 C-19.05536152 73.8389326 -26.35967431 79.0441147 -36.625 82.3125 C-50.15464265 86.27117322 -66.92081881 87.35236785 -79.96484375 81.05078125 C-82.94045772 79.21012029 -85.43178983 77.13642033 -87 74 C-86.83838497 68.10530443 -84.12654171 65.23479414 -80.25 61.1875 C-79.7240625 60.60291016 -79.198125 60.01832031 -78.65625 59.41601562 C-76.34579909 56.94829392 -74.61571165 55.24158457 -71.44140625 53.99609375 C-68.45620373 54.00087007 -66.43673411 54.72119697 -63.6875 55.875 C-55.53192185 59.01931929 -49.45449815 59.36804231 -41 57 C-41 56.34 -41 55.68 -41 55 C-41.81621826 54.80422363 -41.81621826 54.80422363 -42.64892578 54.60449219 C-45.14411394 53.99860129 -47.63440101 53.3744757 -50.125 52.75 C-50.9809375 52.54503906 -51.836875 52.34007812 -52.71875 52.12890625 C-60.30318364 50.20362694 -65.41039472 47.62942985 -70 41 C-72.87150211 32.38549368 -70.80593215 23.96645425 -67 16 C-60.78741854 4.49385801 -52.02696804 -1.48690171 -39.859375 -5.75 C-27.0782695 -9.26236487 -10.6005247 -8.42605809 0 0 Z " fill="#221E1F" transform="translate(597,321)"/>
<path d="M0 0 C1.13457642 -0.00960754 2.26915283 -0.01921509 3.43811035 -0.02911377 C4.66831909 -0.03336365 5.89852783 -0.03761353 7.16601562 -0.04199219 C8.42361694 -0.04769226 9.68121826 -0.05339233 10.97692871 -0.05926514 C13.6400922 -0.06872421 16.30314272 -0.07561675 18.96630859 -0.07910156 C22.38304477 -0.08459553 25.79938428 -0.10864386 29.21599579 -0.13707352 C32.47013928 -0.16014089 35.72430178 -0.16214511 38.97851562 -0.16699219 C40.82382874 -0.18551239 40.82382874 -0.18551239 42.7064209 -0.20440674 C43.84099731 -0.20140564 44.97557373 -0.19840454 46.14453125 -0.1953125 C47.14665649 -0.19895813 48.14878174 -0.20260376 49.18127441 -0.20635986 C49.97030151 -0.08508728 50.75932861 0.0361853 51.57226562 0.16113281 C53.57226562 3.16113281 53.57226562 3.16113281 53.47070312 5.07128906 C49.63242732 20.85405001 49.63242732 20.85405001 44.57226562 25.16113281 C41.61941843 26.63755641 38.88777579 26.3838622 35.59570312 26.47753906 C34.56783188 26.50871071 34.56783188 26.50871071 33.51919556 26.54051208 C31.32865493 26.60593466 29.13799374 26.66485835 26.94726562 26.72363281 C25.46287812 26.76682499 23.97850284 26.81043951 22.49414062 26.85449219 C18.85364478 26.96160834 15.21301312 27.06289644 11.57226562 27.16113281 C11.24226563 29.80113281 10.91226563 32.44113281 10.57226562 35.16113281 C11.47319946 35.19871704 11.47319946 35.19871704 12.39233398 35.23706055 C15.09838 35.35268561 17.80404846 35.47556217 20.50976562 35.59863281 C21.45529297 35.63794922 22.40082031 35.67726563 23.375 35.71777344 C24.27412109 35.75966797 25.17324219 35.8015625 26.09960938 35.84472656 C26.93226318 35.88138428 27.76491699 35.91804199 28.62280273 35.95581055 C30.57226562 36.16113281 30.57226562 36.16113281 31.57226562 37.16113281 C32.26527711 44.78425915 30.31218889 51.06537123 26.05664062 57.42675781 C21.57675468 60.55422536 16.13713126 59.67212509 10.83789062 59.64941406 C5.7724655 59.69622648 5.7724655 59.69622648 1.15820312 61.54003906 C-1.79954323 66.42833415 -3.06586507 71.9856084 -4.60742188 77.45214844 C-6.44434031 83.477411 -7.76310285 87.09118511 -13.42773438 90.16113281 C-17.04167969 90.76443029 -20.52405917 90.7260866 -24.17773438 90.59863281 C-25.13550781 90.59283203 -26.09328125 90.58703125 -27.08007812 90.58105469 C-34.1321437 90.45672349 -34.1321437 90.45672349 -36.42773438 88.16113281 C-36.87027762 82.8900883 -35.87817822 78.50194056 -34.19628906 73.56103516 C-33.95887497 72.83652664 -33.72146088 72.11201813 -33.47685242 71.36555481 C-32.69491331 68.9891127 -31.89785252 66.61808098 -31.09960938 64.24707031 C-30.54807201 62.58773845 -29.99715803 60.92819926 -29.44683838 59.26846313 C-28.29347522 55.79807646 -27.13258877 52.33032406 -25.96630859 48.86425781 C-24.47472017 44.42939036 -23.00209173 39.98849906 -21.53504562 35.54546165 C-20.40164511 32.119924 -19.2582314 28.69779389 -18.11179352 25.27659988 C-17.56491364 23.64061737 -17.02113116 22.00359596 -16.48055267 20.36552048 C-15.72275484 18.07427949 -14.95156428 15.78797763 -14.17675781 13.50244141 C-13.95737045 12.83010971 -13.73798309 12.15777802 -13.51194763 11.46507263 C-10.89222023 3.84545305 -8.09017136 0.05512256 0 0 Z " fill="#221E1F" transform="translate(45.427734375,314.8388671875)"/>
<path d="M0 0 C2.4375 1.5 2.4375 1.5 4 4 C4.61014545 6.8089715 4.65360928 9.19636021 4 12 C1.9375 14.5625 1.9375 14.5625 -1 16 C-4.49672962 15.93971156 -6.8982551 15.69777177 -9.875 13.8125 C-11.52261692 11.15800608 -11.87533099 9.11672513 -12 6 C-9.1840965 -0.03407893 -6.51096853 -0.56129039 0 0 Z " fill="#221E1F" transform="translate(295,238)"/>
</svg>
