<?xml version="1.0" encoding="utf-8"?>
<!-- Generator: Adobe Illustrator 16.0.0, SVG Export Plug-In . SVG Version: 6.00 Build 0)  -->
<!DOCTYPE svg PUBLIC "-//W3C//DTD SVG 1.1//EN" "http://www.w3.org/Graphics/SVG/1.1/DTD/svg11.dtd">
<svg version="1.1" id="Calque_3" xmlns="http://www.w3.org/2000/svg" xmlns:xlink="http://www.w3.org/1999/xlink" x="0px" y="0px"
	 width="450px" height="240px" viewBox="0 0 450 240" enable-background="new 0 0 450 240" xml:space="preserve">
<g>
	<path fill-rule="evenodd" clip-rule="evenodd" d="M112.293,26.958c-1.417,3.374-2.822,6.676-4.188,9.996
		c-0.461,1.119-1.155,0.84-2,0.536c-3.32-1.199-6.583-2.695-10.005-3.444c-10.712-2.343-21.335-2.875-31.117,3.425
		c-10.229,6.589-16.308,15.999-18.532,27.898c-1.7,9.095-0.71,17.849,3.715,26.099c5.646,10.527,16.609,16.018,28.415,14.057
		c3.281-0.546,6.493-1.499,9.743-2.24c1.068-0.244,1.612-0.87,1.747-1.948c0.599-4.821,1.217-9.639,1.832-14.457
		c0.151-1.19-0.078-1.958-1.563-1.877c-1.759,0.096-3.528,0.022-5.697,0.022c0.593-3.787,1.15-7.345,1.724-11.018
		c7.639,0,15.144,0,22.912,0c-0.333,2.433-0.625,4.724-0.96,7.006c-0.962,6.551-1.932,13.101-2.919,19.648
		c-0.48,3.181-0.967,6.363-1.556,9.525c-0.09,0.483-0.667,1.035-1.157,1.264c-5.505,2.578-11.218,4.633-17.246,5.448
		c-4.936,0.667-9.937,1.115-14.914,1.16c-19.734,0.176-33.232-12.532-38.352-28.968c-1.911-6.137-2.721-12.385-2.162-18.712
		c1.208-13.659,5.701-25.979,15.829-35.719c8.2-7.886,17.98-12.438,29.297-13.712c12.162-1.369,23.935-0.026,35.21,4.915
		c0.347,0.153,0.703,0.288,1.038,0.462C111.607,26.437,111.798,26.607,112.293,26.958z"/>
	<path fill-rule="evenodd" clip-rule="evenodd" d="M291.324,17.285c-4.561,33.141-9.092,66.059-13.672,99.331
		c-2.311,0-4.627,0-6.943,0c-2.273,0-4.549,0-7.266,0c0.648-4.96,1.27-9.721,1.939-14.85c-0.582,0.719-0.99,1.206-1.381,1.707
		c-3.305,4.262-6.639,8.516-11.33,11.371c-4.588,2.794-9.564,3.968-14.9,2.821c-5.494-1.181-8.436-4.985-9.948-10.115
		c-2.003-6.789-1.163-13.526,0.558-20.203c2.273-8.824,6.723-16.469,13.045-22.994c4.471-4.615,9.775-8.005,15.934-9.936
		c3.793-1.191,7.707-1.383,11.635-0.854c2.941,0.396,2.986,0.378,3.387-2.619c1.094-8.191,2.238-16.375,3.334-24.567
		c0.326-2.439,0.602-4.89,0.807-7.342c0.09-1.073,0.529-1.727,1.586-1.736C282.344,17.264,286.58,17.285,291.324,17.285z
		 M241.557,99.038c0.236,1.088,0.416,2.745,0.967,4.268c0.869,2.402,2.895,3.221,5.201,2.119c1.35-0.643,2.691-1.474,3.764-2.505
		c7.545-7.256,12.58-16.225,17.164-25.489c0.135-0.274,0.215-0.591,0.254-0.896c0.422-3.252,0.664-6.541,1.311-9.747
		c0.336-1.672-0.379-2.185-1.6-2.611c-5.496-1.918-10.293-0.935-14.35,3.374C246.08,76.248,242.609,86.853,241.557,99.038z"/>
	<path fill-rule="evenodd" clip-rule="evenodd" d="M225.979,223.896c-69.621,0-139.243,0-208.865,0c-2.62,0-3.197-0.486-3.124-2.616
		c0.051-1.52,0.836-2.304,2.552-2.401c1.264-0.072,2.536-0.033,3.804-0.033c137.846,0,275.693,0,413.539,0.006
		c0.758,0,1.537-0.033,2.27,0.123c1.637,0.347,2.014,1.539,1.813,3.03c-0.186,1.378-1.031,1.935-2.361,1.894
		c-0.57-0.016-1.143-0.002-1.713-0.002C364.588,223.896,295.283,223.896,225.979,223.896z"/>
	<path fill-rule="evenodd" clip-rule="evenodd" d="M167.959,91.483c0.499-11.387,3.889-21.481,12.212-29.438
		c5.065-4.842,11.155-7.626,18.222-8.422c5.391-0.607,10.446,0.073,15.216,2.607c7.193,3.821,11.271,9.993,12.78,17.833
		c2.424,12.591-1.13,23.663-9.349,33.233c-5.206,6.063-11.941,9.543-19.975,10.499c-6.101,0.726-11.862-0.131-17.175-3.227
		c-6.774-3.949-10.05-10.25-11.398-17.715C168.167,95.059,168.124,93.214,167.959,91.483z M183.333,92.601
		c0.125,1.368,0.252,3.318,0.502,5.252c0.112,0.864,0.49,1.692,0.715,2.545c2.123,8.03,9.407,8.669,14.729,6.425
		c4.416-1.862,6.694-5.817,8.729-9.857c2.24-4.446,3.344-9.267,3.751-14.164c0.414-4.985,0.158-9.98-2.363-14.56
		c-1.752-3.185-4.34-4.708-8.027-4.613c-5.089,0.13-8.694,2.769-11.521,6.638C185.127,76.727,183.554,84.17,183.333,92.601z"/>
	<path fill-rule="evenodd" clip-rule="evenodd" d="M109.097,90.933c0.618-13.222,5.023-24.705,16.382-32.282
		c9.138-6.097,19.153-7.445,29.278-2.29c8.059,4.104,11.858,11.355,12.984,19.989c1.237,9.49-1.05,18.301-6.244,26.323
		c-4.718,7.286-11.104,12.497-19.658,14.438c-9.792,2.222-18.9,0.957-26.18-6.762c-4.208-4.463-6.023-9.991-6.548-15.994
		C109.012,93.222,109.097,92.074,109.097,90.933z M153.034,78.975c-0.349-2.031-0.557-4.96-1.394-7.696
		c-1.095-3.582-2.944-6.893-7.154-7.514c-5.02-0.741-9.333,1.052-12.459,4.921c-7.03,8.698-8.676,18.846-7.112,29.63
		c0.414,2.853,1.436,5.654,3.898,7.56c4.228,3.274,11.227,2.542,15.2-1.677C150.448,97.364,152.277,88.82,153.034,78.975z"/>
	<path fill-rule="evenodd" clip-rule="evenodd" d="M198.27,200.229c-3.14,0-6.03,0-9.192,0c0.13-1.378,0.196-2.661,0.379-3.928
		c1.349-9.363,2.758-18.717,4.075-28.086c1.457-10.364,2.825-20.741,4.25-31.109c0.638-4.632,0.674-4.408,5.344-4.704
		c3.098-0.196,4.69,0.985,6.272,3.545c8.636,13.968,17.481,27.806,26.26,41.685c0.295,0.463,0.646,0.887,1.273,1.743
		c0.434-2.896,0.809-5.35,1.164-7.808c0.848-5.864,1.705-11.729,2.521-17.599c0.834-5.996,1.623-12,2.441-17.998
		c0.111-0.813,0.143-1.672,0.453-2.406c0.193-0.459,0.828-1.008,1.289-1.029c2.338-0.109,4.688-0.041,7.031-0.074
		c1.232-0.02,1.324,0.78,1.221,1.65c-0.262,2.191-0.57,4.377-0.881,6.563c-0.84,5.868-1.691,11.736-2.533,17.604
		c-0.842,5.861-1.691,11.722-2.514,17.588c-0.832,5.933-1.633,11.868-2.447,17.803c-0.258,1.872-0.453,3.758-0.832,5.604
		c-0.086,0.419-0.797,0.972-1.254,1.005c-1.639,0.124-3.309,0.179-4.936-0.002c-0.672-0.076-1.492-0.672-1.871-1.268
		c-8.352-13.109-16.651-26.255-24.965-39.388c-1.718-2.715-3.455-5.417-5.598-8.087C202.907,167.743,200.593,183.954,198.27,200.229
		z"/>
	<path fill-rule="evenodd" clip-rule="evenodd" d="M360.248,65.389c-3.898,0-7.398,0-11.195,0c0.867-3.441,1.576-6.497,2.465-9.499
		c0.139-0.469,1.094-0.96,1.691-0.985c2.594-0.108,5.193-0.045,8.133-0.045c0.398-2.535,0.793-5.053,1.195-7.569
		c1.059-6.627,2.375-13.202,5.748-19.103c4.475-7.828,11.4-11.84,20.352-12.077c3.764-0.098,7.553,0.401,11.318,0.736
		c0.963,0.084,1.891,0.576,2.988,0.931c-0.805,3.532-1.574,6.891-2.365,10.358c-2.086-0.373-4.039-0.728-5.992-1.07
		c-6.834-1.194-12.813,1.978-15.078,8.551c-1.344,3.898-1.947,8.061-2.77,12.127c-0.445,2.214-0.654,4.477-1.02,7.067
		c4.279,0,8.344,0,12.781,0c-0.604,2.557-1.074,4.736-1.637,6.891c-0.992,3.801-1.016,3.809-4.971,3.854
		c-2.525,0.027-5.049,0.005-7.781,0.005c-0.402,2.677-0.805,5.214-1.164,7.757c-0.893,6.306-1.688,12.625-2.67,18.917
		c-0.92,5.917-1.982,11.815-3.082,17.704c-0.344,1.851-0.91,3.679-1.582,5.439c-0.236,0.619-1.072,1.413-1.656,1.431
		c-3.863,0.119-7.732,0.053-11.6,0.022c-0.289-0.002-0.576-0.209-1.102-0.413C357.006,100.036,357.332,82.765,360.248,65.389z"/>
	<path fill-rule="evenodd" clip-rule="evenodd" d="M392.781,91.691c-1,4.21-0.383,8.159,1.271,11.944
		c1.049,2.402,3.045,3.557,5.684,3.789c5.701,0.499,10.334-1.951,14.598-5.27c2.027-1.579,3.777-3.515,5.857-5.483
		c1.867,1.872,3.846,3.8,5.725,5.819c0.215,0.23,0.055,1.134-0.234,1.46c-5.641,6.398-11.877,11.943-20.621,13.623
		c-9.068,1.741-18.688-1.061-23.502-9.193c-1.904-3.211-2.961-6.725-3.361-10.382c-0.938-8.555,0.322-16.792,4.564-24.35
		c5.285-9.41,12.924-16.147,23.369-19.369c4.332-1.336,8.736-1.295,13.039,0.19c6.354,2.192,9.6,8.132,8.398,14.732
		c-1.193,6.565-5.27,10.859-10.615,14.291c-6.387,4.101-13.572,5.985-20.854,7.61C395.059,91.334,393.998,91.477,392.781,91.691z
		 M394.365,81.377c6.867-1.362,12.604-3.758,17.152-8.43c1.998-2.051,2.992-4.61,2.826-7.578c-0.096-1.656-0.934-2.548-2.463-2.453
		c-1.539,0.097-3.229,0.249-4.555,0.945C400.381,67.51,397.207,74.017,394.365,81.377z"/>
	<path fill-rule="evenodd" clip-rule="evenodd" d="M321.518,116.504c-12.908,0-25.563,0-38.451,0
		c0.557-4.065,1.096-7.983,1.629-11.903c0.836-6.121,1.66-12.244,2.506-18.364c0.666-4.812,1.365-9.619,2.031-14.432
		c0.855-6.185,1.676-12.375,2.537-18.56c0.924-6.619,1.879-13.234,2.816-19.852c0.68-4.807,1.402-9.609,2-14.428
		c0.174-1.399,0.781-1.781,2.094-1.763c3.676,0.05,7.355,0.02,11.031-0.032c1.385-0.02,1.865,0.354,1.625,1.895
		c-0.959,6.165-1.783,12.35-2.627,18.532c-0.932,6.812-1.813,13.63-2.75,20.441c-0.836,6.056-1.738,12.103-2.568,18.158
		c-0.824,5.995-1.586,11.998-2.393,17.995c-0.313,2.308-0.688,4.608-1.016,6.916c-0.139,0.982-0.227,1.972-0.367,3.227
		c7.93,0,15.625,0,23.602,0C322.631,108.534,322.084,112.45,321.518,116.504z"/>
	<path fill-rule="evenodd" clip-rule="evenodd" d="M298.313,160.556c-0.434,2.698-0.824,4.992-1.168,7.293
		c-0.225,1.499-1.225,1.684-2.484,1.676c-4.627-0.031-9.256-0.014-13.883-0.006c-0.553,0.002-1.107,0.063-1.715,0.1
		c-1.045,7.15-2.074,14.176-3.135,21.428c8.885,0,17.607,0,26.691,0c-0.564,2.875-1.01,5.508-1.668,8.089
		c-0.1,0.389-1.182,0.747-1.813,0.751c-7.734,0.051-15.471,0.033-23.207,0.033c-3.297,0-6.594-0.012-9.889,0.016
		c-1.445,0.014-2.102-0.19-1.813-2.056c1.193-7.727,2.107-15.494,3.199-23.236c1.197-8.493,2.494-16.971,3.711-25.46
		c0.707-4.93,1.336-9.872,2.018-14.806c0.094-0.685,0.293-1.356,0.473-2.168c11.842,0,23.658,0,35.754,0
		c-0.186,1.686-0.348,3.225-0.529,4.763c-0.037,0.312-0.174,0.611-0.215,0.923c-0.387,3.057-0.385,3.057-3.4,3.057
		c-6.848,0.002-13.695,0.029-20.543-0.013c-1.295-0.008-1.84,0.251-2.012,1.733c-0.58,5.008-1.404,9.986-2.107,14.98
		c-0.121,0.87-0.109,1.762-0.174,2.903C286.354,160.556,292.207,160.556,298.313,160.556z"/>
	<path fill-rule="evenodd" clip-rule="evenodd" d="M393.535,202.638c-6.238-0.006-12.129-1.417-17.725-4.165
		c-1.377-0.677-1.752-1.347-0.834-2.74c0.932-1.417,1.656-2.978,2.387-4.516c0.57-1.208,1.254-1.521,2.529-0.91
		c4.367,2.096,8.975,3.39,13.824,3.638c4.469,0.229,8.66-0.734,11.693-4.231c3.813-4.396,3.371-10.343-1.033-14.694
		c-3.281-3.242-6.797-6.253-10.232-9.338c-3.266-2.931-6.383-5.992-8.281-10.029c-3.947-8.39-1.02-20.451,10.555-23.931
		c8.527-2.563,16.85-1.819,24.973,1.662c1.959,0.839,2.027,1.172,1.082,3.134c-0.602,1.253-1.193,2.51-1.771,3.773
		c-0.963,2.096-1.031,2.172-3.057,1.304c-3.998-1.711-8.152-2.766-12.498-2.588c-2.041,0.083-4.174,0.43-6.063,1.173
		c-4.65,1.832-6.252,6.723-3.922,11.152c1.783,3.393,4.621,5.798,7.455,8.252c3.674,3.18,7.459,6.282,10.77,9.818
		c7.836,8.371,5.537,20.084-1.781,26.755C406.459,200.848,400.33,202.628,393.535,202.638z"/>
	<path fill-rule="evenodd" clip-rule="evenodd" d="M364.604,134.568c-1.113,2.388-2.143,4.618-3.191,6.839
		c-0.469,0.998-1.188,0.578-1.932,0.364c-3.023-0.87-6.016-1.942-9.1-2.473c-4.154-0.712-8.344-0.741-12.012,1.944
		c-2.504,1.836-3.512,4.866-2.789,7.871c1.07,4.443,4.465,7.07,7.588,9.918c3.92,3.575,8.195,6.831,11.723,10.757
		c8.494,9.449,4.152,22.337-4.4,28.256c-6.105,4.223-12.869,5.149-20.064,4.297c-5.01-0.596-9.764-1.946-14.215-4.328
		c-0.217-0.117-0.414-0.271-0.871-0.572c1.221-2.33,2.375-4.685,3.713-6.929c0.205-0.343,1.324-0.388,1.912-0.212
		c3.492,1.043,6.906,2.382,10.438,3.252c3.408,0.841,6.863,0.619,10.258-0.537c7.271-2.476,9.867-10.739,4.975-16.688
		c-2.195-2.668-4.92-4.898-7.412-7.317c-3.219-3.126-6.727-6.006-9.619-9.408c-8.346-9.823-4.08-25.348,9.824-28.423
		c7.977-1.766,15.672-1.051,23.146,2.193C363.199,133.644,363.758,134.063,364.604,134.568z"/>
	<path fill-rule="evenodd" clip-rule="evenodd" d="M79.727,132.583c-0.344,2.801-0.587,5.365-1.044,7.892
		c-0.069,0.384-1.126,0.831-1.73,0.839c-6.467,0.063-12.935,0.043-19.403,0.047c-0.686,0-1.372,0-2.308,0
		c-0.932,6.541-1.843,12.937-2.792,19.599c5.26,0,10.299,0,15.665,0c-0.173,1.915-0.242,3.585-0.488,5.229
		c-0.555,3.7-0.59,3.694-4.431,3.69c-3.86-0.002-7.72,0-11.818,0c-0.395,2.713-0.785,5.311-1.15,7.913
		c-0.975,6.935-1.966,13.867-2.884,20.81c-0.177,1.343-0.694,1.812-2.065,1.763c-2.895-0.099-5.795-0.031-8.998-0.031
		c0.369-2.89,0.677-5.498,1.037-8.1c0.832-5.997,1.68-11.991,2.539-17.985c0.688-4.806,1.419-9.604,2.099-14.414
		c0.839-5.934,1.64-11.874,2.468-17.81c0.384-2.746,0.813-5.485,1.18-8.233c0.161-1.2,0.953-1.317,1.916-1.315
		c3.932,0.012,7.863,0.004,11.794,0.004c6.087-0.002,12.174-0.002,18.261,0.004C78.132,132.483,78.69,132.534,79.727,132.583z"/>
	<path fill-rule="evenodd" clip-rule="evenodd" d="M150.176,141.327c-6.616,0-12.919,0-19.57,0c0.344-2.813,0.6-5.363,1.022-7.886
		c0.063-0.38,0.878-0.843,1.386-0.899c1.254-0.135,2.531-0.063,3.798-0.063c14.072-0.002,28.145-0.004,42.217,0.004
		c0.731,0,1.463,0.082,2.474,0.145c-0.516,2.713-1.031,5.163-1.43,7.633c-0.195,1.211-1.016,1.096-1.829,1.096
		c-4.944,0.006-9.888,0.002-14.833,0.002c-0.867,0-1.734,0-2.697,0c-0.698,4.737-1.368,9.218-2.015,13.699
		c-0.704,4.868-1.388,9.739-2.079,14.608c-0.841,5.929-1.684,11.855-2.519,17.785c-0.527,3.742-1.017,7.493-1.583,11.229
		c-0.115,0.76-0.206,1.666-1.411,1.65c-2.971-0.038-5.942-0.014-9.361-0.014C144.558,180.646,147.339,161.181,150.176,141.327z"/>
	<path fill-rule="evenodd" clip-rule="evenodd" d="M325.064,116.604c0.514-3.811,0.979-7.3,1.461-10.787
		c0.836-6.058,1.678-12.113,2.527-18.168c0.633-4.5,1.277-8.999,1.932-13.495c0.861-5.924,1.775-11.841,2.572-17.774
		c0.156-1.148,0.598-1.533,1.672-1.528c3.676,0.015,7.354,0.017,11.029-0.027c1.279-0.015,1.691,0.54,1.516,1.75
		c-0.818,5.62-1.627,11.24-2.416,16.863c-0.85,6.056-1.664,12.116-2.512,18.172c-0.664,4.744-1.359,9.484-2.033,14.227
		c-0.451,3.184-0.855,6.377-1.379,9.55c-0.074,0.452-0.689,1.157-1.066,1.165C334.072,116.634,329.773,116.604,325.064,116.604z"/>
	<path fill-rule="evenodd" clip-rule="evenodd" d="M104.447,200.205c-3.487,0-6.933,0-10.705,0c0.364-2.813,0.686-5.477,1.055-8.136
		c0.952-6.866,1.916-13.729,2.892-20.589c0.692-4.863,1.432-9.722,2.114-14.585c0.84-5.995,1.638-11.995,2.463-17.991
		c0.232-1.688,0.395-3.393,0.797-5.039c0.133-0.543,0.904-1.29,1.417-1.317c2.591-0.137,5.193-0.064,7.792-0.07
		c1.042-0.002,1.447,0.384,1.283,1.522c-0.64,4.432-1.175,8.879-1.777,13.315c-0.711,5.241-1.457,10.479-2.179,15.72
		c-0.861,6.246-1.72,12.493-2.57,18.741c-0.798,5.869-1.582,11.741-2.376,17.611C104.621,199.627,104.536,199.858,104.447,200.205z"
		/>
	<path fill-rule="evenodd" clip-rule="evenodd" d="M352.754,30.03c-0.045,5.201-4.191,9.438-9.162,9.36
		c-4.348-0.069-7.291-3.117-7.26-7.521c0.033-4.686,4.688-9.382,9.23-9.312C349.604,22.618,352.791,25.929,352.754,30.03z"/>
	<path fill-rule="evenodd" clip-rule="evenodd" fill="none" d="M241.557,99.038c1.053-12.185,4.523-22.79,12.711-31.486
		c4.057-4.309,8.854-5.292,14.35-3.374c1.221,0.426,1.936,0.939,1.6,2.611c-0.646,3.207-0.889,6.495-1.311,9.747
		c-0.039,0.305-0.119,0.622-0.254,0.896c-4.584,9.264-9.619,18.232-17.164,25.489c-1.072,1.031-2.414,1.862-3.764,2.505
		c-2.307,1.102-4.332,0.283-5.201-2.119C241.973,101.783,241.793,100.125,241.557,99.038z"/>
	<path fill-rule="evenodd" clip-rule="evenodd" fill="none" d="M183.333,92.601c0.221-8.431,1.794-15.875,6.515-22.334
		c2.827-3.869,6.432-6.507,11.521-6.638c3.687-0.095,6.274,1.428,8.027,4.613c2.521,4.58,2.777,9.574,2.363,14.56
		c-0.407,4.897-1.511,9.718-3.751,14.164c-2.036,4.04-4.313,7.995-8.729,9.857c-5.322,2.244-12.605,1.605-14.729-6.425
		c-0.226-0.853-0.603-1.681-0.715-2.545C183.585,95.919,183.458,93.969,183.333,92.601z"/>
	<path fill-rule="evenodd" clip-rule="evenodd" fill="none" d="M153.034,78.975c-0.756,9.845-2.585,18.389-9.021,25.225
		c-3.973,4.219-10.972,4.951-15.2,1.677c-2.462-1.906-3.484-4.707-3.898-7.56c-1.564-10.784,0.083-20.932,7.112-29.63
		c3.126-3.869,7.439-5.663,12.459-4.921c4.21,0.621,6.059,3.932,7.154,7.514C152.477,74.015,152.685,76.944,153.034,78.975z"/>
	<path fill-rule="evenodd" clip-rule="evenodd" fill="none" d="M394.365,81.377c2.842-7.361,6.016-13.867,12.961-17.516
		c1.326-0.696,3.016-0.848,4.555-0.945c1.529-0.095,2.367,0.796,2.463,2.453c0.166,2.968-0.828,5.527-2.826,7.578
		C406.969,77.619,401.232,80.016,394.365,81.377z"/>
	<g>
		<path fill-rule="evenodd" clip-rule="evenodd" d="M434.83,58.229c0,1.866-1.516,3.381-3.381,3.381
			c-1.867,0-3.381-1.515-3.381-3.381c0.002-1.867,1.516-3.381,3.381-3.379C433.316,54.851,434.828,56.362,434.83,58.229z
			 M428.756,58.229c0,1.489,1.205,2.695,2.693,2.695c1.488-0.001,2.695-1.208,2.693-2.695c0-1.488-1.207-2.694-2.693-2.693
			C429.961,55.536,428.754,56.743,428.756,58.229z"/>
		<path fill-rule="evenodd" clip-rule="evenodd" d="M429.967,59.921c0-1.178,0-2.356,0-3.536c0.006,0,0.012,0,0.018,0
			c0.459,0,0.918,0,1.377,0c0.176,0,0.354,0.011,0.529,0.043c0.137,0.025,0.268,0.063,0.391,0.128
			c0.199,0.104,0.33,0.265,0.387,0.482c0.057,0.208,0.059,0.417,0.002,0.625c-0.057,0.218-0.189,0.38-0.383,0.493
			c-0.074,0.043-0.152,0.077-0.23,0.104c-0.008,0.002-0.014,0.004-0.023,0.007c0.033,0.012,0.064,0.021,0.094,0.032
			c0.119,0.047,0.215,0.13,0.295,0.228c0.104,0.123,0.18,0.261,0.248,0.402c0.16,0.324,0.32,0.648,0.48,0.971
			c0.002,0.007,0.006,0.013,0.01,0.021c-0.008,0-0.014,0.001-0.02,0.001c-0.313,0-0.623,0-0.936,0c-0.014,0-0.02-0.005-0.025-0.018
			c-0.143-0.294-0.287-0.588-0.434-0.881c-0.041-0.083-0.088-0.162-0.145-0.236c-0.09-0.116-0.207-0.184-0.352-0.195
			c-0.123-0.011-0.246-0.009-0.371-0.012c0,0.448,0,0.894,0,1.34C430.574,59.921,430.271,59.921,429.967,59.921z M430.879,57.952
			c0.006,0.001,0.012,0.002,0.016,0.002c0.121,0,0.242,0,0.363,0c0.092-0.001,0.182-0.008,0.271-0.033
			c0.127-0.037,0.215-0.119,0.248-0.251c0.027-0.112,0.029-0.225,0.002-0.337c-0.031-0.127-0.109-0.21-0.236-0.25
			c-0.082-0.026-0.168-0.035-0.254-0.036c-0.131-0.001-0.264,0-0.395,0c-0.004,0-0.01,0-0.016,0.001
			C430.879,57.35,430.879,57.65,430.879,57.952z"/>
	</g>
</g>
</svg>
