<?xml version="1.0" encoding="utf-8"?>
<!-- Generator: Adobe Illustrator 19.0.0, SVG Export Plug-In . SVG Version: 6.00 Build 0)  -->
<svg version="1.1" id="Layer_1" xmlns="http://www.w3.org/2000/svg" xmlns:xlink="http://www.w3.org/1999/xlink" x="0px" y="0px"
	 width="175.7px" height="128.3px" viewBox="0 0 175.7 128.3" style="enable-background:new 0 0 175.7 128.3;" xml:space="preserve"
	>
<style type="text/css">
	.st0{fill:#D2232A;}
</style>
<path class="st0" d="M57.6,39c-1.5,4.4-6.1,7.1-10.5,7.5c-3.3,0.1-6.6-0.1-9.1-2c-5.5-4.6-5.1-12.9-3.3-19.2c1.8-1,5.5-0.3,8.3-0.6
	c0.5,4.1-2.4,10.1,1.9,13c1.5,0.6,2.8-0.7,3-1.9l0.6-35.4l9.9,0L57.6,39L57.6,39L57.6,39z"/>
<path class="st0" d="M122.5,1c0.1,4.6-0.2,9.3,0.2,13.8l6.9-13.6l9.5-0.2l-8.7,17.4c3.3,9.3,7.2,18.3,10,27.9l-10.5,0
	c-1.8-5.3-3.4-10.8-5.5-16c-3.5,4.4-1.5,11.1-2.3,16l-9.7,0l0.1-45.3C116.1,1.3,119.2,0,122.5,1L122.5,1L122.5,1z"/>
<path class="st0" d="M72.9,31.5l-2.2-12.7l-1.6,12.7L72.9,31.5L72.9,31.5L72.9,31.5z M106.7,2.5c4.3,3.9,3.4,10.5,2.7,15.8l-8.3,0.6
	c-0.5-3.7,1.5-9.5-2.7-11.4c-1.8-0.5-3.2,1.7-3.6,3.1C94,18.7,94,27.9,94.8,36c0.7,1.4,1.5,2.9,3.3,2.8c1.8,0.3,2.8-1.4,3.6-2.8
	l0-9.9c3.1,0.1,5.3-0.2,8.3,0.2c1.8,5.1,1.5,11.9-1.4,16.4c-3.7,5.4-10.7,4.6-16.4,3.9c-2.8-1-5.9-3.2-7.1-6.1
	c-0.2,1.7,0.3,3.8,0.6,5.8l-10.3,0c-1-2.2-0.1-5.5-1.9-7.1l-5.5,0l-1.6,7.1c-3-0.1-6.1,0.2-8.9-0.2l9.2-44.8l9.7-0.2
	c2.8,9.7,4.6,20.3,6.9,30.5c0.9-10.7-1.9-24.8,8.9-30.4C96.7-0.6,102.8-0.4,106.7,2.5L106.7,2.5L106.7,2.5z"/>
<path class="st0" d="M146.5,49.4c-0.9,6.7,2.7,17.6-6.5,20.7l-2.8,0.8c-0.6-1-0.8-2.2-1-3.3c1.8-1,4.3-2.4,5-4.7
	c0.3-0.7,0.2-1.6,0.2-2.4c-0.8-1-2.3-0.5-3.6-0.6l0.4-10.5L146.5,49.4L146.5,49.4L146.5,49.4z"/>
<path class="st0" d="M170.3,55.2c3.2,2.9,3.6,7.6,2.5,11.7c-2.5,1-5.8,0.3-8.6,0.6c0.2-2.5,1.2-6.3-2-7.5c-1.8-0.2-3.6,0.1-4.4,2
	c-1.5,3.1,1.1,5.8,3.6,7.2c5.1,1.6,10.8,3.9,13.2,9.5c2,5.5,1.5,11.9-2.2,16.6c-4.2,4.5-10.9,4.6-16.6,3.5c-3-0.9-5.6-3.5-6.9-6.4
	c-0.5-2.9-1.4-6.4-0.2-9.2l8.3-0.2c-0.5,2.4-0.6,5.3,1,7.1c1.3,1.6,3.7,1.8,5.3,0.9c2.3-1.3,2.5-4.1,2-6.5
	c-4.1-6.5-12.8-5.9-16.3-13.3c-1.5-3.9-1.8-9,0.4-12.7c2.3-3.4,6-5.9,10.2-6.1C163.4,52.8,167.4,52.6,170.3,55.2L170.3,55.2
	L170.3,55.2z"/>
<path class="st0" d="M118.8,59.5l0,13.4l3.8,0c3-2.4,2-7.7,1.4-11.1C123.1,59.6,120.9,59.3,118.8,59.5L118.8,59.5L118.8,59.5z
	 M134.1,58.5c1.4,5,2.3,11.5-1,16c-1.2,1.4-2.6,1.8-4.2,2.5c7.4,4.6,3.1,14.5,5.9,21.2l-9.1,0.3c-2.6-5.5-0.7-12-2.7-17.8
	c-1.3-0.8-2.5-1.4-4.2-1l-0.6,18.4l-9.1,0c-0.4-14.9-0.4-30.3,0.1-45.3l0.8-0.4C117.6,54.4,129.5,49.2,134.1,58.5L134.1,58.5
	L134.1,58.5z"/>
<path class="st0" d="M13.3,70.2l-2,13l3.9,0C14.8,78.8,14,74.4,13.3,70.2L13.3,70.2L13.3,70.2z M90,60.4c-2,8.2-0.9,18-0.8,26.8
	l1.6,3.1c1.4,0.5,3.5,0.4,4.2-1.2c2-8.2,1.1-18,0.9-26.9C96.4,59.1,91.3,57.1,90,60.4L90,60.4L90,60.4z M105,59.3
	c3,10.3,2.7,24.1-1,34c-2.2,2.9-5,5.4-8.5,5.5c-4.8,1-9.3-0.4-13-3c-6.8-8.3-4.3-20.3-4.1-30.5c0.3-1.3,0.6-2.4,0.8-3.6l-8-0.4
	l-0.4,36.3c-2.9,0.9-6.6,0.3-9.9,0.4l-0.2-36.4c-2.4-1-5.4-0.5-8.1-0.6c-0.9,1.6-0.5,3.8-1.4,5.5l-8.3,0c0.3-2.7,1-6.6-2.2-7.5
	c-2.4-0.7-4,1.5-4.5,3.3c0.3,7.3,8.4,6.1,12.4,9.7c5.6,3.7,6.1,10.6,5.3,16.6c-0.8,3.5-3.4,7.1-6.9,8.5c-4.8,1.7-11.8,1.7-16-1.1
	c-1.8-1.4-2.4-3.2-3.6-4.7c-0.6,2.1,0.9,4,0.8,6.3l-10.3,0l-1.4-6.9l-6.3-0.2l-1.4,6.9L0,97.8c2.7-15,5.7-30.4,9.2-45.4
	c3.2-0.3,6.8-0.3,10,0l7.1,34.4c1.3-1.5-0.4-5.2,2.5-5l6.9,0.3c-0.5,2.4-0.6,5.3,1,7.3c1.1,1.5,3.1,1.6,4.7,1.1
	c2-0.9,2.4-2.9,2.8-4.7C42.2,77.5,31.7,78.9,28,71c-2.2-4.4-1.8-10.3,0.9-14.4c3.6-5.1,9.7-5.1,15.5-4.4c2.8,0.9,6,2.4,7.1,5.5
	l0.6-5.3l27.7,0l0.3,5.5c1-0.4,2.2-2.3,3.2-3.6c4.5-3.5,10.7-4,15.8-1.6C101.8,54.1,103.9,56.7,105,59.3L105,59.3L105,59.3z"/>
<path d="M156.9,106.6c-2.4,2.9-3,7.9-2.2,12c2.5-2.9,3.5-6.8,3-10.6L156.9,106.6L156.9,106.6L156.9,106.6z M148.9,106.6
	c-1.5,3.6-2.4,8-1.6,12c2.3-2.6,3.5-5.8,3.4-9.5C150.1,108.2,150.4,106.6,148.9,106.6L148.9,106.6L148.9,106.6z M121.8,105l1.2,0
	c0.2,1.8-1.4,4.1-2.8,5.3c-1.4-0.5,0.5-3.8-1.7-3.9c-2.8-0.5-4.7,2.8-5.8,4.7c-2.1,3.8-2.1,9.1,0,13c1,2,3.3,3.1,5.5,2.2
	c3.3-2.1,4.7-5.4,4.4-9.1c-1.5-1.4-4.6,0.1-6.6,0.8c-1-2.1,1.5-2.2,2.8-2.8c3.2-1.7,11.3,1.7,11.3-4.1c0.5-0.3,1-0.3,1.4,0.2
	c-0.1,1-1,2.3,0,3.1c0.8,0.2,1-1,2-0.6c-0.4,3-2,7.5,0.2,10.5c2.3,0.2,2.3-2.5,3.4-3.9c1-1.8,0-5,2-6c0.6,2.8-1.7,6.8,1,9.1
	c1,1,2.8,1.6,3.9,0.6c3.8-3.1,0.7-8.2,2.2-12.2c0.5-2.5,1.2-5.1,2.5-7.1c2.4-0.7,2.4,1.9,3,3.2c0.2,5-0.8,9.7-4.4,12.8
	c0,1.4,0.7,2.7,1.6,3.3c3.1-0.3,3.3-3.7,4.2-5.9c0.1-5,0.6-9.9,3.4-13.5c2.2-0.3,2.6,2.4,2.8,4.2c0.2,4.5-1.2,8.7-4.2,11.5
	c-0.7,1,0,2.2,0.6,3.1c0.3,0.8,1.3,0.5,2,0.6c2.4-2.5,3.2-5.6,3.6-8.9c0.5,3.9-0.2,8.6-3.9,10.7c-2.3,0.2-3.1-2.3-3.8-3.8
	c-1.3,1.3-1.9,3.6-3.9,3.8c-1.3-0.2-2.8-1.1-3-2.4c-1.5,1.8-3.8,3.6-6.5,2.4c-1.4-0.9-1.6-2.3-2.4-3.6c-1.2,1.3-1.4,3.5-3.4,3.9
	c-4.4-0.9-2.1-6.8-3-9.7l-0.9,0c-1.7,3.3-2.4,7.6-6,9.7c-0.7-0.1-1.6-0.4-1.7-1.2c-0.2-0.6,0.4-0.9,0.6-1.4c1.8,1.6,3-1.3,3.9-2.4
	c0.5-2,2.4-4,1.6-5.9l-5,0.6c0.1,5-1.2,9.9-5.9,12.2c-2.8,0.3-5.4-1.3-6.3-3.9c-1.9-5.3-1.4-12.2,1.8-16.8c1.8-1.7,3.9-3.8,6.6-2.5
	C120.6,105.2,121.1,105.7,121.8,105L121.8,105L121.8,105z"/>
<path d="M138.9,111.7l-1.2,1c-0.9-0.7-0.6-1.3-0.2-2.2C138.4,110.5,138.7,110.9,138.9,111.7L138.9,111.7L138.9,111.7z"/>
<path d="M37.1,113.9c-1.4,1.7-1.6,3.8-1.4,6.1c0.5,1.4,0.8,3.5,2.8,3.9c3.8-2,2.9-6.9,3.8-10.6C40.9,112,38.3,112.5,37.1,113.9
	L37.1,113.9L37.1,113.9z M51.7,113.4l2-0.5c-0.6,2.6-1.4,7.6,0.4,10.5c1.7,0,2.4-2,3.1-3.1l0.2-1.8c1.2,1,0.2,3.1-0.2,4.4
	c-0.9,0.9-1.3,2.4-2.8,2.2c-1,0.6-1.7-0.8-2.2-1.6c-0.8-2.5,0.5-6.1-1.1-8.1c-2.7,3-2.2,9.3-7.5,9.7l-1.6-2.2
	c-1.2,1.6-3,3.7-5.3,2.5c-2.3-1.6-2.1-4.3-2.4-6.7c0.4-3,1-6.1,4.2-7.7c1.6-0.4,3.7-0.6,5,0.8c2.9,3.5-2.1,6.1,0,10.3
	c0.2,1.2,1.6,1.4,2.4,0.8c2.2-1.8,1.5-4.1,3.4-6.1c1.6-2.2-0.2-5.1,2-6.9C52.6,110.6,50.7,112.2,51.7,113.4L51.7,113.4L51.7,113.4z"
	/>
<path d="M92.5,113.5c-1.4,2.4-2.2,5.2-1.4,8.1c0.3,0.9,0.8,2.4,2.2,2.2c2.8-1.7,3.9-5.2,4.2-8.5C96.6,113.7,94.2,111.4,92.5,113.5
	L92.5,113.5L92.5,113.5z M72.5,112.6c-1.6,0.6-2.7,2.3-3.3,3.6c-0.6,2.8-0.4,5.9,2,7.8c4.7-0.8,3.1-6.7,4.7-10
	C75.2,113.1,73.9,112.3,72.5,112.6L72.5,112.6L72.5,112.6z M100.4,104.9c-0.8,5.8-2.9,12.4-0.6,18.2l0.9,0c0.5,0.7,0.2,2.2-0.9,2
	c-2.1-0.3-1.1-3-2.2-4.4c-1.2,1.7-1.9,4.1-4.2,5c-2.2,0.6-3.2-1.8-3.8-3.3c-1,1.3-1.3,3.2-3.1,3.6c-1.8-2.4-0.8-6-2-8.8
	c-1.3,2-1.9,4.6-2.4,7.1c-1.2,0.3-0.6-1-1.1-1.4c-1.3,1-2.2,3-4.2,2.2l-1.6-2.2c-1.2,1.1-1.7,3-3.6,3c-2.3-0.2-3.3-2.2-3.9-4.2
	c-0.9-3.3,0.4-6.5,2-9.1c1.5-1.7,4-2.5,6.1-1.4c1.2,0.9,1.8,2.2,1.8,3.6c-1.6,2-1.5,4.8-1,7.3c0.5,1.6,2.2,1.5,3,0.2
	c1.5-2.4,1.7-6.1,2-9.3l0.8,0c-0.1,1.4,0.2,3.1-0.2,4.4l0.2,0.2c1.4-0.9,0.9-5.3,3.3-3.8c0.5,3.1,0.1,6.7,1.1,9.7
	c4.4-3.1,1.9-17.3,10.7-11c1-2.6,0.1-6.3,2-8.3L100.4,104.9L100.4,104.9L100.4,104.9z"/>
<path d="M21.5,116.4l0.3,7.7c2.2,0.1,4.4-0.1,6.3-0.8c1.4-1,3.6-1.8,3-4.1C29,116.4,25.2,115.5,21.5,116.4L21.5,116.4L21.5,116.4z
	 M32,108.2c0.7,3.1-3.2,5.2-5,6.6c2.4,1.2,5.8,2,6.7,5.1c-2,4.9-8,5.4-12.5,5.7c-1.1-0.4-2.4-0.5-3.3-1.4l0-1.2h1.6
	c0,0.3,0.2,0.5,0.3,0.6c0.4-2.4,0.6-5.5-0.3-7.7c0.9-0.5,0.5-2,0.6-3c-1.7-1.4-0.1-3.9-0.2-5.9l1.6,0.3c0.2,2.1-0.5,4.6-0.2,7.2
	c3.3,0.3,6.9-1.1,8.9-4.4c0.7-2.5-1.8-3.9-3.7-4.5c-4-0.6-8.7-0.4-11.9,1.9c-0.5-0.2-0.1-0.7-0.2-1.2
	C19.1,103.3,28.7,102.6,32,108.2L32,108.2L32,108.2z"/>
<path d="M165.3,124.1l0.7,0c0.5,0,1.1,0,1.1-0.7c0-0.5-0.5-0.6-0.9-0.6h-0.8L165.3,124.1L165.3,124.1L165.3,124.1z M164.7,122.3
	l1.6,0c1,0,1.4,0.4,1.4,1.1c0,0.7-0.5,1-1.1,1.1l1.1,1.8l-0.7,0l-1.1-1.7h-0.7l0,1.7l-0.6,0L164.7,122.3L164.7,122.3L164.7,122.3z
	 M166,127.3c1.6,0,2.8-1.3,2.9-2.9c0-1.6-1.2-2.9-2.8-2.9c-1.6,0-2.9,1.2-2.9,2.9C163.1,126,164.4,127.3,166,127.3L166,127.3
	L166,127.3z M166,120.9c1.9,0,3.5,1.5,3.4,3.5c0,2-1.6,3.4-3.5,3.4c-1.9,0-3.5-1.5-3.4-3.5C162.6,122.4,164.2,120.9,166,120.9
	L166,120.9L166,120.9z"/>
</svg>
